{
.appVersion = "1271";
copyright = "\\2512016 by Robert E. Leuschke. All rights reserved.";
customParameters = (
{
name = description;
value = "©2016 by Robert E. Leuschke. All rights reserved.";
},
{
name = trademark;
value = "Hurricane is a trademark of Robert E. Leuschke.";
},
{
name = licenseURL;
value = "http://www.typesetit.com/license.html";
},
{
name = license;

glyphs = (
{
glyphname = D;
layers = (
{
hints = (
{
horizontal = 1;
place = "{-277, 10}";
type = Stem;
},
{
horizontal = 1;
place = "{-208, 10}";
type = Stem;
},
{
horizontal = 1;
place = "{-162, 10}";
type = Stem;
},
{
place = "{0, 10}";
type = Stem;
},
{
place = "{69, 10}";
type = Stem;
},
{
place = "{115, 10}";
type = Stem;
}
);
layerId = "D54531F3-FE1C-40AB-90CA-1E553B8D5AD9";
paths = (
{
closed = 1;
nodes = (
"0 -277 LINE",
"79 -277 LINE",
"79 -208 LINE",
"385 -208 LINE",
"385 -198 LINE",
"79 -198 LINE",
"79 783 LINE",
"69 783 LINE",
"69 -198 LINE",
"0 -198 LINE"
);
},
{
closed = 1;
nodes = (
"115 783 LINE",
"115 -162 LINE",
"385 -162 LINE",
"385 -152 LINE",
"125 -152 LINE",
"125 783 LINE"
);
},
{
closed = 1;
nodes = (
"10 -208 LINE",
"69 -208 LINE",
"69 -267 LINE",
"10 -267 LINE"
);
}
);
width = 384;
}
);
note = D;
unicode = 0044;
},
{
glyphname = E;
layers = (
{
hints = (
{
horizontal = 1;
place = "{-208, 10}";
type = Stem;
},
{
horizontal = 1;
place = "{-162, 10}";
type = Stem;
},
{
place = "{-1, 386}";
type = Stem;
}
);
layerId = "D54531F3-FE1C-40AB-90CA-1E553B8D5AD9";
paths = (
{
closed = 1;
nodes = (
"385 -198 LINE",
"-1 -198 LINE",
"-1 -208 LINE",
"385 -208 LINE"
);
},
{
closed = 1;
nodes = (
"385 -152 LINE",
"-1 -152 LINE",
"-1 -162 LINE",
"385 -162 LINE"
);
}
);
width = 384;
}
);
note = E;
unicode = 0045;
},
{
glyphname = F;
layers = (
{
hints = (
{
horizontal = 1;
place = "{-277, 10}";
type = Stem;
},
{
horizontal = 1;
place = "{-208, 10}";
type = Stem;
},
{
horizontal = 1;
place = "{-162, 10}";
type = Stem;
},
{
place = "{259, 10}";
type = Stem;
},
{
place = "{305, 10}";
type = Stem;
},
{
place = "{374, 10}";
type = Stem;
}
);
layerId = "D54531F3-FE1C-40AB-90CA-1E553B8D5AD9";
paths = (
{
closed = 1;
nodes = (
"384 -198 LINE",
"315 -198 LINE",
"315 783 LINE",
"305 783 LINE",
"305 -198 LINE",
"-1 -198 LINE",
"-1 -208 LINE",
"305 -208 LINE",
"305 -277 LINE",
"384 -277 LINE"
);
},
{
closed = 1;
nodes = (
"259 783 LINE",
"259 -152 LINE",
"-1 -152 LINE",
"-1 -162 LINE",
"269 -162 LINE",
"269 783 LINE"
);
},
{
closed = 1;
nodes = (
"315 -208 LINE",
"374 -208 LINE",
"374 -267 LINE",
"315 -267 LINE"
);
}
);
width = 384;
}
);
note = F;
unicode = 0046;
},
{
glyphname = G;
layers = (
{
hints = (
{
horizontal = 1;
place = "{550, 10}";
type = Stem;
},
{
horizontal = 1;
place = "{596, 10}";
type = Stem;
},
{
place = "{-16, 401}";
type = Stem;
}
);
layerId = "D54531F3-FE1C-40AB-90CA-1E553B8D5AD9";
paths = (
{
closed = 1;
nodes = (
"-16 591 OFFCURVE",
"-9 583 OFFCURVE",
"0 583 CURVE SMOOTH",
"7 583 OFFCURVE",
"14 589 OFFCURVE",
"16 596 CURVE",
"385 596 LINE",
"385 606 LINE",
"16 606 LINE",
"13 612 OFFCURVE",
"7 616 OFFCURVE",
"0 616 CURVE SMOOTH",
"-9 616 OFFCURVE",
"-16 609 OFFCURVE",
"-16 600 CURVE SMOOTH"
);
},
{
closed = 1;
nodes = (
"-16 545 OFFCURVE",
"-9 537 OFFCURVE",
"0 537 CURVE SMOOTH",
"7 537 OFFCURVE",
"14 543 OFFCURVE",
"16 550 CURVE",
"385 550 LINE",
"385 560 LINE",
"16 560 LINE",
"13 566 OFFCURVE",
"7 570 OFFCURVE",
"0 570 CURVE SMOOTH",
"-9 570 OFFCURVE",
"-16 563 OFFCURVE",
"-16 554 CURVE SMOOTH"
);
}
);
width = 384;
}
);
note = G;
unicode = 0047;
},
{
glyphname = H;
layers = (
{
hints = (
{
horizontal = 1;
place = "{550, 10}";
type = Stem;
},
{
horizontal = 1;
place = "{596, 10}";
type = Stem;
},
{
place = "{-1, 401}";
type = Stem;
}
);
layerId = "D54531F3-FE1C-40AB-90CA-1E553B8D5AD9";
paths = (
{
closed = 1;
nodes = (
"400 609 OFFCURVE",
"393 616 OFFCURVE",
"384 616 CURVE SMOOTH",
"377 616 OFFCURVE",
"370 612 OFFCURVE",
"368 606 CURVE",
"-1 606 LINE",
"-1 596 LINE",
"367 596 LINE",
"369 589 OFFCURVE",
"376 583 OFFCURVE",
"384 583 CURVE SMOOTH",
"393 583 OFFCURVE",
"400 591 OFFCURVE",
"400 600 CURVE SMOOTH"
);
},
{
closed = 1;
nodes = (
"400 563 OFFCURVE",
"393 570 OFFCURVE",
"384 570 CURVE SMOOTH",
"377 570 OFFCURVE",
"370 566 OFFCURVE",
"368 560 CURVE",
"-1 560 LINE",
"-1 550 LINE",
"367 550 LINE",
"369 543 OFFCURVE",
"376 537 OFFCURVE",
"384 537 CURVE SMOOTH",
"393 537 OFFCURVE",
"400 545 OFFCURVE",
"400 554 CURVE SMOOTH"
);
}
);
width = 384;
}
);
note = H;
unicode = 0048;
},
{
glyphname = I;
layers = (
{
hints = (
{
horizontal = 1;
place = "{-208, 10}";
type = Stem;
},
{
horizontal = 1;
place = "{-162, 10}";
type = Stem;
},
{
place = "{-16, 401}";
type = Stem;
}
);
layerId = "D54531F3-FE1C-40AB-90CA-1E553B8D5AD9";
paths = (
{
closed = 1;
nodes = (
"-16 -211 OFFCURVE",
"-9 -218 OFFCURVE",
"0 -218 CURVE SMOOTH",
"7 -218 OFFCURVE",
"13 -214 OFFCURVE",
"16 -208 CURVE",
"385 -208 LINE",
"385 -198 LINE",
"16 -198 LINE",
"14 -191 OFFCURVE",
"7 -185 OFFCURVE",
"0 -185 CURVE SMOOTH",
"-9 -185 OFFCURVE",
"-16 -193 OFFCURVE",
"-16 -202 CURVE SMOOTH"
);
},
{
closed = 1;
nodes = (
"-16 -165 OFFCURVE",
"-9 -172 OFFCURVE",
"0 -172 CURVE SMOOTH",
"7 -172 OFFCURVE",
"13 -168 OFFCURVE",
"16 -162 CURVE",
"385 -162 LINE",
"385 -152 LINE",
"16 -152 LINE",
"14 -145 OFFCURVE",
"7 -139 OFFCURVE",
"0 -139 CURVE SMOOTH",
"-9 -139 OFFCURVE",
"-16 -147 OFFCURVE",
"-16 -156 CURVE SMOOTH"
);
}
);
width = 384;
}
);
note = I;
unicode = 0049;
},
{
glyphname = J;
layers = (
{
hints = (
{
horizontal = 1;
place = "{-208, 10}";
type = Stem;
},
{
horizontal = 1;
place = "{-162, 10}";
type = Stem;
},
{
place = "{-1, 401}";
type = Stem;
}
);
layerId = "D54531F3-FE1C-40AB-90CA-1E553B8D5AD9";
paths = (
{
closed = 1;
nodes = (
"400 -193 OFFCURVE",
"393 -185 OFFCURVE",
"384 -185 CURVE SMOOTH",
"376 -185 OFFCURVE",
"369 -191 OFFCURVE",
"367 -198 CURVE",
"-1 -198 LINE",
"-1 -208 LINE",
"368 -208 LINE",
"370 -214 OFFCURVE",
"377 -218 OFFCURVE",
"384 -218 CURVE SMOOTH",
"393 -218 OFFCURVE",
"400 -211 OFFCURVE",
"400 -202 CURVE SMOOTH"
);
},
{
closed = 1;
nodes = (
"400 -147 OFFCURVE",
"393 -139 OFFCURVE",
"384 -139 CURVE SMOOTH",
"376 -139 OFFCURVE",
"369 -145 OFFCURVE",
"367 -152 CURVE",
"-1 -152 LINE",
"-1 -162 LINE",
"368 -162 LINE",
"370 -168 OFFCURVE",
"377 -172 OFFCURVE",
"384 -172 CURVE SMOOTH",
"393 -172 OFFCURVE",
"400 -165 OFFCURVE",
"400 -156 CURVE SMOOTH"
);
}
);
width = 384;
}
);
note = J;
unicode = 004A;
},
{
glyphname = K;
layers = (
{
hints = (
{
horizontal = 1;
place = "{-393, 21}";
target = up;
type = BottomGhost;
},
{
horizontal = 1;
place = "{125, 10}";
type = Stem;
},
{
horizontal = 1;
place = "{168, 32}";
type = Stem;
},
{
horizontal = 1;
place = "{233, 10}";
type = Stem;
},
{
place = "{17, 10}";
type = Stem;
},
{
place = "{69, 10}";
type = Stem;
},
{
place = "{115, 10}";
type = Stem;
},
{
place = "{61, 10}";
type = Stem;
}
);
layerId = "D54531F3-FE1C-40AB-90CA-1E553B8D5AD9";
paths = (
{
closed = 1;
nodes = (
"125 -393 LINE",
"125 135 LINE",
"116 135 LINE SMOOTH",
"91 137 OFFCURVE",
"71 158 OFFCURVE",
"71 184 CURVE SMOOTH",
"71 209 OFFCURVE",
"91 231 OFFCURVE",
"116 233 CURVE SMOOTH",
"125 233 LINE",
"125 783 LINE",
"115 783 LINE",
"115 243 LINE",
"84 240 OFFCURVE",
"61 215 OFFCURVE",
"61 184 CURVE SMOOTH",
"61 152 OFFCURVE",
"84 127 OFFCURVE",
"115 125 CURVE",
"115 -393 LINE"
);
},
{
closed = 1;
nodes = (
"79 -393 LINE",
"79 100 LINE",
"79 100 OFFCURVE",
"73 102 OFFCURVE",
"69 105 CURVE SMOOTH",
"44 122 OFFCURVE",
"27 150 OFFCURVE",
"27 183 CURVE SMOOTH",
"27 215 OFFCURVE",
"44 244 OFFCURVE",
"69 260 CURVE SMOOTH",
"79 266 LINE",
"79 783 LINE",
"69 783 LINE",
"69 272 LINE",
"38 255 OFFCURVE",
"17 221 OFFCURVE",
"17 183 CURVE SMOOTH",
"17 145 OFFCURVE",
"38 111 OFFCURVE",
"69 93 CURVE",
"69 -393 LINE"
);
},
{
closed = 1;
nodes = (
"136 193 OFFCURVE",
"129 200 OFFCURVE",
"120 200 CURVE SMOOTH",
"111 200 OFFCURVE",
"104 193 OFFCURVE",
"104 184 CURVE SMOOTH",
"104 175 OFFCURVE",
"111 168 OFFCURVE",
"120 168 CURVE SMOOTH",
"129 168 OFFCURVE",
"136 175 OFFCURVE",
"136 184 CURVE SMOOTH"
);
}
);
width = 384;
}
);
note = K;
unicode = 004B;
},
{
glyphname = L;
layers = (
{
hints = (
{
horizontal = 1;
place = "{-393, 21}";
target = up;
type = BottomGhost;
},
{
horizontal = 1;
place = "{125, 10}";
type = Stem;
},
{
horizontal = 1;
place = "{168, 32}";
type = Stem;
},
{
horizontal = 1;
place = "{233, 10}";
type = Stem;
},
{
place = "{259, 10}";
type = Stem;
},
{
place = "{305, 10}";
type = Stem;
},
{
place = "{357, 10}";
type = Stem;
},
{
place = "{313, 10}";
type = Stem;
}
);
layerId = "D54531F3-FE1C-40AB-90CA-1E553B8D5AD9";
paths = (
{
closed = 1;
nodes = (
"269 -393 LINE",
"269 125 LINE",
"300 127 OFFCURVE",
"323 152 OFFCURVE",
"323 184 CURVE SMOOTH",
"323 215 OFFCURVE",
"300 240 OFFCURVE",
"269 243 CURVE",
"269 783 LINE",
"259 783 LINE",
"259 233 LINE",
"268 233 LINE SMOOTH",
"293 231 OFFCURVE",
"313 209 OFFCURVE",
"313 184 CURVE SMOOTH",
"313 158 OFFCURVE",
"293 137 OFFCURVE",
"268 135 CURVE SMOOTH",
"259 135 LINE",
"259 -393 LINE"
);
},
{
closed = 1;
nodes = (
"315 -393 LINE",
"315 93 LINE",
"346 111 OFFCURVE",
"367 145 OFFCURVE",
"367 183 CURVE SMOOTH",
"367 221 OFFCURVE",
"346 255 OFFCURVE",
"315 272 CURVE",
"315 783 LINE",
"305 783 LINE",
"305 266 LINE",
"315 260 LINE SMOOTH",
"340 244 OFFCURVE",
"357 215 OFFCURVE",
"357 183 CURVE SMOOTH",
"357 150 OFFCURVE",
"340 122 OFFCURVE",
"315 105 CURVE SMOOTH",
"311 102 OFFCURVE",
"305 100 OFFCURVE",
"305 100 CURVE",
"305 -393 LINE"
);
},
{
closed = 1;
nodes = (
"248 175 OFFCURVE",
"255 168 OFFCURVE",
"264 168 CURVE SMOOTH",
"273 168 OFFCURVE",
"280 175 OFFCURVE",
"280 184 CURVE SMOOTH",
"280 193 OFFCURVE",
"273 200 OFFCURVE",
"264 200 CURVE SMOOTH",
"255 200 OFFCURVE",
"248 193 OFFCURVE",
"248 184 CURVE SMOOTH"
);
}
);
width = 384;
}
);
note = L;
unicode = 004C;
},
{
glyphname = M;
layers = (
{
hints = (
{
horizontal = 1;
place = "{-393, 21}";
target = up;
type = BottomGhost;
},
{
horizontal = 1;
place = "{125, 10}";
type = Stem;
},
{
horizontal = 1;
place = "{168, 32}";
type = Stem;
},
{
horizontal = 1;
place = "{233, 10}";
type = Stem;
},
{
place = "{15, 10}";
type = Stem;
},
{
place = "{69, 10}";
type = Stem;
},
{
place = "{115, 10}";
type = Stem;
}
);
layerId = "D54531F3-FE1C-40AB-90CA-1E553B8D5AD9";
paths = (
{
closed = 1;
nodes = (
"79 -393 LINE",
"79 135 LINE",
"74 135 LINE SMOOTH",
"47 135 OFFCURVE",
"25 157 OFFCURVE",
"25 184 CURVE SMOOTH",
"25 211 OFFCURVE",
"47 233 OFFCURVE",
"74 233 CURVE SMOOTH",
"79 233 LINE",
"79 783 LINE",
"69 783 LINE",
"69 243 LINE",
"38 240 OFFCURVE",
"15 215 OFFCURVE",
"15 184 CURVE SMOOTH",
"15 152 OFFCURVE",
"38 127 OFFCURVE",
"69 125 CURVE",
"69 -393 LINE"
);
},
{
closed = 1;
nodes = (
"125 233 LINE",
"125 783 LINE",
"115 783 LINE",
"115 233 LINE"
);
},
{
closed = 1;
nodes = (
"125 -393 LINE",
"125 135 LINE",
"115 135 LINE",
"115 -393 LINE"
);
},
{
closed = 1;
nodes = (
"136 193 OFFCURVE",
"129 200 OFFCURVE",
"120 200 CURVE SMOOTH",
"111 200 OFFCURVE",
"104 193 OFFCURVE",
"104 184 CURVE SMOOTH",
"104 175 OFFCURVE",
"111 168 OFFCURVE",
"120 168 CURVE SMOOTH",
"129 168 OFFCURVE",
"136 175 OFFCURVE",
"136 184 CURVE SMOOTH"
);
}
);
width = 384;
}
);
note = M;
unicode = 004D;
},
{
glyphname = N;
layers = (
{
hints = (
{
horizontal = 1;
place = "{-393, 21}";
target = up;
type = BottomGhost;
},
{
horizontal = 1;
place = "{125, 10}";
type = Stem;
},
{
horizontal = 1;
place = "{168, 32}";
type = Stem;
},
{
horizontal = 1;
place = "{233, 10}";
type = Stem;
},
{
place = "{259, 10}";
type = Stem;
},
{
place = "{305, 10}";
type = Stem;
},
{
place = "{359, 10}";
type = Stem;
}
);
layerId = "D54531F3-FE1C-40AB-90CA-1E553B8D5AD9";
paths = (
{
closed = 1;
nodes = (
"315 -393 LINE",
"315 125 LINE",
"345 127 OFFCURVE",
"369 152 OFFCURVE",
"369 184 CURVE SMOOTH",
"369 215 OFFCURVE",
"345 240 OFFCURVE",
"315 243 CURVE",
"315 783 LINE",
"305 783 LINE",
"305 233 LINE",
"310 233 LINE",
"314 233 LINE",
"315 233 LINE SMOOTH",
"339 230 OFFCURVE",
"359 209 OFFCURVE",
"359 184 CURVE SMOOTH",
"359 157 OFFCURVE",
"337 135 OFFCURVE",
"310 135 CURVE SMOOTH",
"305 135 LINE",
"305 -393 LINE"
);
},
{
closed = 1;
nodes = (
"269 233 LINE",
"269 783 LINE",
"259 783 LINE",
"259 233 LINE"
);
},
{
closed = 1;
nodes = (
"269 -393 LINE",
"269 135 LINE",
"259 135 LINE",
"259 -393 LINE"
);
},
{
closed = 1;
nodes = (
"248 175 OFFCURVE",
"255 168 OFFCURVE",
"264 168 CURVE SMOOTH",
"273 168 OFFCURVE",
"280 175 OFFCURVE",
"280 184 CURVE SMOOTH",
"280 193 OFFCURVE",
"273 200 OFFCURVE",
"264 200 CURVE SMOOTH",
"255 200 OFFCURVE",
"248 193 OFFCURVE",
"248 184 CURVE SMOOTH"
);
}
);
width = 384;
}
);
note = N;
unicode = 004E;
},
{
glyphname = O;
layers = (
{
hints = (
{
horizontal = 1;
place = "{-393, 21}";
target = up;
type = BottomGhost;
},
{
horizontal = 1;
place = "{625, 20}";
type = Stem;
},
{
horizontal = 1;
place = "{763, 20}";
type = Stem;
},
{
place = "{0, 20}";
type = Stem;
},
{
place = "{137, 20}";
type = Stem;
},
{
horizontal = 1;
place = "{544, 52}";
type = Stem;
},
{
place = "{190, 52}";
type = Stem;
}
);
layerId = "D54531F3-FE1C-40AB-90CA-1E553B8D5AD9";
paths = (
{
closed = 1;
nodes = (
"0 625 LINE",
"137 625 LINE",
"137 -393 LINE",
"157 -393 LINE",
"157 625 LINE",
"385 625 LINE",
"385 645 LINE",
"157 645 LINE",
"157 783 LINE",
"0 783 LINE"
);
},
{
closed = 1;
nodes = (
"20 763 LINE",
"137 763 LINE",
"137 645 LINE",
"20 645 LINE"
);
},
{
closed = 1;
nodes = (
"190 556 OFFCURVE",
"202 544 OFFCURVE",
"216 544 CURVE SMOOTH",
"230 544 OFFCURVE",
"242 556 OFFCURVE",
"242 571 CURVE SMOOTH",
"242 585 OFFCURVE",
"230 596 OFFCURVE",
"216 596 CURVE SMOOTH",
"202 596 OFFCURVE",
"190 585 OFFCURVE",
"190 571 CURVE SMOOTH"
);
}
);
width = 384;
}
);
note = O;
unicode = 004F;
},
{
glyphname = P;
layers = (
{
hints = (
{
horizontal = 1;
place = "{625, 20}";
type = Stem;
},
{
place = "{-1, 386}";
type = Stem;
}
);
layerId = "D54531F3-FE1C-40AB-90CA-1E553B8D5AD9";
paths = (
{
closed = 1;
nodes = (
"-1 625 LINE",
"385 625 LINE",
"385 645 LINE",
"-1 645 LINE"
);
}
);
width = 384;
}
);
note = P;
unicode = 0050;
},
{
glyphname = Q;
layers = (
{
hints = (
{
horizontal = 1;
place = "{-393, 21}";
target = up;
type = BottomGhost;
},
{
horizontal = 1;
place = "{625, 20}";
type = Stem;
},
{
horizontal = 1;
place = "{763, 20}";
type = Stem;
},
{
place = "{227, 20}";
type = Stem;
},
{
place = "{364, 20}";
type = Stem;
},
{
horizontal = 1;
place = "{544, 52}";
type = Stem;
},
{
place = "{141, 52}";
type = Stem;
}
);
layerId = "D54531F3-FE1C-40AB-90CA-1E553B8D5AD9";
paths = (
{
closed = 1;
nodes = (
"384 783 LINE",
"227 783 LINE",
"227 645 LINE",
"-1 645 LINE",
"-1 625 LINE",
"227 625 LINE",
"227 -393 LINE",
"247 -393 LINE",
"247 625 LINE",
"384 625 LINE"
);
},
{
closed = 1;
nodes = (
"247 763 LINE",
"364 763 LINE",
"364 645 LINE",
"247 645 LINE"
);
},
{
closed = 1;
nodes = (
"193 585 OFFCURVE",
"182 596 OFFCURVE",
"168 596 CURVE SMOOTH",
"153 596 OFFCURVE",
"141 585 OFFCURVE",
"141 571 CURVE SMOOTH",
"141 556 OFFCURVE",
"153 544 OFFCURVE",
"168 544 CURVE SMOOTH",
"182 544 OFFCURVE",
"193 556 OFFCURVE",
"193 571 CURVE SMOOTH"
);
}
);
width = 384;
}
);
note = Q;
unicode = 0051;
},
{
glyphname = R;
layers = (
{
hints = (
{
horizontal = 1;
place = "{-393, 20}";
type = Stem;
},
{
horizontal = 1;
place = "{-255, 20}";
type = Stem;
},
{
place = "{0, 20}";
type = Stem;
},
{
place = "{137, 20}";
type = Stem;
},
{
horizontal = 1;
place = "{-207, 52}";
type = Stem;
},
{
place = "{190, 52}";
type = Stem;
}
);
layerId = "D54531F3-FE1C-40AB-90CA-1E553B8D5AD9";
paths = (
{
closed = 1;
nodes = (
"0 -393 LINE",
"157 -393 LINE",
"157 -255 LINE",
"385 -255 LINE",
"385 -235 LINE",
"157 -235 LINE",
"157 783 LINE",
"137 783 LINE",
"137 -235 LINE",
"0 -235 LINE"
);
},
{
closed = 1;
nodes = (
"20 -255 LINE",
"137 -255 LINE",
"137 -373 LINE",
"20 -373 LINE"
);
},
{
closed = 1;
nodes = (
"242 -167 OFFCURVE",
"231 -155 OFFCURVE",
"217 -155 CURVE SMOOTH",
"202 -155 OFFCURVE",
"190 -167 OFFCURVE",
"190 -181 CURVE SMOOTH",
"190 -195 OFFCURVE",
"202 -207 OFFCURVE",
"217 -207 CURVE SMOOTH",
"231 -207 OFFCURVE",
"242 -195 OFFCURVE",
"242 -181 CURVE SMOOTH"
);
}
);
width = 384;
}
);
note = R;
unicode = 0052;
},
{
glyphname = S;
layers = (
{
hints = (
{
horizontal = 1;
place = "{-255, 20}";
type = Stem;
},
{
place = "{-1, 386}";
type = Stem;
}
);
layerId = "D54531F3-FE1C-40AB-90CA-1E553B8D5AD9";
paths = (
{
closed = 1;
nodes = (
"-1 -255 LINE",
"385 -255 LINE",
"385 -235 LINE",
"-1 -235 LINE"
);
}
);
width = 384;
}
);
note = S;
unicode = 0053;
},
{
glyphname = T;
layers = (
{
hints = (
{
horizontal = 1;
place = "{-393, 20}";
type = Stem;
},
{
horizontal = 1;
place = "{-255, 20}";
type = Stem;
},
{
place = "{227, 20}";
type = Stem;
},
{
place = "{364, 20}";
type = Stem;
},
{
horizontal = 1;
place = "{-207, 52}";
type = Stem;
},
{
place = "{141, 52}";
type = Stem;
}
);
layerId = "D54531F3-FE1C-40AB-90CA-1E553B8D5AD9";
paths = (
{
closed = 1;
nodes = (
"227 783 LINE",
"227 -235 LINE",
"-1 -235 LINE",
"-1 -255 LINE",
"227 -255 LINE",
"227 -393 LINE",
"384 -393 LINE",
"384 -235 LINE",
"247 -235 LINE",
"247 783 LINE"
);
},
{
closed = 1;
nodes = (
"247 -255 LINE",
"364 -255 LINE",
"364 -373 LINE",
"247 -373 LINE"
);
},
{
closed = 1;
nodes = (
"193 -167 OFFCURVE",
"182 -155 OFFCURVE",
"168 -155 CURVE SMOOTH",
"153 -155 OFFCURVE",
"141 -167 OFFCURVE",
"141 -181 CURVE SMOOTH",
"141 -195 OFFCURVE",
"153 -207 OFFCURVE",
"168 -207 CURVE SMOOTH",
"182 -207 OFFCURVE",
"193 -195 OFFCURVE",
"193 -181 CURVE SMOOTH"
);
}
);
width = 384;
}
);
note = T;
unicode = 0054;
},
{
glyphname = U;
layers = (
{
hints = (
{
horizontal = 1;
place = "{-394, 21}";
target = up;
type = BottomGhost;
},
{
horizontal = 1;
place = "{86, 20}";
type = Stem;
},
{
horizontal = 1;
place = "{158, 52}";
type = Stem;
},
{
horizontal = 1;
place = "{264, 20}";
type = Stem;
},
{
place = "{0, 20}";
type = Stem;
},
{
place = "{137, 20}";
type = Stem;
},
{
place = "{78, 52}";
type = Stem;
}
);
layerId = "D54531F3-FE1C-40AB-90CA-1E553B8D5AD9";
paths = (
{
closed = 1;
nodes = (
"0 86 LINE",
"137 86 LINE",
"137 -394 LINE",
"157 -394 LINE",
"157 106 LINE",
"20 106 LINE",
"20 264 LINE",
"157 264 LINE",
"157 784 LINE",
"137 784 LINE",
"137 284 LINE",
"0 284 LINE"
);
},
{
closed = 1;
nodes = (
"130 199 OFFCURVE",
"119 210 OFFCURVE",
"105 210 CURVE SMOOTH",
"90 210 OFFCURVE",
"78 199 OFFCURVE",
"78 185 CURVE SMOOTH",
"78 170 OFFCURVE",
"90 158 OFFCURVE",
"105 158 CURVE SMOOTH",
"119 158 OFFCURVE",
"130 170 OFFCURVE",
"130 185 CURVE SMOOTH"
);
}
);
width = 384;
}
);
note = U;
unicode = 0055;
},
{
glyphname = V;
layers = (
{
hints = (
{
horizontal = 1;
place = "{-394, 21}";
target = up;
type = BottomGhost;
},
{
horizontal = 1;
place = "{86, 20}";
type = Stem;
},
{
horizontal = 1;
place = "{158, 52}";
type = Stem;
},
{
horizontal = 1;
place = "{264, 20}";
type = Stem;
},
{
place = "{227, 20}";
type = Stem;
},
{
place = "{364, 20}";
type = Stem;
},
{
place = "{253, 52}";
type = Stem;
}
);
layerId = "D54531F3-FE1C-40AB-90CA-1E553B8D5AD9";
paths = (
{
closed = 1;
nodes = (
"384 284 LINE",
"247 284 LINE",
"247 784 LINE",
"227 784 LINE",
"227 264 LINE",
"364 264 LINE",
"364 106 LINE",
"227 106 LINE",
"227 -394 LINE",
"247 -394 LINE",
"247 86 LINE",
"384 86 LINE"
);
},
{
closed = 1;
nodes = (
"253 170 OFFCURVE",
"265 158 OFFCURVE",
"279 158 CURVE SMOOTH",
"293 158 OFFCURVE",
"305 170 OFFCURVE",
"305 185 CURVE SMOOTH",
"305 199 OFFCURVE",
"293 210 OFFCURVE",
"279 210 CURVE SMOOTH",
"265 210 OFFCURVE",
"253 199 OFFCURVE",
"253 185 CURVE SMOOTH"
);
}
);
width = 384;
}
);
note = V;
unicode = 0056;
},
{
glyphname = W;
layers = (
{
hints = (
{
horizontal = 1;
place = "{-394, 21}";
target = up;
type = BottomGhost;
},
{
horizontal = 1;
place = "{66, 20}";
type = Stem;
},
{
horizontal = 1;
place = "{158, 52}";
type = Stem;
},
{
horizontal = 1;
place = "{282, 19}";
type = Stem;
},
{
place = "{29, 20}";
type = Stem;
},
{
place = "{137, 20}";
type = Stem;
},
{
place = "{120, 52}";
type = Stem;
}
);
layerId = "D54531F3-FE1C-40AB-90CA-1E553B8D5AD9";
paths = (
{
closed = 1;
nodes = (
"157 -394 LINE",
"157 86 LINE",
"147 86 LINE SMOOTH",
"93 86 OFFCURVE",
"49 130 OFFCURVE",
"49 184 CURVE SMOOTH",
"49 238 OFFCURVE",
"93 282 OFFCURVE",
"147 282 CURVE SMOOTH",
"157 282 LINE",
"157 784 LINE",
"137 784 LINE",
"137 301 LINE",
"75 296 OFFCURVE",
"29 246 OFFCURVE",
"29 184 CURVE SMOOTH",
"29 121 OFFCURVE",
"75 71 OFFCURVE",
"137 66 CURVE",
"137 -394 LINE"
);
},
{
closed = 1;
nodes = (
"172 199 OFFCURVE",
"161 210 OFFCURVE",
"147 210 CURVE SMOOTH",
"132 210 OFFCURVE",
"120 199 OFFCURVE",
"120 185 CURVE SMOOTH",
"120 170 OFFCURVE",
"132 158 OFFCURVE",
"147 158 CURVE SMOOTH",
"161 158 OFFCURVE",
"172 170 OFFCURVE",
"172 185 CURVE SMOOTH"
);
}
);
width = 384;
}
);
note = W;
unicode = 0057;
},
{
glyphname = X;
layers = (
{
hints = (
{
horizontal = 1;
place = "{-394, 21}";
target = up;
type = BottomGhost;
},
{
horizontal = 1;
place = "{66, 20}";
type = Stem;
},
{
horizontal = 1;
place = "{158, 52}";
type = Stem;
},
{
horizontal = 1;
place = "{282, 19}";
type = Stem;
},
{
place = "{227, 20}";
type = Stem;
},
{
place = "{335, 20}";
type = Stem;
},
{
place = "{211, 52}";
type = Stem;
}
);
layerId = "D54531F3-FE1C-40AB-90CA-1E553B8D5AD9";
paths = (
{
closed = 1;
nodes = (
"247 -394 LINE",
"247 66 LINE",
"308 71 OFFCURVE",
"355 121 OFFCURVE",
"355 184 CURVE SMOOTH",
"355 246 OFFCURVE",
"308 296 OFFCURVE",
"247 301 CURVE",
"247 784 LINE",
"227 784 LINE",
"227 282 LINE",
"237 282 LINE SMOOTH",
"291 282 OFFCURVE",
"335 238 OFFCURVE",
"335 184 CURVE SMOOTH",
"335 130 OFFCURVE",
"291 86 OFFCURVE",
"237 86 CURVE SMOOTH",
"227 86 LINE",
"227 -394 LINE"
);
},
{
closed = 1;
nodes = (
"211 170 OFFCURVE",
"223 158 OFFCURVE",
"237 158 CURVE SMOOTH",
"251 158 OFFCURVE",
"263 170 OFFCURVE",
"263 185 CURVE SMOOTH",
"263 199 OFFCURVE",
"251 210 OFFCURVE",
"237 210 CURVE SMOOTH",
"223 210 OFFCURVE",
"211 199 OFFCURVE",
"211 185 CURVE SMOOTH"
);
}
);
width = 384;
}
);
note = X;
unicode = 0058;
},
{
glyphname = Y;
layers = (
{
hints = (
{
horizontal = 1;
place = "{-394, 21}";
target = up;
type = BottomGhost;
},
{
horizontal = 1;
place = "{66, 20}";
type = Stem;
},
{
horizontal = 1;
place = "{158, 52}";
type = Stem;
},
{
horizontal = 1;
place = "{282, 19}";
type = Stem;
},
{
place = "{137, 20}";
type = Stem;
},
{
place = "{245, 20}";
type = Stem;
},
{
place = "{121, 52}";
type = Stem;
}
);
layerId = "D54531F3-FE1C-40AB-90CA-1E553B8D5AD9";
paths = (
{
closed = 1;
nodes = (
"157 -394 LINE",
"157 66 LINE",
"218 71 OFFCURVE",
"265 121 OFFCURVE",
"265 184 CURVE SMOOTH",
"265 246 OFFCURVE",
"218 296 OFFCURVE",
"157 301 CURVE",
"157 784 LINE",
"137 784 LINE",
"137 282 LINE",
"147 282 LINE SMOOTH",
"201 282 OFFCURVE",
"245 238 OFFCURVE",
"245 184 CURVE SMOOTH",
"245 130 OFFCURVE",
"201 86 OFFCURVE",
"147 86 CURVE SMOOTH",
"137 86 LINE",
"137 -394 LINE"
);
},
{
closed = 1;
nodes = (
"121 170 OFFCURVE",
"133 158 OFFCURVE",
"147 158 CURVE SMOOTH",
"161 158 OFFCURVE",
"173 170 OFFCURVE",
"173 185 CURVE SMOOTH",
"173 199 OFFCURVE",
"161 210 OFFCURVE",
"147 210 CURVE SMOOTH",
"133 210 OFFCURVE",
"121 199 OFFCURVE",
"121 185 CURVE SMOOTH"
);
}
);
width = 384;
}
);
note = Y;
unicode = 0059;
},
{
glyphname = Z;
layers = (
{
hints = (
{
horizontal = 1;
place = "{-394, 21}";
target = up;
type = BottomGhost;
},
{
horizontal = 1;
place = "{66, 20}";
type = Stem;
},
{
horizontal = 1;
place = "{158, 52}";
type = Stem;
},
{
horizontal = 1;
place = "{282, 19}";
type = Stem;
},
{
place = "{119, 20}";
type = Stem;
},
{
place = "{227, 20}";
type = Stem;
},
{
place = "{210, 52}";
type = Stem;
}
);
layerId = "D54531F3-FE1C-40AB-90CA-1E553B8D5AD9";
paths = (
{
closed = 1;
nodes = (
"247 -394 LINE",
"247 86 LINE",
"237 86 LINE SMOOTH",
"183 86 OFFCURVE",
"139 130 OFFCURVE",
"139 184 CURVE SMOOTH",
"139 238 OFFCURVE",
"183 282 OFFCURVE",
"237 282 CURVE SMOOTH",
"247 282 LINE",
"247 784 LINE",
"227 784 LINE",
"227 301 LINE",
"165 296 OFFCURVE",
"119 246 OFFCURVE",
"119 184 CURVE SMOOTH",
"119 121 OFFCURVE",
"165 71 OFFCURVE",
"227 66 CURVE",
"227 -394 LINE"
);
},
{
closed = 1;
nodes = (
"262 199 OFFCURVE",
"251 210 OFFCURVE",
"237 210 CURVE SMOOTH",
"222 210 OFFCURVE",
"210 199 OFFCURVE",
"210 185 CURVE SMOOTH",
"210 170 OFFCURVE",
"222 158 OFFCURVE",
"237 158 CURVE SMOOTH",
"251 158 OFFCURVE",
"262 170 OFFCURVE",
"262 185 CURVE SMOOTH"
);
}
);
width = 384;
}
);
note = Z;
unicode = 005A;
},
{
glyphname = comma;
layers = (
{
hints = (
{
horizontal = 1;
place = "{-394, 21}";
target = up;
type = BottomGhost;
},
{
place = "{137, 20}";
type = Stem;
}
);
layerId = "D54531F3-FE1C-40AB-90CA-1E553B8D5AD9";
paths = (
{
closed = 1;
nodes = (
"157 -394 LINE",
"157 784 LINE",
"137 784 LINE",
"137 -394 LINE"
);
}
);
width = 384;
}
);
note = comma;
unicode = 002C;
},
{
glyphname = period;
layers = (
{
hints = (
{
horizontal = 1;
place = "{-394, 21}";
target = up;
type = BottomGhost;
},
{
place = "{227, 20}";
type = Stem;
}
);
layerId = "D54531F3-FE1C-40AB-90CA-1E553B8D5AD9";
paths = (
{
closed = 1;
nodes = (
"247 -394 LINE",
"247 784 LINE",
"227 784 LINE",
"227 -394 LINE"
);
}
);
width = 384;
}
);
note = period;
unicode = 002E;
},
{
glyphname = zero;
layers = (
{
hints = (
{
horizontal = 1;
place = "{625, 20}";
type = Stem;
},
{
place = "{-32, 225}";
type = Stem;
}
);
layerId = "D54531F3-FE1C-40AB-90CA-1E553B8D5AD9";
paths = (
{
closed = 1;
nodes = (
"-32 619 OFFCURVE",
"-18 605 OFFCURVE",
"0 605 CURVE SMOOTH",
"14 605 OFFCURVE",
"26 613 OFFCURVE",
"31 625 CURVE",
"193 625 LINE",
"193 645 LINE",
"32 645 LINE",
"28 659 OFFCURVE",
"15 670 OFFCURVE",
"0 670 CURVE SMOOTH",
"-18 670 OFFCURVE",
"-32 655 OFFCURVE",
"-32 637 CURVE SMOOTH"
);
}
);
width = 192;
}
);
note = zero;
unicode = 0030;
},
{
glyphname = one;
layers = (
{
hints = (
{
horizontal = 1;
place = "{625, 20}";
type = Stem;
},
{
place = "{-1, 194}";
type = Stem;
}
);
layerId = "D54531F3-FE1C-40AB-90CA-1E553B8D5AD9";
paths = (
{
closed = 1;
nodes = (
"-1 625 LINE",
"193 625 LINE",
"193 645 LINE",
"-1 645 LINE"
);
}
);
width = 192;
}
);
note = one;
unicode = 0031;
},
{
glyphname = two;
layers = (
{
hints = (
{
horizontal = 1;
place = "{625, 20}";
type = Stem;
},
{
place = "{-1, 225}";
type = Stem;
}
);
layerId = "D54531F3-FE1C-40AB-90CA-1E553B8D5AD9";
paths = (
{
closed = 1;
nodes = (
"224 651 OFFCURVE",
"210 665 OFFCURVE",
"192 665 CURVE SMOOTH",
"178 665 OFFCURVE",
"166 657 OFFCURVE",
"161 645 CURVE",
"-1 645 LINE",
"-1 625 LINE",
"160 625 LINE",
"163 610 OFFCURVE",
"176 600 OFFCURVE",
"192 600 CURVE SMOOTH",
"210 600 OFFCURVE",
"224 615 OFFCURVE",
"224 633 CURVE SMOOTH"
);
}
);
width = 192;
}
);
note = two;
unicode = 0032;
},
{
glyphname = three;
layers = (
{
hints = (
{
horizontal = 1;
place = "{-255, 20}";
type = Stem;
},
{
place = "{-32, 225}";
type = Stem;
}
);
layerId = "D54531F3-FE1C-40AB-90CA-1E553B8D5AD9";
paths = (
{
closed = 1;
nodes = (
"-32 -261 OFFCURVE",
"-18 -275 OFFCURVE",
"0 -275 CURVE SMOOTH",
"14 -275 OFFCURVE",
"26 -267 OFFCURVE",
"31 -255 CURVE",
"193 -255 LINE",
"193 -235 LINE",
"32 -235 LINE",
"28 -220 OFFCURVE",
"15 -210 OFFCURVE",
"0 -210 CURVE SMOOTH",
"-18 -210 OFFCURVE",
"-32 -225 OFFCURVE",
"-32 -243 CURVE SMOOTH"
);
}
);
width = 192;
}
);
note = three;
unicode = 0033;
},
{
glyphname = four;
layers = (
{
hints = (
{
horizontal = 1;
place = "{-255, 20}";
type = Stem;
},
{
place = "{-1, 225}";
type = Stem;
}
);
layerId = "D54531F3-FE1C-40AB-90CA-1E553B8D5AD9";
paths = (
{
closed = 1;
nodes = (
"224 -225 OFFCURVE",
"210 -210 OFFCURVE",
"192 -210 CURVE SMOOTH",
"177 -210 OFFCURVE",
"163 -221 OFFCURVE",
"160 -235 CURVE",
"-1 -235 LINE",
"-1 -255 LINE",
"161 -255 LINE",
"166 -267 OFFCURVE",
"178 -275 OFFCURVE",
"192 -275 CURVE SMOOTH",
"210 -275 OFFCURVE",
"224 -261 OFFCURVE",
"224 -243 CURVE SMOOTH"
);
}
);
width = 192;
}
);
note = four;
unicode = 0034;
},
{
glyphname = five;
layers = (
{
hints = (
{
horizontal = 1;
place = "{-255, 20}";
type = Stem;
},
{
place = "{-1, 194}";
type = Stem;
}
);
layerId = "D54531F3-FE1C-40AB-90CA-1E553B8D5AD9";
paths = (
{
closed = 1;
nodes = (
"-1 -255 LINE",
"193 -255 LINE",
"193 -235 LINE",
"-1 -235 LINE"
);
}
);
width = 192;
}
);
note = five;
unicode = 0035;
},
{
glyphname = six;
layers = (
{
hints = (
{
horizontal = 1;
place = "{509, 65}";
type = Stem;
},
{
horizontal = 1;
place = "{672, 65}";
type = Stem;
},
{
place = "{9, 65}";
type = Stem;
},
{
place = "{118, 65}";
type = Stem;
},
{
place = "{65, 65}";
type = Stem;
}
);
layerId = "D54531F3-FE1C-40AB-90CA-1E553B8D5AD9";
paths = (
{
closed = 1;
nodes = (
"183 560 OFFCURVE",
"169 574 OFFCURVE",
"151 574 CURVE SMOOTH",
"133 574 OFFCURVE",
"118 560 OFFCURVE",
"118 542 CURVE SMOOTH",
"118 524 OFFCURVE",
"133 509 OFFCURVE",
"151 509 CURVE SMOOTH",
"169 509 OFFCURVE",
"183 524 OFFCURVE",
"183 542 CURVE SMOOTH"
);
},
{
closed = 1;
nodes = (
"74 560 OFFCURVE",
"60 574 OFFCURVE",
"42 574 CURVE SMOOTH",
"24 574 OFFCURVE",
"9 560 OFFCURVE",
"9 542 CURVE SMOOTH",
"9 524 OFFCURVE",
"24 509 OFFCURVE",
"42 509 CURVE SMOOTH",
"60 509 OFFCURVE",
"74 524 OFFCURVE",
"74 542 CURVE SMOOTH"
);
},
{
closed = 1;
nodes = (
"130 723 OFFCURVE",
"116 737 OFFCURVE",
"98 737 CURVE SMOOTH",
"80 737 OFFCURVE",
"65 723 OFFCURVE",
"65 705 CURVE SMOOTH",
"65 687 OFFCURVE",
"80 672 OFFCURVE",
"98 672 CURVE SMOOTH",
"116 672 OFFCURVE",
"130 687 OFFCURVE",
"130 705 CURVE SMOOTH"
);
}
);
width = 192;
}
);
note = six;
unicode = 0036;
},
{
glyphname = seven;
layers = (
{
hints = (
{
horizontal = 1;
place = "{-350, 65}";
type = Stem;
},
{
horizontal = 1;
place = "{-187, 65}";
type = Stem;
},
{
place = "{9, 65}";
type = Stem;
},
{
place = "{118, 65}";
type = Stem;
},
{
place = "{65, 65}";
type = Stem;
}
);
layerId = "D54531F3-FE1C-40AB-90CA-1E553B8D5AD9";
paths = (
{
closed = 1;
nodes = (
"183 -137 OFFCURVE",
"169 -122 OFFCURVE",
"151 -122 CURVE SMOOTH",
"133 -122 OFFCURVE",
"118 -137 OFFCURVE",
"118 -155 CURVE SMOOTH",
"118 -173 OFFCURVE",
"133 -187 OFFCURVE",
"151 -187 CURVE SMOOTH",
"169 -187 OFFCURVE",
"183 -173 OFFCURVE",
"183 -155 CURVE SMOOTH"
);
},
{
closed = 1;
nodes = (
"74 -137 OFFCURVE",
"60 -122 OFFCURVE",
"42 -122 CURVE SMOOTH",
"24 -122 OFFCURVE",
"9 -137 OFFCURVE",
"9 -155 CURVE SMOOTH",
"9 -173 OFFCURVE",
"24 -187 OFFCURVE",
"42 -187 CURVE SMOOTH",
"60 -187 OFFCURVE",
"74 -173 OFFCURVE",
"74 -155 CURVE SMOOTH"
);
},
{
closed = 1;
nodes = (
"130 -300 OFFCURVE",
"116 -285 OFFCURVE",
"98 -285 CURVE SMOOTH",
"80 -285 OFFCURVE",
"65 -300 OFFCURVE",
"65 -318 CURVE SMOOTH",
"65 -336 OFFCURVE",
"80 -350 OFFCURVE",
"98 -350 CURVE SMOOTH",
"116 -350 OFFCURVE",
"130 -336 OFFCURVE",
"130 -318 CURVE SMOOTH"
);
}
);
width = 192;
}
);
note = seven;
unicode = 0037;
},
{
glyphname = eight;
layers = (
{
hints = (
{
horizontal = 1;
place = "{577, 32}";
type = Stem;
},
{
horizontal = 1;
place = "{642, 54}";
type = Stem;
},
{
place = "{69, 7}";
type = Stem;
},
{
place = "{116, 7}";
type = Stem;
},
{
place = "{87, 12}";
type = Stem;
},
{
place = "{147, 32}";
type = Stem;
},
{
horizontal = 1;
place = "{522, 65}";
type = Stem;
},
{
place = "{63, 65}";
type = Stem;
},
{
place = "{15, 32}";
type = Stem;
}
);
layerId = "D54531F3-FE1C-40AB-90CA-1E553B8D5AD9";
paths = (
{
closed = 1;
nodes = (
"76 634 OFFCURVE",
"56 696 OFFCURVE",
"16 696 CURVE SMOOTH",
"-15 696 OFFCURVE",
"-16 674 OFFCURVE",
"-16 669 CURVE SMOOTH",
"-16 664 OFFCURVE",
"-12 642 OFFCURVE",
"11 642 CURVE SMOOTH",
"47 642 OFFCURVE",
"66 615 OFFCURVE",
"69 600 CURVE SMOOTH",
"72 585 OFFCURVE",
"76 596 OFFCURVE",
"76 615 CURVE SMOOTH"
);
},
{
closed = 1;
nodes = (
"116 596 OFFCURVE",
"120 585 OFFCURVE",
"123 600 CURVE SMOOTH",
"126 615 OFFCURVE",
"145 642 OFFCURVE",
"181 642 CURVE SMOOTH",
"204 642 OFFCURVE",
"208 664 OFFCURVE",
"208 669 CURVE SMOOTH",
"208 674 OFFCURVE",
"207 696 OFFCURVE",
"176 696 CURVE SMOOTH",
"136 696 OFFCURVE",
"116 634 OFFCURVE",
"116 615 CURVE SMOOTH"
);
},
{
closed = 1;
nodes = (
"99 636 LINE",
"101 650 OFFCURVE",
"112 679 OFFCURVE",
"121 691 CURVE SMOOTH",
"125 697 OFFCURVE",
"129 708 OFFCURVE",
"129 720 CURVE SMOOTH",
"129 748 OFFCURVE",
"102 758 OFFCURVE",
"93 783 CURVE",
"85 760 OFFCURVE",
"57 748 OFFCURVE",
"57 720 CURVE SMOOTH",
"57 708 OFFCURVE",
"61 697 OFFCURVE",
"65 691 CURVE SMOOTH",
"74 679 OFFCURVE",
"85 650 OFFCURVE",
"87 636 CURVE"
);
},
{
closed = 1;
nodes = (
"179 602 OFFCURVE",
"172 609 OFFCURVE",
"163 609 CURVE SMOOTH",
"154 609 OFFCURVE",
"147 602 OFFCURVE",
"147 593 CURVE SMOOTH",
"147 584 OFFCURVE",
"154 577 OFFCURVE",
"163 577 CURVE SMOOTH",
"172 577 OFFCURVE",
"179 584 OFFCURVE",
"179 593 CURVE SMOOTH"
);
},
{
closed = 1;
nodes = (
"63 537 OFFCURVE",
"77 522 OFFCURVE",
"95 522 CURVE SMOOTH",
"113 522 OFFCURVE",
"128 537 OFFCURVE",
"128 555 CURVE SMOOTH",
"128 573 OFFCURVE",
"113 587 OFFCURVE",
"95 587 CURVE SMOOTH",
"77 587 OFFCURVE",
"63 573 OFFCURVE",
"63 555 CURVE SMOOTH"
);
},
{
closed = 1;
nodes = (
"47 602 OFFCURVE",
"40 609 OFFCURVE",
"31 609 CURVE SMOOTH",
"22 609 OFFCURVE",
"15 602 OFFCURVE",
"15 593 CURVE SMOOTH",
"15 584 OFFCURVE",
"22 577 OFFCURVE",
"31 577 CURVE SMOOTH",
"40 577 OFFCURVE",
"47 584 OFFCURVE",
"47 593 CURVE SMOOTH"
);
}
);
width = 192;
}
);
note = eight;
unicode = 0038;
},
{
glyphname = nine;
layers = (
{
hints = (
{
horizontal = 1;
place = "{-385, 21}";
target = up;
type = BottomGhost;
},
{
horizontal = 1;
place = "{-298, 54}";
type = Stem;
},
{
horizontal = 1;
place = "{-211, 32}";
type = Stem;
},
{
place = "{69, 7}";
type = Stem;
},
{
place = "{116, 7}";
type = Stem;
},
{
place = "{87, 12}";
type = Stem;
},
{
place = "{147, 32}";
type = Stem;
},
{
horizontal = 1;
place = "{-189, 65}";
type = Stem;
},
{
place = "{63, 65}";
type = Stem;
},
{
place = "{15, 32}";
type = Stem;
}
);
layerId = "D54531F3-FE1C-40AB-90CA-1E553B8D5AD9";
paths = (
{
closed = 1;
nodes = (
"76 -198 OFFCURVE",
"72 -187 OFFCURVE",
"69 -202 CURVE SMOOTH",
"66 -217 OFFCURVE",
"47 -244 OFFCURVE",
"11 -244 CURVE SMOOTH",
"-12 -244 OFFCURVE",
"-16 -266 OFFCURVE",
"-16 -271 CURVE SMOOTH",
"-16 -276 OFFCURVE",
"-15 -298 OFFCURVE",
"16 -298 CURVE SMOOTH",
"56 -298 OFFCURVE",
"76 -236 OFFCURVE",
"76 -217 CURVE SMOOTH"
);
},
{
closed = 1;
nodes = (
"116 -236 OFFCURVE",
"136 -298 OFFCURVE",
"176 -298 CURVE SMOOTH",
"207 -298 OFFCURVE",
"208 -276 OFFCURVE",
"208 -271 CURVE SMOOTH",
"208 -266 OFFCURVE",
"204 -244 OFFCURVE",
"181 -244 CURVE SMOOTH",
"145 -244 OFFCURVE",
"126 -217 OFFCURVE",
"123 -202 CURVE SMOOTH",
"120 -187 OFFCURVE",
"116 -198 OFFCURVE",
"116 -217 CURVE SMOOTH"
);
},
{
closed = 1;
nodes = (
"87 -238 LINE",
"85 -252 OFFCURVE",
"74 -281 OFFCURVE",
"65 -293 CURVE SMOOTH",
"61 -299 OFFCURVE",
"57 -310 OFFCURVE",
"57 -322 CURVE SMOOTH",
"57 -350 OFFCURVE",
"85 -362 OFFCURVE",
"93 -385 CURVE",
"102 -360 OFFCURVE",
"129 -350 OFFCURVE",
"129 -322 CURVE SMOOTH",
"129 -310 OFFCURVE",
"125 -299 OFFCURVE",
"121 -293 CURVE SMOOTH",
"112 -281 OFFCURVE",
"101 -252 OFFCURVE",
"99 -238 CURVE"
);
},
{
closed = 1;
nodes = (
"179 -186 OFFCURVE",
"172 -179 OFFCURVE",
"163 -179 CURVE SMOOTH",
"154 -179 OFFCURVE",
"147 -186 OFFCURVE",
"147 -195 CURVE SMOOTH",
"147 -204 OFFCURVE",
"154 -211 OFFCURVE",
"163 -211 CURVE SMOOTH",
"172 -211 OFFCURVE",
"179 -204 OFFCURVE",
"179 -195 CURVE SMOOTH"
);
},
{
closed = 1;
nodes = (
"63 -175 OFFCURVE",
"77 -189 OFFCURVE",
"95 -189 CURVE SMOOTH",
"113 -189 OFFCURVE",
"128 -175 OFFCURVE",
"128 -157 CURVE SMOOTH",
"128 -139 OFFCURVE",
"113 -124 OFFCURVE",
"95 -124 CURVE SMOOTH",
"77 -124 OFFCURVE",
"63 -139 OFFCURVE",
"63 -157 CURVE SMOOTH"
);
},
{
closed = 1;
nodes = (
"47 -186 OFFCURVE",
"40 -179 OFFCURVE",
"31 -179 CURVE SMOOTH",
"22 -179 OFFCURVE",
"15 -186 OFFCURVE",
"15 -195 CURVE SMOOTH",
"15 -204 OFFCURVE",
"22 -211 OFFCURVE",
"31 -211 CURVE SMOOTH",
"40 -211 OFFCURVE",
"47 -204 OFFCURVE",
"47 -195 CURVE SMOOTH"
);
}
);
width = 192;
}
);
note = nine;
unicode = 0039;
},
{
glyphname = a;
layers = (
{
hints = (
{
horizontal = 1;
place = "{-393, 21}";
target = up;
type = BottomGhost;
},
{
horizontal = 1;
place = "{228, 10}";
type = Stem;
},
{
horizontal = 1;
place = "{315, 7}";
type = Stem;
},
{
horizontal = 1;
place = "{550, 10}";
type = Stem;
},
{
horizontal = 1;
place = "{596, 10}";
type = Stem;
},
{
horizontal = 1;
place = "{693, 14}";
type = Stem;
},
{
place = "{2, 25}";
type = Stem;
},
{
place = "{69, 10}";
type = Stem;
},
{
place = "{115, 10}";
type = Stem;
},
{
place = "{191, 8}";
type = Stem;
},
{
place = "{303, 20}";
type = Stem;
},
{
place = "{386, 14}";
type = Stem;
},
{
place = "{483, 14}";
type = Stem;
},
{
horizontal = 1;
place = "{634, 24}";
type = Stem;
},
{
place = "{132, 12}";
type = Stem;
},
{
place = "{353, 12}";
type = Stem;
},
{
horizontal = 1;
place = "{524, 11}";
type = Stem;
},
{
place = "{300, 20}";
type = Stem;
}
);
layerId = "D54531F3-FE1C-40AB-90CA-1E553B8D5AD9";
paths = (
{
closed = 1;
nodes = (
"497 660 OFFCURVE",
"484 707 OFFCURVE",
"429 707 CURVE SMOOTH",
"412 707 OFFCURVE",
"398 701 OFFCURVE",
"388 691 CURVE SMOOTH",
"381 684 OFFCURVE",
"381 680 OFFCURVE",
"383 678 CURVE",
"390 665 OFFCURVE",
"386 641 OFFCURVE",
"380 626 CURVE SMOOTH",
"367 597 OFFCURVE",
"347 573 OFFCURVE",
"320 556 CURVE",
"314 604 OFFCURVE",
"292 658 OFFCURVE",
"238 658 CURVE SMOOTH",
"157 658 OFFCURVE",
"132 562 OFFCURVE",
"132 495 CURVE SMOOTH",
"132 473 OFFCURVE",
"135 452 OFFCURVE",
"141 431 CURVE",
"67 405 OFFCURVE",
"2 364 OFFCURVE",
"2 293 CURVE SMOOTH",
"2 256 OFFCURVE",
"26 228 OFFCURVE",
"69 228 CURVE",
"69 -393 LINE",
"79 -393 LINE",
"79 228 LINE",
"90 229 OFFCURVE",
"102 232 OFFCURVE",
"115 237 CURVE",
"115 -393 LINE",
"125 -393 LINE",
"125 241 LINE",
"138 246 OFFCURVE",
"151 253 OFFCURVE",
"166 263 CURVE SMOOTH",
"187 276 OFFCURVE",
"209 296 OFFCURVE",
"230 318 CURVE",
"238 316 OFFCURVE",
"247 315 OFFCURVE",
"256 315 CURVE SMOOTH",
"332 316 OFFCURVE",
"365 355 OFFCURVE",
"365 388 CURVE SMOOTH",
"365 415 OFFCURVE",
"346 431 OFFCURVE",
"322 431 CURVE SMOOTH",
"314 431 OFFCURVE",
"315 427 OFFCURVE",
"322 427 CURVE SMOOTH",
"340 427 OFFCURVE",
"353 408 OFFCURVE",
"353 388 CURVE SMOOTH",
"353 359 OFFCURVE",
"322 323 OFFCURVE",
"254 322 CURVE SMOOTH",
"247 322 OFFCURVE",
"241 323 OFFCURVE",
"235 324 CURVE",
"272 365 OFFCURVE",
"303 417 OFFCURVE",
"316 471 CURVE",
"376 491 OFFCURVE",
"432 515 OFFCURVE",
"465 550 CURVE",
"769 550 LINE",
"769 560 LINE",
"473 560 LINE",
"482 571 OFFCURVE",
"488 583 OFFCURVE",
"492 596 CURVE",
"769 596 LINE",
"769 606 LINE",
"495 606 LINE",
"496 612 OFFCURVE",
"497 619 OFFCURVE",
"497 627 CURVE SMOOTH"
);
},
{
closed = 1;
nodes = (
"146 453 OFFCURVE",
"144 474 OFFCURVE",
"144 494 CURVE SMOOTH",
"144 547 OFFCURVE",
"161 634 OFFCURVE",
"227 634 CURVE SMOOTH",
"274 634 OFFCURVE",
"294 592 OFFCURVE",
"300 546 CURVE",
"283 539 OFFCURVE",
"264 535 OFFCURVE",
"243 535 CURVE SMOOTH",
"218 535 OFFCURVE",
"199 545 OFFCURVE",
"199 562 CURVE SMOOTH",
"199 566 OFFCURVE",
"201 570 OFFCURVE",
"204 575 CURVE",
"207 578 OFFCURVE",
"205 580 OFFCURVE",
"199 578 CURVE",
"194 575 OFFCURVE",
"191 570 OFFCURVE",
"191 564 CURVE SMOOTH",
"191 538 OFFCURVE",
"214 524 OFFCURVE",
"248 524 CURVE SMOOTH",
"266 524 OFFCURVE",
"285 527 OFFCURVE",
"302 532 CURVE",
"302 524 OFFCURVE",
"303 515 OFFCURVE",
"303 507 CURVE SMOOTH",
"303 496 OFFCURVE",
"302 485 OFFCURVE",
"300 474 CURVE",
"263 464 OFFCURVE",
"205 452 OFFCURVE",
"150 434 CURVE"
);
},
{
closed = 1;
nodes = (
"202 301 OFFCURVE",
"182 283 OFFCURVE",
"161 270 CURVE SMOOTH",
"70 211 OFFCURVE",
"27 244 OFFCURVE",
"27 289 CURVE SMOOTH",
"27 350 OFFCURVE",
"81 389 OFFCURVE",
"145 416 CURVE",
"159 372 OFFCURVE",
"185 336 OFFCURVE",
"221 321 CURVE"
);
},
{
closed = 1;
nodes = (
"466 693 OFFCURVE",
"483 652 OFFCURVE",
"483 623 CURVE SMOOTH",
"483 545 OFFCURVE",
"407 507 OFFCURVE",
"318 479 CURVE",
"321 494 OFFCURVE",
"323 510 OFFCURVE",
"323 525 CURVE SMOOTH",
"323 530 OFFCURVE",
"323 535 OFFCURVE",
"322 541 CURVE",
"354 557 OFFCURVE",
"380 583 OFFCURVE",
"394 620 CURVE SMOOTH",
"400 634 OFFCURVE",
"406 677 OFFCURVE",
"387 681 CURVE",
"396 689 OFFCURVE",
"406 693 OFFCURVE",
"417 693 CURVE SMOOTH"
);
},
{
closed = 1;
nodes = (
"203 439 OFFCURVE",
"258 453 OFFCURVE",
"298 465 CURVE",
"288 414 OFFCURVE",
"260 365 OFFCURVE",
"225 326 CURVE",
"188 338 OFFCURVE",
"165 375 OFFCURVE",
"153 419 CURVE"
);
}
);
width = 768;
}
);
note = a;
unicode = 0061;
},
{
glyphname = b;
layers = (
{
hints = (
{
horizontal = 1;
place = "{-393, 21}";
target = up;
type = BottomGhost;
},
{
horizontal = 1;
place = "{221, 16}";
type = Stem;
},
{
horizontal = 1;
place = "{310, 9}";
type = Stem;
},
{
horizontal = 1;
place = "{550, 10}";
type = Stem;
},
{
horizontal = 1;
place = "{596, 10}";
type = Stem;
},
{
horizontal = 1;
place = "{693, 14}";
type = Stem;
},
{
place = "{273, 15}";
type = Stem;
},
{
place = "{408, 12}";
type = Stem;
},
{
place = "{457, 11}";
type = Stem;
},
{
place = "{571, 8}";
type = Stem;
},
{
place = "{643, 10}";
type = Stem;
},
{
place = "{689, 10}";
type = Stem;
},
{
place = "{759, 10}";
type = Stem;
},
{
horizontal = 1;
place = "{634, 22}";
type = Stem;
},
{
place = "{364, 20}";
type = Stem;
},
{
place = "{625, 20}";
type = Stem;
},
{
horizontal = 1;
place = "{524, 11}";
type = Stem;
}
);
layerId = "D54531F3-FE1C-40AB-90CA-1E553B8D5AD9";
paths = (
{
closed = 1;
nodes = (
"653 -393 LINE",
"653 226 LINE",
"666 223 OFFCURVE",
"678 221 OFFCURVE",
"689 221 CURVE",
"689 -393 LINE",
"699 -393 LINE",
"699 222 LINE",
"741 228 OFFCURVE",
"769 258 OFFCURVE",
"769 293 CURVE SMOOTH",
"769 364 OFFCURVE",
"704 404 OFFCURVE",
"632 430 CURVE",
"663 532 OFFCURVE",
"641 662 OFFCURVE",
"544 656 CURVE SMOOTH",
"492 653 OFFCURVE",
"468 598 OFFCURVE",
"460 551 CURVE",
"429 567 OFFCURVE",
"407 593 OFFCURVE",
"393 626 CURVE SMOOTH",
"386 641 OFFCURVE",
"380 667 OFFCURVE",
"388 681 CURVE",
"387 683 OFFCURVE",
"387 685 OFFCURVE",
"382 691 CURVE SMOOTH",
"373 702 OFFCURVE",
"358 707 OFFCURVE",
"341 707 CURVE SMOOTH",
"286 707 OFFCURVE",
"273 660 OFFCURVE",
"273 627 CURVE SMOOTH",
"273 619 OFFCURVE",
"274 612 OFFCURVE",
"275 606 CURVE",
"0 606 LINE",
"0 596 LINE",
"277 596 LINE",
"282 582 OFFCURVE",
"288 571 OFFCURVE",
"297 560 CURVE",
"0 560 LINE",
"0 550 LINE",
"305 550 LINE",
"339 513 OFFCURVE",
"398 489 OFFCURVE",
"461 469 CURVE",
"470 415 OFFCURVE",
"494 361 OFFCURVE",
"525 319 CURVE",
"480 306 OFFCURVE",
"420 324 OFFCURVE",
"420 380 CURVE SMOOTH",
"420 400 OFFCURVE",
"433 419 OFFCURVE",
"451 419 CURVE SMOOTH",
"458 419 OFFCURVE",
"459 423 OFFCURVE",
"451 423 CURVE SMOOTH",
"427 423 OFFCURVE",
"408 407 OFFCURVE",
"408 380 CURVE SMOOTH",
"408 319 OFFCURVE",
"478 301 OFFCURVE",
"529 313 CURVE",
"548 288 OFFCURVE",
"569 268 OFFCURVE",
"591 254 CURVE SMOOTH",
"609 242 OFFCURVE",
"626 233 OFFCURVE",
"643 228 CURVE",
"643 -393 LINE"
);
},
{
closed = 1;
nodes = (
"698 393 OFFCURVE",
"759 354 OFFCURVE",
"759 288 CURVE SMOOTH",
"759 241 OFFCURVE",
"701 211 OFFCURVE",
"610 270 CURVE SMOOTH",
"589 283 OFFCURVE",
"568 300 OFFCURVE",
"550 320 CURVE",
"585 337 OFFCURVE",
"611 372 OFFCURVE",
"628 419 CURVE"
);
},
{
closed = 1;
nodes = (
"469 486 OFFCURVE",
"468 499 OFFCURVE",
"468 511 CURVE SMOOTH",
"468 518 OFFCURVE",
"468 525 OFFCURVE",
"469 532 CURVE",
"486 527 OFFCURVE",
"504 524 OFFCURVE",
"522 524 CURVE SMOOTH",
"556 524 OFFCURVE",
"579 538 OFFCURVE",
"579 564 CURVE SMOOTH",
"579 570 OFFCURVE",
"576 575 OFFCURVE",
"571 578 CURVE",
"565 580 OFFCURVE",
"563 578 OFFCURVE",
"566 575 CURVE",
"569 570 OFFCURVE",
"571 566 OFFCURVE",
"571 562 CURVE SMOOTH",
"571 545 OFFCURVE",
"552 535 OFFCURVE",
"527 535 CURVE SMOOTH",
"506 535 OFFCURVE",
"487 539 OFFCURVE",
"470 546 CURVE",
"476 591 OFFCURVE",
"495 634 OFFCURVE",
"544 634 CURVE SMOOTH",
"566 634 OFFCURVE",
"587 620 OFFCURVE",
"602 599 CURVE SMOOTH",
"626 564 OFFCURVE",
"632 495 OFFCURVE",
"618 435 CURVE",
"564 453 OFFCURVE",
"508 464 OFFCURVE",
"471 474 CURVE"
);
},
{
closed = 1;
nodes = (
"366 637 OFFCURVE",
"368 630 OFFCURVE",
"371 623 CURVE SMOOTH",
"386 582 OFFCURVE",
"419 552 OFFCURVE",
"458 536 CURVE",
"457 529 OFFCURVE",
"457 522 OFFCURVE",
"457 516 CURVE SMOOTH",
"457 503 OFFCURVE",
"457 490 OFFCURVE",
"459 477 CURVE",
"397 496 OFFCURVE",
"341 519 OFFCURVE",
"311 557 CURVE SMOOTH",
"296 575 OFFCURVE",
"288 597 OFFCURVE",
"288 623 CURVE SMOOTH",
"288 652 OFFCURVE",
"304 693 OFFCURVE",
"353 693 CURVE SMOOTH",
"363 693 OFFCURVE",
"374 690 OFFCURVE",
"383 681 CURVE",
"372 681 OFFCURVE",
"359 667 OFFCURVE",
"364 645 CURVE SMOOTH"
);
},
{
closed = 1;
nodes = (
"603 384 OFFCURVE",
"579 346 OFFCURVE",
"544 327 CURVE",
"510 365 OFFCURVE",
"483 414 OFFCURVE",
"472 465 CURVE",
"511 453 OFFCURVE",
"565 442 OFFCURVE",
"615 424 CURVE"
);
}
);
width = 768;
}
);
note = b;
unicode = 0062;
},
{
glyphname = c;
layers = (
{
hints = (
{
horizontal = 1;
place = "{-309, 14}";
type = Stem;
},
{
horizontal = 1;
place = "{-208, 10}";
type = Stem;
},
{
horizontal = 1;
place = "{-162, 10}";
type = Stem;
},
{
horizontal = 1;
place = "{-21, 21}";
target = up;
type = BottomGhost;
},
{
horizontal = 1;
place = "{76, 7}";
type = Stem;
},
{
horizontal = 1;
place = "{160, 10}";
type = Stem;
},
{
place = "{2, 25}";
type = Stem;
},
{
place = "{69, 10}";
type = Stem;
},
{
place = "{115, 10}";
type = Stem;
},
{
place = "{191, 8}";
type = Stem;
},
{
place = "{303, 20}";
type = Stem;
},
{
place = "{386, 14}";
type = Stem;
},
{
place = "{483, 14}";
type = Stem;
},
{
place = "{353, 12}";
type = Stem;
},
{
horizontal = 1;
place = "{-260, 24}";
type = Stem;
},
{
place = "{132, 12}";
type = Stem;
},
{
place = "{300, 20}";
type = Stem;
},
{
horizontal = 1;
place = "{-137, 11}";
type = Stem;
}
);
layerId = "D54531F3-FE1C-40AB-90CA-1E553B8D5AD9";
paths = (
{
closed = 1;
nodes = (
"497 -221 OFFCURVE",
"496 -214 OFFCURVE",
"495 -208 CURVE",
"769 -208 LINE",
"769 -198 LINE",
"492 -198 LINE",
"488 -185 OFFCURVE",
"482 -173 OFFCURVE",
"473 -162 CURVE",
"769 -162 LINE",
"769 -152 LINE",
"465 -152 LINE",
"432 -117 OFFCURVE",
"376 -93 OFFCURVE",
"316 -73 CURVE",
"303 -19 OFFCURVE",
"272 33 OFFCURVE",
"235 74 CURVE",
"241 75 OFFCURVE",
"247 76 OFFCURVE",
"254 76 CURVE SMOOTH",
"322 75 OFFCURVE",
"353 39 OFFCURVE",
"353 10 CURVE SMOOTH",
"353 -10 OFFCURVE",
"340 -29 OFFCURVE",
"322 -29 CURVE SMOOTH",
"315 -29 OFFCURVE",
"314 -33 OFFCURVE",
"322 -33 CURVE SMOOTH",
"346 -33 OFFCURVE",
"365 -17 OFFCURVE",
"365 10 CURVE SMOOTH",
"365 43 OFFCURVE",
"332 82 OFFCURVE",
"256 83 CURVE SMOOTH",
"247 83 OFFCURVE",
"238 82 OFFCURVE",
"230 80 CURVE",
"209 102 OFFCURVE",
"187 122 OFFCURVE",
"166 135 CURVE SMOOTH",
"151 145 OFFCURVE",
"138 152 OFFCURVE",
"125 157 CURVE",
"125 783 LINE",
"115 783 LINE",
"115 161 LINE",
"102 166 OFFCURVE",
"90 169 OFFCURVE",
"79 170 CURVE",
"79 783 LINE",
"69 783 LINE",
"69 170 LINE",
"26 170 OFFCURVE",
"2 142 OFFCURVE",
"2 105 CURVE SMOOTH",
"2 34 OFFCURVE",
"67 -7 OFFCURVE",
"141 -33 CURVE",
"135 -54 OFFCURVE",
"132 -75 OFFCURVE",
"132 -97 CURVE SMOOTH",
"132 -164 OFFCURVE",
"157 -260 OFFCURVE",
"238 -260 CURVE SMOOTH",
"292 -260 OFFCURVE",
"314 -206 OFFCURVE",
"320 -158 CURVE",
"347 -175 OFFCURVE",
"367 -199 OFFCURVE",
"380 -228 CURVE SMOOTH",
"386 -243 OFFCURVE",
"390 -267 OFFCURVE",
"383 -280 CURVE",
"381 -282 OFFCURVE",
"381 -286 OFFCURVE",
"388 -293 CURVE SMOOTH",
"398 -303 OFFCURVE",
"412 -309 OFFCURVE",
"429 -309 CURVE SMOOTH",
"484 -309 OFFCURVE",
"497 -262 OFFCURVE",
"497 -229 CURVE SMOOTH"
);
},
{
closed = 1;
nodes = (
"205 -54 OFFCURVE",
"263 -66 OFFCURVE",
"300 -76 CURVE",
"302 -87 OFFCURVE",
"303 -98 OFFCURVE",
"303 -109 CURVE SMOOTH",
"303 -117 OFFCURVE",
"302 -126 OFFCURVE",
"302 -134 CURVE",
"285 -129 OFFCURVE",
"266 -126 OFFCURVE",
"248 -126 CURVE SMOOTH",
"214 -126 OFFCURVE",
"191 -140 OFFCURVE",
"191 -166 CURVE SMOOTH",
"191 -172 OFFCURVE",
"194 -177 OFFCURVE",
"199 -180 CURVE",
"205 -182 OFFCURVE",
"207 -180 OFFCURVE",
"204 -177 CURVE",
"201 -172 OFFCURVE",
"199 -168 OFFCURVE",
"199 -164 CURVE SMOOTH",
"199 -147 OFFCURVE",
"218 -137 OFFCURVE",
"243 -137 CURVE SMOOTH",
"264 -137 OFFCURVE",
"283 -141 OFFCURVE",
"300 -148 CURVE",
"294 -194 OFFCURVE",
"274 -236 OFFCURVE",
"227 -236 CURVE SMOOTH",
"161 -236 OFFCURVE",
"144 -149 OFFCURVE",
"144 -96 CURVE SMOOTH",
"144 -76 OFFCURVE",
"146 -55 OFFCURVE",
"150 -36 CURVE"
);
},
{
closed = 1;
nodes = (
"185 62 OFFCURVE",
"159 26 OFFCURVE",
"145 -18 CURVE",
"81 9 OFFCURVE",
"27 48 OFFCURVE",
"27 109 CURVE SMOOTH",
"27 154 OFFCURVE",
"70 187 OFFCURVE",
"161 128 CURVE SMOOTH",
"182 115 OFFCURVE",
"202 97 OFFCURVE",
"221 77 CURVE"
);
},
{
closed = 1;
nodes = (
"406 -295 OFFCURVE",
"396 -291 OFFCURVE",
"387 -283 CURVE",
"406 -279 OFFCURVE",
"400 -236 OFFCURVE",
"394 -222 CURVE SMOOTH",
"380 -185 OFFCURVE",
"354 -159 OFFCURVE",
"322 -143 CURVE",
"323 -137 OFFCURVE",
"323 -132 OFFCURVE",
"323 -127 CURVE SMOOTH",
"323 -112 OFFCURVE",
"321 -96 OFFCURVE",
"318 -81 CURVE",
"407 -109 OFFCURVE",
"483 -147 OFFCURVE",
"483 -225 CURVE SMOOTH",
"483 -254 OFFCURVE",
"466 -295 OFFCURVE",
"417 -295 CURVE SMOOTH"
);
},
{
closed = 1;
nodes = (
"165 23 OFFCURVE",
"188 60 OFFCURVE",
"225 72 CURVE",
"260 33 OFFCURVE",
"288 -16 OFFCURVE",
"298 -67 CURVE",
"258 -55 OFFCURVE",
"203 -41 OFFCURVE",
"153 -21 CURVE"
);
}
);
width = 768;
}
);
note = c;
unicode = 0063;
},
{
glyphname = d;
layers = (
{
hints = (
{
horizontal = 1;
place = "{-317, 14}";
type = Stem;
},
{
horizontal = 1;
place = "{-208, 10}";
type = Stem;
},
{
horizontal = 1;
place = "{-162, 10}";
type = Stem;
},
{
horizontal = 1;
place = "{-25, 21}";
target = up;
type = BottomGhost;
},
{
horizontal = 1;
place = "{79, 9}";
type = Stem;
},
{
horizontal = 1;
place = "{161, 16}";
type = Stem;
},
{
place = "{273, 15}";
type = Stem;
},
{
place = "{408, 12}";
type = Stem;
},
{
place = "{457, 11}";
type = Stem;
},
{
place = "{571, 8}";
type = Stem;
},
{
place = "{644, 10}";
type = Stem;
},
{
place = "{690, 10}";
type = Stem;
},
{
place = "{759, 10}";
type = Stem;
},
{
horizontal = 1;
place = "{-258, 22}";
type = Stem;
},
{
place = "{364, 20}";
type = Stem;
},
{
place = "{460, 10}";
type = Stem;
},
{
place = "{625, 20}";
type = Stem;
},
{
horizontal = 1;
place = "{-137, 11}";
type = Stem;
},
{
horizontal = 1;
place = "{-26, 21}";
target = up;
type = BottomGhost;
}
);
layerId = "D54531F3-FE1C-40AB-90CA-1E553B8D5AD9";
paths = (
{
closed = 1;
nodes = (
"644 783 LINE",
"644 170 LINE",
"627 165 OFFCURVE",
"609 156 OFFCURVE",
"591 144 CURVE SMOOTH",
"569 130 OFFCURVE",
"548 110 OFFCURVE",
"529 85 CURVE",
"478 97 OFFCURVE",
"408 79 OFFCURVE",
"408 18 CURVE SMOOTH",
"408 -9 OFFCURVE",
"427 -25 OFFCURVE",
"451 -25 CURVE SMOOTH",
"459 -25 OFFCURVE",
"458 -21 OFFCURVE",
"451 -21 CURVE SMOOTH",
"433 -21 OFFCURVE",
"420 -2 OFFCURVE",
"420 18 CURVE SMOOTH",
"420 74 OFFCURVE",
"480 92 OFFCURVE",
"525 79 CURVE",
"494 37 OFFCURVE",
"470 -17 OFFCURVE",
"461 -71 CURVE",
"398 -91 OFFCURVE",
"339 -115 OFFCURVE",
"305 -152 CURVE",
"-1 -152 LINE",
"-1 -162 LINE",
"297 -162 LINE",
"288 -173 OFFCURVE",
"282 -184 OFFCURVE",
"277 -198 CURVE",
"-1 -198 LINE",
"-1 -208 LINE",
"275 -208 LINE",
"274 -214 OFFCURVE",
"273 -221 OFFCURVE",
"273 -229 CURVE SMOOTH",
"273 -262 OFFCURVE",
"286 -317 OFFCURVE",
"341 -317 CURVE SMOOTH",
"358 -317 OFFCURVE",
"373 -312 OFFCURVE",
"382 -301 CURVE SMOOTH",
"387 -295 OFFCURVE",
"387 -293 OFFCURVE",
"388 -291 CURVE",
"380 -277 OFFCURVE",
"386 -243 OFFCURVE",
"393 -228 CURVE SMOOTH",
"407 -195 OFFCURVE",
"429 -169 OFFCURVE",
"460 -153 CURVE",
"468 -200 OFFCURVE",
"492 -255 OFFCURVE",
"544 -258 CURVE SMOOTH",
"641 -264 OFFCURVE",
"663 -134 OFFCURVE",
"632 -32 CURVE",
"704 -6 OFFCURVE",
"769 34 OFFCURVE",
"769 105 CURVE SMOOTH",
"769 140 OFFCURVE",
"742 170 OFFCURVE",
"700 176 CURVE",
"700 783 LINE",
"690 783 LINE",
"690 177 LINE",
"679 177 OFFCURVE",
"667 175 OFFCURVE",
"654 172 CURVE",
"654 783 LINE"
);
},
{
closed = 1;
nodes = (
"611 26 OFFCURVE",
"585 61 OFFCURVE",
"550 78 CURVE",
"568 98 OFFCURVE",
"589 115 OFFCURVE",
"610 128 CURVE SMOOTH",
"701 187 OFFCURVE",
"759 157 OFFCURVE",
"759 110 CURVE SMOOTH",
"759 44 OFFCURVE",
"698 5 OFFCURVE",
"628 -21 CURVE"
);
},
{
closed = 1;
nodes = (
"508 -66 OFFCURVE",
"564 -55 OFFCURVE",
"618 -37 CURVE",
"632 -97 OFFCURVE",
"626 -166 OFFCURVE",
"602 -201 CURVE SMOOTH",
"587 -222 OFFCURVE",
"566 -236 OFFCURVE",
"544 -236 CURVE SMOOTH",
"495 -236 OFFCURVE",
"476 -193 OFFCURVE",
"470 -148 CURVE",
"487 -141 OFFCURVE",
"506 -137 OFFCURVE",
"527 -137 CURVE SMOOTH",
"552 -137 OFFCURVE",
"571 -147 OFFCURVE",
"571 -164 CURVE SMOOTH",
"571 -168 OFFCURVE",
"569 -172 OFFCURVE",
"566 -177 CURVE",
"563 -180 OFFCURVE",
"565 -182 OFFCURVE",
"571 -180 CURVE",
"576 -177 OFFCURVE",
"579 -172 OFFCURVE",
"579 -166 CURVE SMOOTH",
"579 -140 OFFCURVE",
"556 -126 OFFCURVE",
"522 -126 CURVE SMOOTH",
"504 -126 OFFCURVE",
"486 -129 OFFCURVE",
"469 -134 CURVE",
"468 -127 OFFCURVE",
"468 -120 OFFCURVE",
"468 -113 CURVE SMOOTH",
"468 -101 OFFCURVE",
"469 -88 OFFCURVE",
"471 -76 CURVE"
);
},
{
closed = 1;
nodes = (
"359 -269 OFFCURVE",
"372 -291 OFFCURVE",
"383 -291 CURVE",
"374 -300 OFFCURVE",
"363 -303 OFFCURVE",
"353 -303 CURVE SMOOTH",
"304 -303 OFFCURVE",
"288 -254 OFFCURVE",
"288 -225 CURVE SMOOTH",
"288 -199 OFFCURVE",
"296 -177 OFFCURVE",
"311 -159 CURVE SMOOTH",
"341 -121 OFFCURVE",
"397 -98 OFFCURVE",
"459 -79 CURVE",
"457 -92 OFFCURVE",
"457 -105 OFFCURVE",
"457 -118 CURVE SMOOTH",
"457 -124 OFFCURVE",
"457 -131 OFFCURVE",
"458 -138 CURVE",
"419 -154 OFFCURVE",
"386 -184 OFFCURVE",
"371 -225 CURVE SMOOTH",
"368 -232 OFFCURVE",
"366 -239 OFFCURVE",
"364 -247 CURVE SMOOTH"
);
},
{
closed = 1;
nodes = (
"565 -44 OFFCURVE",
"511 -55 OFFCURVE",
"472 -67 CURVE",
"483 -16 OFFCURVE",
"510 33 OFFCURVE",
"544 71 CURVE",
"579 52 OFFCURVE",
"603 14 OFFCURVE",
"615 -26 CURVE"
);
}
);
width = 768;
}
);
note = d;
unicode = 0064;
},
{
glyphname = e;
layers = (
{
hints = (
{
horizontal = 1;
place = "{467, 8}";
type = Stem;
},
{
horizontal = 1;
place = "{522, 18}";
type = Stem;
},
{
horizontal = 1;
place = "{577, 78}";
type = Stem;
},
{
horizontal = 1;
place = "{698, 7}";
type = Stem;
},
{
place = "{-10, 13}";
type = Stem;
},
{
place = "{356, 16}";
type = Stem;
},
{
place = "{751, 16}";
type = Stem;
},
{
horizontal = 1;
place = "{680, 8}";
type = Stem;
}
);
layerId = "D54531F3-FE1C-40AB-90CA-1E553B8D5AD9";
paths = (
{
closed = 1;
nodes = (
"-3 583 LINE SMOOTH",
"-2 588 OFFCURVE",
"0 584 OFFCURVE",
"0 579 CURVE SMOOTH",
"0 573 LINE",
"17 544 OFFCURVE",
"57 522 OFFCURVE",
"110 522 CURVE SMOOTH",
"139 522 OFFCURVE",
"167 527 OFFCURVE",
"195 535 CURVE",
"203 526 OFFCURVE",
"212 517 OFFCURVE",
"222 509 CURVE",
"231 512 LINE",
"221 520 OFFCURVE",
"212 528 OFFCURVE",
"203 537 CURVE",
"244 550 OFFCURVE",
"286 570 OFFCURVE",
"327 592 CURVE",
"335 581 OFFCURVE",
"342 570 OFFCURVE",
"347 558 CURVE",
"359 564 LINE",
"353 575 OFFCURVE",
"345 586 OFFCURVE",
"336 597 CURVE",
"410 636 OFFCURVE",
"486 679 OFFCURVE",
"570 693 CURVE SMOOTH",
"741 721 OFFCURVE",
"771 629 OFFCURVE",
"741 590 CURVE",
"734 578 OFFCURVE",
"720 569 OFFCURVE",
"701 571 CURVE",
"703 570 OFFCURVE",
"704 569 OFFCURVE",
"706 569 CURVE SMOOTH",
"801 556 OFFCURVE",
"808 738 OFFCURVE",
"570 700 CURVE SMOOTH",
"482 686 OFFCURVE",
"406 642 OFFCURVE",
"330 604 CURVE",
"281 653 OFFCURVE",
"197 688 OFFCURVE",
"122 688 CURVE SMOOTH",
"27 687 OFFCURVE",
"-10 647 OFFCURVE",
"-10 608 CURVE SMOOTH",
"-10 598 OFFCURVE",
"-8 589 OFFCURVE",
"-3 580 CURVE"
);
},
{
closed = 1;
nodes = (
"171 573 OFFCURVE",
"157 601 OFFCURVE",
"157 626 CURVE SMOOTH",
"157 629 OFFCURVE",
"153 624 OFFCURVE",
"153 620 CURVE SMOOTH",
"153 597 OFFCURVE",
"165 571 OFFCURVE",
"185 547 CURVE",
"165 542 OFFCURVE",
"144 540 OFFCURVE",
"124 540 CURVE SMOOTH",
"-8 540 OFFCURVE",
"-63 678 OFFCURVE",
"122 680 CURVE SMOOTH",
"199 680 OFFCURVE",
"277 647 OFFCURVE",
"321 599 CURVE",
"278 578 OFFCURVE",
"236 559 OFFCURVE",
"192 548 CURVE"
);
},
{
closed = 1;
nodes = (
"359 564 LINE",
"446 605 OFFCURVE",
"529 650 OFFCURVE",
"592 660 CURVE SMOOTH",
"677 673 OFFCURVE",
"728 648 OFFCURVE",
"741 623 CURVE SMOOTH",
"746 612 OFFCURVE",
"746 600 OFFCURVE",
"741 590 CURVE",
"732 579 OFFCURVE",
"718 572 OFFCURVE",
"701 575 CURVE",
"697 575 OFFCURVE",
"699 573 OFFCURVE",
"701 571 CURVE",
"697 572 OFFCURVE",
"698 577 OFFCURVE",
"702 577 CURVE SMOOTH",
"730 573 OFFCURVE",
"746 598 OFFCURVE",
"736 620 CURVE SMOOTH",
"725 643 OFFCURVE",
"677 664 OFFCURVE",
"593 651 CURVE SMOOTH",
"530 641 OFFCURVE",
"452 593 OFFCURVE",
"366 550 CURVE"
);
},
{
closed = 1;
nodes = (
"239 496 LINE",
"199 483 OFFCURVE",
"158 475 OFFCURVE",
"118 475 CURVE SMOOTH",
"36 475 OFFCURVE",
"-12 527 OFFCURVE",
"-3 580 CURVE",
"0 573 LINE",
"1 529 OFFCURVE",
"49 494 OFFCURVE",
"122 494 CURVE SMOOTH",
"154 494 OFFCURVE",
"188 500 OFFCURVE",
"222 509 CURVE"
);
},
{
closed = 1;
nodes = (
"356 487 OFFCURVE",
"341 475 OFFCURVE",
"320 475 CURVE SMOOTH",
"298 475 OFFCURVE",
"273 484 OFFCURVE",
"249 499 CURVE",
"239 496 LINE",
"265 478 OFFCURVE",
"294 467 OFFCURVE",
"320 467 CURVE SMOOTH",
"346 467 OFFCURVE",
"372 479 OFFCURVE",
"372 516 CURVE SMOOTH",
"372 527 OFFCURVE",
"370 539 OFFCURVE",
"366 550 CURVE",
"352 544 LINE",
"354 535 OFFCURVE",
"356 527 OFFCURVE",
"356 519 CURVE SMOOTH"
);
},
{
closed = 1;
nodes = (
"319 527 OFFCURVE",
"284 511 OFFCURVE",
"249 499 CURVE",
"231 512 LINE",
"270 524 OFFCURVE",
"309 541 OFFCURVE",
"347 558 CURVE",
"349 554 OFFCURVE",
"351 549 OFFCURVE",
"352 544 CURVE"
);
}
);
width = 768;
}
);
note = e;
unicode = 0065;
},
{
glyphname = f;
layers = (
{
hints = (
{
horizontal = 1;
place = "{471, 9}";
type = Stem;
},
{
horizontal = 1;
place = "{525, 11}";
type = Stem;
},
{
place = "{25, 18}";
type = Stem;
},
{
place = "{173, 7}";
type = Stem;
},
{
place = "{341, 18}";
type = Stem;
},
{
place = "{204, 7}";
type = Stem;
},
{
horizontal = 1;
place = "{476, 32}";
type = Stem;
},
{
place = "{176, 32}";
type = Stem;
}
);
layerId = "D54531F3-FE1C-40AB-90CA-1E553B8D5AD9";
paths = (
{
closed = 1;
nodes = (
"218 525 OFFCURVE",
"214 572 OFFCURVE",
"201 595 CURVE SMOOTH",
"195 605 LINE",
"200 613 OFFCURVE",
"208 622 OFFCURVE",
"217 630 CURVE",
"234 573 OFFCURVE",
"248 516 OFFCURVE",
"288 485 CURVE SMOOTH",
"320 460 OFFCURVE",
"369 472 OFFCURVE",
"383 498 CURVE",
"384 501 OFFCURVE",
"382 501 OFFCURVE",
"380 498 CURVE SMOOTH",
"365 476 OFFCURVE",
"334 474 OFFCURVE",
"305 496 CURVE SMOOTH",
"267 525 OFFCURVE",
"250 583 OFFCURVE",
"228 639 CURVE",
"276 673 OFFCURVE",
"359 691 OFFCURVE",
"359 757 CURVE SMOOTH",
"359 780 OFFCURVE",
"343 798 OFFCURVE",
"309 798 CURVE SMOOTH",
"275 798 OFFCURVE",
"238 776 OFFCURVE",
"206 737 CURVE SMOOTH",
"201 731 OFFCURVE",
"196 724 OFFCURVE",
"192 717 CURVE",
"187 724 OFFCURVE",
"183 731 OFFCURVE",
"178 737 CURVE SMOOTH",
"146 776 OFFCURVE",
"109 798 OFFCURVE",
"75 798 CURVE SMOOTH",
"41 798 OFFCURVE",
"25 780 OFFCURVE",
"25 757 CURVE SMOOTH",
"25 691 OFFCURVE",
"108 673 OFFCURVE",
"155 639 CURVE",
"134 583 OFFCURVE",
"116 525 OFFCURVE",
"79 496 CURVE SMOOTH",
"50 474 OFFCURVE",
"19 476 OFFCURVE",
"4 498 CURVE SMOOTH",
"2 501 OFFCURVE",
"0 501 OFFCURVE",
"1 498 CURVE",
"15 472 OFFCURVE",
"64 460 OFFCURVE",
"96 485 CURVE SMOOTH",
"135 516 OFFCURVE",
"150 573 OFFCURVE",
"167 630 CURVE",
"175 622 OFFCURVE",
"183 613 OFFCURVE",
"189 605 CURVE",
"183 595 LINE SMOOTH",
"170 572 OFFCURVE",
"166 525 OFFCURVE",
"192 525 CURVE SMOOTH"
);
},
{
closed = 1;
nodes = (
"202 718 OFFCURVE",
"207 727 OFFCURVE",
"214 735 CURVE SMOOTH",
"248 772 OFFCURVE",
"282 792 OFFCURVE",
"309 792 CURVE SMOOTH",
"330 792 OFFCURVE",
"341 781 OFFCURVE",
"341 766 CURVE SMOOTH",
"341 720 OFFCURVE",
"261 678 OFFCURVE",
"225 647 CURVE",
"217 669 OFFCURVE",
"208 690 OFFCURVE",
"197 709 CURVE"
);
},
{
closed = 1;
nodes = (
"43 781 OFFCURVE",
"54 792 OFFCURVE",
"75 792 CURVE SMOOTH",
"102 792 OFFCURVE",
"136 772 OFFCURVE",
"170 735 CURVE",
"176 727 OFFCURVE",
"182 718 OFFCURVE",
"187 709 CURVE",
"176 690 OFFCURVE",
"167 669 OFFCURVE",
"158 647 CURVE",
"123 678 OFFCURVE",
"43 720 OFFCURVE",
"43 766 CURVE SMOOTH"
);
},
{
closed = 1;
nodes = (
"175 659 OFFCURVE",
"182 680 OFFCURVE",
"192 699 CURVE",
"201 680 OFFCURVE",
"208 659 OFFCURVE",
"215 637 CURVE",
"206 628 OFFCURVE",
"198 619 OFFCURVE",
"192 609 CURVE",
"185 619 OFFCURVE",
"178 628 OFFCURVE",
"169 637 CURVE"
);
},
{
closed = 1;
nodes = (
"196 532 OFFCURVE",
"186 535 OFFCURVE",
"183 542 CURVE SMOOTH",
"176 557 OFFCURVE",
"182 584 OFFCURVE",
"192 600 CURVE",
"201 584 OFFCURVE",
"209 557 OFFCURVE",
"201 542 CURVE SMOOTH"
);
},
{
closed = 1;
nodes = (
"176 483 OFFCURVE",
"183 476 OFFCURVE",
"192 476 CURVE SMOOTH",
"201 476 OFFCURVE",
"208 483 OFFCURVE",
"208 492 CURVE SMOOTH",
"208 501 OFFCURVE",
"201 508 OFFCURVE",
"192 508 CURVE SMOOTH",
"183 508 OFFCURVE",
"176 501 OFFCURVE",
"176 492 CURVE SMOOTH"
);
}
);
width = 384;
}
);
note = f;
unicode = 0066;
},
{
glyphname = g;
layers = (
{
hints = (
{
horizontal = 1;
place = "{467, 8}";
type = Stem;
},
{
horizontal = 1;
place = "{522, 18}";
type = Stem;
},
{
horizontal = 1;
place = "{698, 7}";
type = Stem;
},
{
place = "{1, 16}";
type = Stem;
},
{
place = "{396, 16}";
type = Stem;
},
{
place = "{765, 13}";
type = Stem;
},
{
horizontal = 1;
place = "{680, 8}";
type = Stem;
},
{
horizontal = 1;
place = "{577, 78}";
type = Stem;
},
{
place = "{29, 37}";
type = Stem;
}
);
layerId = "D54531F3-FE1C-40AB-90CA-1E553B8D5AD9";
paths = (
{
closed = 1;
nodes = (
"771 580 LINE",
"776 589 OFFCURVE",
"778 598 OFFCURVE",
"778 608 CURVE SMOOTH",
"778 647 OFFCURVE",
"741 687 OFFCURVE",
"646 688 CURVE SMOOTH",
"571 688 OFFCURVE",
"487 653 OFFCURVE",
"438 604 CURVE",
"362 642 OFFCURVE",
"285 686 OFFCURVE",
"198 700 CURVE SMOOTH",
"-40 738 OFFCURVE",
"-33 556 OFFCURVE",
"62 569 CURVE SMOOTH",
"63 569 OFFCURVE",
"65 570 OFFCURVE",
"66 571 CURVE",
"48 569 OFFCURVE",
"33 578 OFFCURVE",
"27 590 CURVE",
"-3 629 OFFCURVE",
"26 721 OFFCURVE",
"198 693 CURVE SMOOTH",
"282 679 OFFCURVE",
"357 636 OFFCURVE",
"432 597 CURVE",
"422 586 OFFCURVE",
"414 575 OFFCURVE",
"408 564 CURVE",
"420 558 LINE",
"425 570 OFFCURVE",
"432 581 OFFCURVE",
"441 592 CURVE",
"482 570 OFFCURVE",
"523 550 OFFCURVE",
"565 537 CURVE",
"556 528 OFFCURVE",
"547 520 OFFCURVE",
"537 512 CURVE",
"546 509 LINE",
"555 517 OFFCURVE",
"565 526 OFFCURVE",
"573 535 CURVE",
"601 527 OFFCURVE",
"629 522 OFFCURVE",
"658 522 CURVE SMOOTH",
"710 522 OFFCURVE",
"750 544 OFFCURVE",
"768 573 CURVE",
"768 579 LINE SMOOTH",
"768 584 OFFCURVE",
"770 588 OFFCURVE",
"771 583 CURVE SMOOTH"
);
},
{
closed = 1;
nodes = (
"615 624 OFFCURVE",
"611 629 OFFCURVE",
"611 626 CURVE SMOOTH",
"611 601 OFFCURVE",
"597 573 OFFCURVE",
"575 548 CURVE",
"532 559 OFFCURVE",
"489 578 OFFCURVE",
"447 599 CURVE",
"490 647 OFFCURVE",
"569 680 OFFCURVE",
"646 680 CURVE SMOOTH",
"831 678 OFFCURVE",
"776 540 OFFCURVE",
"644 540 CURVE SMOOTH",
"623 540 OFFCURVE",
"603 542 OFFCURVE",
"583 547 CURVE",
"602 571 OFFCURVE",
"615 597 OFFCURVE",
"615 620 CURVE SMOOTH"
);
},
{
closed = 1;
nodes = (
"50 572 OFFCURVE",
"36 579 OFFCURVE",
"27 590 CURVE",
"22 600 OFFCURVE",
"21 611 OFFCURVE",
"27 623 CURVE SMOOTH",
"40 648 OFFCURVE",
"91 673 OFFCURVE",
"176 660 CURVE SMOOTH",
"239 650 OFFCURVE",
"321 605 OFFCURVE",
"408 564 CURVE",
"406 559 OFFCURVE",
"403 555 OFFCURVE",
"402 550 CURVE",
"316 593 OFFCURVE",
"237 641 OFFCURVE",
"175 651 CURVE SMOOTH",
"91 664 OFFCURVE",
"43 643 OFFCURVE",
"32 620 CURVE SMOOTH",
"22 598 OFFCURVE",
"38 573 OFFCURVE",
"66 577 CURVE SMOOTH",
"70 577 OFFCURVE",
"71 572 OFFCURVE",
"67 571 CURVE SMOOTH",
"66 571 LINE",
"69 573 OFFCURVE",
"70 575 OFFCURVE",
"67 575 CURVE"
);
},
{
closed = 1;
nodes = (
"771 580 LINE",
"780 527 OFFCURVE",
"731 475 OFFCURVE",
"650 475 CURVE SMOOTH",
"609 475 OFFCURVE",
"568 483 OFFCURVE",
"528 496 CURVE",
"546 509 LINE",
"580 500 OFFCURVE",
"613 494 OFFCURVE",
"646 494 CURVE SMOOTH",
"719 494 OFFCURVE",
"767 529 OFFCURVE",
"768 573 CURVE"
);
},
{
closed = 1;
nodes = (
"396 479 OFFCURVE",
"422 467 OFFCURVE",
"448 467 CURVE SMOOTH",
"473 467 OFFCURVE",
"502 478 OFFCURVE",
"528 496 CURVE",
"519 499 LINE",
"495 484 OFFCURVE",
"469 475 OFFCURVE",
"448 475 CURVE SMOOTH",
"427 475 OFFCURVE",
"412 487 OFFCURVE",
"412 519 CURVE SMOOTH",
"412 527 OFFCURVE",
"413 535 OFFCURVE",
"415 544 CURVE",
"402 550 LINE",
"398 539 OFFCURVE",
"396 527 OFFCURVE",
"396 516 CURVE SMOOTH"
);
},
{
closed = 1;
nodes = (
"519 499 LINE",
"483 511 OFFCURVE",
"449 527 OFFCURVE",
"415 544 CURVE",
"417 549 OFFCURVE",
"418 554 OFFCURVE",
"420 558 CURVE",
"459 541 OFFCURVE",
"498 524 OFFCURVE",
"537 512 CURVE"
);
}
);
width = 768;
}
);
note = g;
unicode = 0067;
},
{
glyphname = h;
layers = (
{
hints = (
{
horizontal = 1;
place = "{-275, 7}";
type = Stem;
},
{
horizontal = 1;
place = "{-110, 18}";
type = Stem;
},
{
horizontal = 1;
place = "{-45, 8}";
type = Stem;
},
{
place = "{-10, 13}";
type = Stem;
},
{
place = "{356, 16}";
type = Stem;
},
{
place = "{751, 16}";
type = Stem;
},
{
horizontal = 1;
place = "{-258, 8}";
type = Stem;
},
{
horizontal = 1;
place = "{-225, 78}";
type = Stem;
},
{
place = "{698, 41}";
type = Stem;
}
);
layerId = "D54531F3-FE1C-40AB-90CA-1E553B8D5AD9";
paths = (
{
closed = 1;
nodes = (
"-3 -150 LINE",
"-8 -159 OFFCURVE",
"-10 -168 OFFCURVE",
"-10 -178 CURVE SMOOTH",
"-10 -217 OFFCURVE",
"27 -257 OFFCURVE",
"122 -258 CURVE SMOOTH",
"197 -258 OFFCURVE",
"281 -223 OFFCURVE",
"330 -173 CURVE",
"406 -212 OFFCURVE",
"482 -256 OFFCURVE",
"570 -270 CURVE SMOOTH",
"808 -308 OFFCURVE",
"801 -126 OFFCURVE",
"706 -139 CURVE SMOOTH",
"704 -139 OFFCURVE",
"702 -140 OFFCURVE",
"701 -141 CURVE",
"719 -139 OFFCURVE",
"734 -148 OFFCURVE",
"741 -160 CURVE",
"771 -199 OFFCURVE",
"741 -291 OFFCURVE",
"570 -263 CURVE SMOOTH",
"486 -249 OFFCURVE",
"410 -206 OFFCURVE",
"336 -167 CURVE",
"345 -156 OFFCURVE",
"353 -145 OFFCURVE",
"359 -134 CURVE",
"347 -128 LINE",
"342 -140 OFFCURVE",
"335 -151 OFFCURVE",
"327 -162 CURVE",
"285 -140 OFFCURVE",
"245 -120 OFFCURVE",
"203 -107 CURVE",
"212 -98 OFFCURVE",
"221 -90 OFFCURVE",
"231 -82 CURVE",
"222 -79 LINE",
"212 -87 OFFCURVE",
"203 -96 OFFCURVE",
"195 -105 CURVE",
"167 -97 OFFCURVE",
"139 -92 OFFCURVE",
"110 -92 CURVE SMOOTH",
"57 -92 OFFCURVE",
"17 -114 OFFCURVE",
"0 -144 CURVE",
"0 -149 LINE SMOOTH",
"0 -154 OFFCURVE",
"-2 -158 OFFCURVE",
"-3 -153 CURVE SMOOTH"
);
},
{
closed = 1;
nodes = (
"153 -194 OFFCURVE",
"157 -199 OFFCURVE",
"157 -196 CURVE SMOOTH",
"157 -171 OFFCURVE",
"171 -143 OFFCURVE",
"192 -118 CURVE",
"236 -129 OFFCURVE",
"278 -147 OFFCURVE",
"321 -169 CURVE",
"277 -217 OFFCURVE",
"199 -250 OFFCURVE",
"122 -250 CURVE SMOOTH",
"-63 -248 OFFCURVE",
"-8 -110 OFFCURVE",
"124 -110 CURVE SMOOTH",
"144 -110 OFFCURVE",
"165 -112 OFFCURVE",
"185 -117 CURVE",
"165 -141 OFFCURVE",
"153 -167 OFFCURVE",
"153 -190 CURVE SMOOTH"
);
},
{
closed = 1;
nodes = (
"718 -143 OFFCURVE",
"732 -149 OFFCURVE",
"741 -160 CURVE",
"746 -170 OFFCURVE",
"746 -181 OFFCURVE",
"741 -193 CURVE SMOOTH",
"728 -218 OFFCURVE",
"677 -243 OFFCURVE",
"592 -230 CURVE SMOOTH",
"529 -220 OFFCURVE",
"446 -175 OFFCURVE",
"359 -134 CURVE",
"366 -120 LINE",
"452 -163 OFFCURVE",
"530 -211 OFFCURVE",
"593 -221 CURVE SMOOTH",
"677 -234 OFFCURVE",
"725 -213 OFFCURVE",
"736 -190 CURVE SMOOTH",
"746 -168 OFFCURVE",
"730 -143 OFFCURVE",
"702 -147 CURVE SMOOTH",
"698 -147 OFFCURVE",
"697 -142 OFFCURVE",
"701 -141 CURVE",
"698 -143 OFFCURVE",
"697 -145 OFFCURVE",
"701 -145 CURVE SMOOTH"
);
},
{
closed = 1;
nodes = (
"-3 -150 LINE",
"-12 -97 OFFCURVE",
"36 -45 OFFCURVE",
"118 -45 CURVE SMOOTH",
"158 -45 OFFCURVE",
"199 -53 OFFCURVE",
"239 -66 CURVE",
"222 -79 LINE",
"188 -70 OFFCURVE",
"154 -64 OFFCURVE",
"122 -64 CURVE SMOOTH",
"48 -64 OFFCURVE",
"0 -99 OFFCURVE",
"0 -144 CURVE"
);
},
{
closed = 1;
nodes = (
"372 -49 OFFCURVE",
"346 -37 OFFCURVE",
"320 -37 CURVE SMOOTH",
"294 -37 OFFCURVE",
"265 -48 OFFCURVE",
"239 -66 CURVE",
"249 -69 LINE",
"273 -54 OFFCURVE",
"298 -45 OFFCURVE",
"320 -45 CURVE SMOOTH",
"341 -45 OFFCURVE",
"356 -57 OFFCURVE",
"356 -89 CURVE SMOOTH",
"356 -97 OFFCURVE",
"354 -105 OFFCURVE",
"352 -114 CURVE",
"366 -120 LINE",
"370 -109 OFFCURVE",
"372 -97 OFFCURVE",
"372 -86 CURVE SMOOTH"
);
},
{
closed = 1;
nodes = (
"249 -69 LINE",
"284 -81 OFFCURVE",
"319 -97 OFFCURVE",
"352 -114 CURVE",
"351 -119 OFFCURVE",
"349 -124 OFFCURVE",
"347 -128 CURVE",
"309 -111 OFFCURVE",
"270 -94 OFFCURVE",
"231 -82 CURVE"
);
}
);
width = 768;
}
);
note = h;
unicode = 0068;
},
{
glyphname = i;
layers = (
{
hints = (
{
horizontal = 1;
place = "{-382, 21}";
target = up;
type = BottomGhost;
},
{
horizontal = 1;
place = "{-120, 11}";
type = Stem;
},
{
horizontal = 1;
place = "{-65, 10}";
type = Stem;
},
{
place = "{25, 18}";
type = Stem;
},
{
place = "{173, 7}";
type = Stem;
},
{
place = "{341, 18}";
type = Stem;
},
{
place = "{204, 7}";
type = Stem;
}
);
layerId = "D54531F3-FE1C-40AB-90CA-1E553B8D5AD9";
paths = (
{
closed = 1;
nodes = (
"166 -109 OFFCURVE",
"170 -156 OFFCURVE",
"183 -179 CURVE SMOOTH",
"189 -189 LINE",
"183 -197 OFFCURVE",
"175 -206 OFFCURVE",
"167 -214 CURVE",
"150 -157 OFFCURVE",
"135 -100 OFFCURVE",
"96 -69 CURVE SMOOTH",
"64 -44 OFFCURVE",
"15 -56 OFFCURVE",
"1 -82 CURVE",
"0 -85 OFFCURVE",
"2 -85 OFFCURVE",
"4 -82 CURVE SMOOTH",
"19 -60 OFFCURVE",
"50 -58 OFFCURVE",
"79 -80 CURVE SMOOTH",
"116 -109 OFFCURVE",
"134 -167 OFFCURVE",
"155 -223 CURVE",
"108 -257 OFFCURVE",
"25 -275 OFFCURVE",
"25 -341 CURVE SMOOTH",
"25 -364 OFFCURVE",
"41 -382 OFFCURVE",
"75 -382 CURVE SMOOTH",
"109 -382 OFFCURVE",
"146 -360 OFFCURVE",
"178 -321 CURVE SMOOTH",
"183 -315 OFFCURVE",
"187 -308 OFFCURVE",
"192 -301 CURVE",
"196 -308 OFFCURVE",
"201 -315 OFFCURVE",
"206 -321 CURVE SMOOTH",
"238 -360 OFFCURVE",
"275 -382 OFFCURVE",
"309 -382 CURVE SMOOTH",
"343 -382 OFFCURVE",
"359 -364 OFFCURVE",
"359 -341 CURVE SMOOTH",
"359 -275 OFFCURVE",
"276 -257 OFFCURVE",
"228 -223 CURVE",
"250 -167 OFFCURVE",
"267 -109 OFFCURVE",
"305 -80 CURVE SMOOTH",
"334 -58 OFFCURVE",
"365 -60 OFFCURVE",
"380 -82 CURVE SMOOTH",
"382 -85 OFFCURVE",
"384 -85 OFFCURVE",
"383 -82 CURVE",
"369 -56 OFFCURVE",
"320 -44 OFFCURVE",
"288 -69 CURVE SMOOTH",
"248 -100 OFFCURVE",
"234 -157 OFFCURVE",
"217 -214 CURVE",
"208 -206 OFFCURVE",
"200 -197 OFFCURVE",
"195 -189 CURVE",
"201 -179 LINE SMOOTH",
"214 -156 OFFCURVE",
"218 -109 OFFCURVE",
"192 -109 CURVE SMOOTH"
);
},
{
closed = 1;
nodes = (
"182 -302 OFFCURVE",
"176 -311 OFFCURVE",
"170 -319 CURVE",
"136 -356 OFFCURVE",
"102 -376 OFFCURVE",
"75 -376 CURVE SMOOTH",
"54 -376 OFFCURVE",
"43 -365 OFFCURVE",
"43 -350 CURVE SMOOTH",
"43 -304 OFFCURVE",
"123 -262 OFFCURVE",
"158 -231 CURVE",
"167 -253 OFFCURVE",
"176 -274 OFFCURVE",
"187 -293 CURVE"
);
},
{
closed = 1;
nodes = (
"341 -365 OFFCURVE",
"330 -376 OFFCURVE",
"309 -376 CURVE SMOOTH",
"282 -376 OFFCURVE",
"248 -356 OFFCURVE",
"214 -319 CURVE SMOOTH",
"207 -311 OFFCURVE",
"202 -302 OFFCURVE",
"197 -293 CURVE",
"208 -274 OFFCURVE",
"217 -253 OFFCURVE",
"225 -231 CURVE",
"261 -262 OFFCURVE",
"341 -304 OFFCURVE",
"341 -350 CURVE SMOOTH"
);
},
{
closed = 1;
nodes = (
"208 -243 OFFCURVE",
"201 -264 OFFCURVE",
"192 -283 CURVE",
"182 -264 OFFCURVE",
"175 -243 OFFCURVE",
"169 -221 CURVE",
"177 -212 OFFCURVE",
"185 -203 OFFCURVE",
"192 -193 CURVE",
"198 -203 OFFCURVE",
"206 -212 OFFCURVE",
"215 -221 CURVE"
);
},
{
closed = 1;
nodes = (
"186 -119 OFFCURVE",
"196 -116 OFFCURVE",
"201 -126 CURVE SMOOTH",
"209 -141 OFFCURVE",
"201 -168 OFFCURVE",
"192 -184 CURVE",
"182 -168 OFFCURVE",
"176 -141 OFFCURVE",
"183 -126 CURVE SMOOTH"
);
},
{
closed = 1;
nodes = (
"176 -85 OFFCURVE",
"183 -92 OFFCURVE",
"192 -92 CURVE SMOOTH",
"201 -92 OFFCURVE",
"208 -85 OFFCURVE",
"208 -76 CURVE SMOOTH",
"208 -67 OFFCURVE",
"201 -60 OFFCURVE",
"192 -60 CURVE SMOOTH",
"183 -60 OFFCURVE",
"176 -67 OFFCURVE",
"176 -76 CURVE SMOOTH"
);
}
);
width = 384;
}
);
note = i;
unicode = 0069;
},
{
glyphname = j;
layers = (
{
hints = (
{
horizontal = 1;
place = "{-275, 7}";
type = Stem;
},
{
horizontal = 1;
place = "{-110, 18}";
type = Stem;
},
{
horizontal = 1;
place = "{-45, 8}";
type = Stem;
},
{
place = "{1, 16}";
type = Stem;
},
{
place = "{396, 16}";
type = Stem;
},
{
place = "{765, 13}";
type = Stem;
},
{
horizontal = 1;
place = "{-225, 78}";
type = Stem;
},
{
place = "{29, 37}";
type = Stem;
},
{
horizontal = 1;
place = "{-258, 8}";
type = Stem;
}
);
layerId = "D54531F3-FE1C-40AB-90CA-1E553B8D5AD9";
paths = (
{
closed = 1;
nodes = (
"771 -153 LINE SMOOTH",
"770 -158 OFFCURVE",
"768 -154 OFFCURVE",
"768 -149 CURVE SMOOTH",
"768 -144 LINE",
"750 -114 OFFCURVE",
"711 -92 OFFCURVE",
"658 -92 CURVE SMOOTH",
"629 -92 OFFCURVE",
"601 -97 OFFCURVE",
"573 -105 CURVE",
"565 -96 OFFCURVE",
"555 -87 OFFCURVE",
"546 -79 CURVE",
"537 -82 LINE",
"547 -90 OFFCURVE",
"556 -98 OFFCURVE",
"565 -107 CURVE",
"523 -120 OFFCURVE",
"482 -140 OFFCURVE",
"441 -162 CURVE",
"432 -151 OFFCURVE",
"425 -140 OFFCURVE",
"420 -128 CURVE",
"408 -134 LINE",
"414 -145 OFFCURVE",
"422 -156 OFFCURVE",
"432 -167 CURVE",
"357 -206 OFFCURVE",
"282 -249 OFFCURVE",
"198 -263 CURVE SMOOTH",
"26 -291 OFFCURVE",
"-3 -199 OFFCURVE",
"27 -160 CURVE",
"33 -148 OFFCURVE",
"48 -139 OFFCURVE",
"66 -141 CURVE",
"65 -140 OFFCURVE",
"63 -139 OFFCURVE",
"62 -139 CURVE SMOOTH",
"-33 -126 OFFCURVE",
"-40 -308 OFFCURVE",
"198 -270 CURVE SMOOTH",
"285 -256 OFFCURVE",
"362 -212 OFFCURVE",
"438 -174 CURVE",
"487 -223 OFFCURVE",
"571 -258 OFFCURVE",
"646 -258 CURVE SMOOTH",
"741 -257 OFFCURVE",
"778 -217 OFFCURVE",
"778 -178 CURVE SMOOTH",
"778 -168 OFFCURVE",
"776 -159 OFFCURVE",
"771 -150 CURVE"
);
},
{
closed = 1;
nodes = (
"597 -143 OFFCURVE",
"611 -171 OFFCURVE",
"611 -196 CURVE SMOOTH",
"611 -199 OFFCURVE",
"615 -194 OFFCURVE",
"615 -190 CURVE SMOOTH",
"615 -167 OFFCURVE",
"602 -141 OFFCURVE",
"583 -117 CURVE",
"603 -112 OFFCURVE",
"623 -110 OFFCURVE",
"644 -110 CURVE SMOOTH",
"776 -110 OFFCURVE",
"831 -248 OFFCURVE",
"646 -250 CURVE SMOOTH",
"569 -250 OFFCURVE",
"490 -217 OFFCURVE",
"447 -169 CURVE",
"489 -148 OFFCURVE",
"532 -129 OFFCURVE",
"575 -118 CURVE"
);
},
{
closed = 1;
nodes = (
"321 -175 OFFCURVE",
"239 -220 OFFCURVE",
"176 -230 CURVE SMOOTH",
"91 -243 OFFCURVE",
"40 -218 OFFCURVE",
"27 -193 CURVE SMOOTH",
"21 -182 OFFCURVE",
"22 -170 OFFCURVE",
"27 -160 CURVE",
"36 -149 OFFCURVE",
"50 -143 OFFCURVE",
"67 -145 CURVE SMOOTH",
"70 -145 OFFCURVE",
"69 -143 OFFCURVE",
"66 -141 CURVE",
"67 -141 LINE SMOOTH",
"71 -142 OFFCURVE",
"70 -147 OFFCURVE",
"66 -147 CURVE SMOOTH",
"38 -143 OFFCURVE",
"22 -168 OFFCURVE",
"32 -190 CURVE SMOOTH",
"43 -213 OFFCURVE",
"91 -234 OFFCURVE",
"175 -221 CURVE SMOOTH",
"237 -211 OFFCURVE",
"316 -163 OFFCURVE",
"402 -120 CURVE",
"403 -125 OFFCURVE",
"406 -129 OFFCURVE",
"408 -134 CURVE"
);
},
{
closed = 1;
nodes = (
"528 -66 LINE",
"568 -53 OFFCURVE",
"609 -45 OFFCURVE",
"650 -45 CURVE SMOOTH",
"731 -45 OFFCURVE",
"780 -97 OFFCURVE",
"771 -150 CURVE",
"768 -144 LINE",
"767 -99 OFFCURVE",
"719 -64 OFFCURVE",
"646 -64 CURVE SMOOTH",
"613 -64 OFFCURVE",
"580 -70 OFFCURVE",
"546 -79 CURVE"
);
},
{
closed = 1;
nodes = (
"412 -57 OFFCURVE",
"427 -45 OFFCURVE",
"448 -45 CURVE SMOOTH",
"469 -45 OFFCURVE",
"495 -54 OFFCURVE",
"519 -69 CURVE",
"528 -66 LINE",
"502 -48 OFFCURVE",
"473 -37 OFFCURVE",
"448 -37 CURVE SMOOTH",
"422 -37 OFFCURVE",
"396 -49 OFFCURVE",
"396 -86 CURVE SMOOTH",
"396 -97 OFFCURVE",
"398 -109 OFFCURVE",
"402 -120 CURVE",
"415 -114 LINE",
"413 -105 OFFCURVE",
"412 -97 OFFCURVE",
"412 -89 CURVE SMOOTH"
);
},
{
closed = 1;
nodes = (
"449 -97 OFFCURVE",
"483 -81 OFFCURVE",
"519 -69 CURVE",
"537 -82 LINE",
"498 -94 OFFCURVE",
"459 -111 OFFCURVE",
"420 -128 CURVE",
"418 -124 OFFCURVE",
"417 -119 OFFCURVE",
"415 -114 CURVE"
);
}
);
width = 768;
}
);
note = j;
unicode = 006A;
},
{
glyphname = k;
layers = (
{
hints = (
{
horizontal = 1;
place = "{378, 8}";
type = Stem;
},
{
horizontal = 1;
place = "{505, 18}";
type = Stem;
},
{
horizontal = 1;
place = "{684, 8}";
type = Stem;
},
{
place = "{-17, 19}";
type = Stem;
},
{
place = "{339, 19}";
type = Stem;
},
{
place = "{753, 15}";
type = Stem;
},
{
horizontal = 1;
place = "{664, 8}";
type = Stem;
}
);
layerId = "D54531F3-FE1C-40AB-90CA-1E553B8D5AD9";
paths = (
{
closed = 1;
nodes = (
"55 543 OFFCURVE",
"61 548 OFFCURVE",
"56 548 CURVE",
"-25 536 OFFCURVE",
"-40 716 OFFCURVE",
"187 680 CURVE SMOOTH",
"269 666 OFFCURVE",
"342 626 OFFCURVE",
"411 588 CURVE",
"368 552 OFFCURVE",
"339 505 OFFCURVE",
"339 448 CURVE SMOOTH",
"339 374 OFFCURVE",
"406 368 OFFCURVE",
"452 386 CURVE SMOOTH",
"503 406 OFFCURVE",
"538 463 OFFCURVE",
"545 486 CURVE SMOOTH",
"546 491 OFFCURVE",
"542 494 OFFCURVE",
"541 489 CURVE SMOOTH",
"535 468 OFFCURVE",
"497 412 OFFCURVE",
"449 393 CURVE SMOOTH",
"406 376 OFFCURVE",
"358 388 OFFCURVE",
"358 452 CURVE SMOOTH",
"358 504 OFFCURVE",
"383 549 OFFCURVE",
"421 583 CURVE",
"496 542 OFFCURVE",
"568 505 OFFCURVE",
"647 505 CURVE SMOOTH",
"789 505 OFFCURVE",
"830 670 OFFCURVE",
"636 672 CURVE SMOOTH",
"569 672 OFFCURVE",
"481 644 OFFCURVE",
"418 594 CURVE",
"346 631 OFFCURVE",
"272 673 OFFCURVE",
"187 687 CURVE SMOOTH",
"-60 726 OFFCURVE",
"-52 527 OFFCURVE",
"50 542 CURVE SMOOTH"
);
},
{
closed = 1;
nodes = (
"819 662 OFFCURVE",
"765 523 OFFCURVE",
"634 523 CURVE SMOOTH",
"562 523 OFFCURVE",
"495 554 OFFCURVE",
"428 589 CURVE",
"485 637 OFFCURVE",
"568 664 OFFCURVE",
"636 664 CURVE SMOOTH"
);
}
);
width = 768;
}
);
note = k;
unicode = 006B;
},
{
glyphname = l;
layers = (
{
hints = (
{
horizontal = 1;
place = "{378, 8}";
type = Stem;
},
{
horizontal = 1;
place = "{505, 18}";
type = Stem;
},
{
horizontal = 1;
place = "{684, 8}";
type = Stem;
},
{
place = "{3, 14}";
type = Stem;
},
{
place = "{412, 19}";
type = Stem;
},
{
place = "{769, 19}";
type = Stem;
},
{
horizontal = 1;
place = "{664, 8}";
type = Stem;
}
);
layerId = "D54531F3-FE1C-40AB-90CA-1E553B8D5AD9";
paths = (
{
closed = 1;
nodes = (
"824 525 OFFCURVE",
"830 726 OFFCURVE",
"583 687 CURVE SMOOTH",
"497 673 OFFCURVE",
"423 631 OFFCURVE",
"352 594 CURVE",
"289 644 OFFCURVE",
"200 672 OFFCURVE",
"134 672 CURVE SMOOTH",
"-60 670 OFFCURVE",
"-19 505 OFFCURVE",
"123 505 CURVE SMOOTH",
"201 505 OFFCURVE",
"274 542 OFFCURVE",
"349 583 CURVE",
"386 548 OFFCURVE",
"412 504 OFFCURVE",
"412 452 CURVE SMOOTH",
"412 388 OFFCURVE",
"364 376 OFFCURVE",
"321 393 CURVE SMOOTH",
"273 412 OFFCURVE",
"235 468 OFFCURVE",
"229 489 CURVE SMOOTH",
"228 494 OFFCURVE",
"224 491 OFFCURVE",
"225 486 CURVE SMOOTH",
"232 463 OFFCURVE",
"267 406 OFFCURVE",
"318 386 CURVE SMOOTH",
"364 368 OFFCURVE",
"431 374 OFFCURVE",
"431 448 CURVE SMOOTH",
"431 504 OFFCURVE",
"401 552 OFFCURVE",
"359 588 CURVE",
"428 626 OFFCURVE",
"500 666 OFFCURVE",
"583 680 CURVE SMOOTH",
"810 716 OFFCURVE",
"797 534 OFFCURVE",
"716 546 CURVE",
"711 546 OFFCURVE",
"717 541 OFFCURVE",
"722 540 CURVE SMOOTH"
);
},
{
closed = 1;
nodes = (
"5 523 OFFCURVE",
"-49 662 OFFCURVE",
"134 664 CURVE SMOOTH",
"201 664 OFFCURVE",
"284 637 OFFCURVE",
"342 589 CURVE",
"274 554 OFFCURVE",
"208 523 OFFCURVE",
"136 523 CURVE SMOOTH"
);
}
);
width = 768;
}
);
note = l;
unicode = 006C;
},
{
glyphname = m;
layers = (
{
hints = (
{
horizontal = 1;
place = "{-284, 8}";
type = Stem;
},
{
horizontal = 1;
place = "{-115, 18}";
type = Stem;
},
{
horizontal = 1;
place = "{22, 8}";
type = Stem;
},
{
place = "{-17, 19}";
type = Stem;
},
{
place = "{339, 19}";
type = Stem;
},
{
place = "{753, 15}";
type = Stem;
},
{
horizontal = 1;
place = "{-264, 8}";
type = Stem;
}
);
layerId = "D54531F3-FE1C-40AB-90CA-1E553B8D5AD9";
paths = (
{
closed = 1;
nodes = (
"-52 -117 OFFCURVE",
"-60 -318 OFFCURVE",
"187 -279 CURVE SMOOTH",
"272 -265 OFFCURVE",
"346 -223 OFFCURVE",
"418 -186 CURVE",
"481 -236 OFFCURVE",
"569 -264 OFFCURVE",
"636 -264 CURVE SMOOTH",
"830 -262 OFFCURVE",
"789 -97 OFFCURVE",
"647 -97 CURVE SMOOTH",
"568 -97 OFFCURVE",
"496 -134 OFFCURVE",
"421 -175 CURVE",
"383 -140 OFFCURVE",
"358 -96 OFFCURVE",
"358 -44 CURVE SMOOTH",
"358 20 OFFCURVE",
"406 32 OFFCURVE",
"449 15 CURVE SMOOTH",
"497 -4 OFFCURVE",
"535 -60 OFFCURVE",
"541 -81 CURVE SMOOTH",
"542 -86 OFFCURVE",
"546 -83 OFFCURVE",
"545 -78 CURVE SMOOTH",
"538 -55 OFFCURVE",
"503 2 OFFCURVE",
"452 22 CURVE SMOOTH",
"406 40 OFFCURVE",
"339 34 OFFCURVE",
"339 -40 CURVE SMOOTH",
"339 -96 OFFCURVE",
"368 -144 OFFCURVE",
"411 -180 CURVE",
"341 -218 OFFCURVE",
"269 -258 OFFCURVE",
"187 -272 CURVE SMOOTH",
"-40 -308 OFFCURVE",
"-25 -126 OFFCURVE",
"56 -138 CURVE",
"61 -138 OFFCURVE",
"55 -133 OFFCURVE",
"50 -132 CURVE SMOOTH"
);
},
{
closed = 1;
nodes = (
"765 -115 OFFCURVE",
"819 -254 OFFCURVE",
"636 -256 CURVE SMOOTH",
"568 -256 OFFCURVE",
"485 -229 OFFCURVE",
"428 -181 CURVE",
"495 -146 OFFCURVE",
"562 -115 OFFCURVE",
"634 -115 CURVE SMOOTH"
);
}
);
width = 768;
}
);
note = m;
unicode = 006D;
},
{
glyphname = n;
layers = (
{
hints = (
{
horizontal = 1;
place = "{-283, 8}";
type = Stem;
},
{
horizontal = 1;
place = "{-115, 18}";
type = Stem;
},
{
horizontal = 1;
place = "{22, 8}";
type = Stem;
},
{
place = "{3, 14}";
type = Stem;
},
{
place = "{412, 19}";
type = Stem;
},
{
place = "{761, 18}";
type = Stem;
},
{
horizontal = 1;
place = "{-264, 8}";
type = Stem;
}
);
layerId = "D54531F3-FE1C-40AB-90CA-1E553B8D5AD9";
paths = (
{
closed = 1;
nodes = (
"709 -137 OFFCURVE",
"703 -142 OFFCURVE",
"708 -142 CURVE",
"789 -130 OFFCURVE",
"800 -307 OFFCURVE",
"573 -271 CURVE SMOOTH",
"492 -257 OFFCURVE",
"423 -219 OFFCURVE",
"357 -182 CURVE",
"400 -145 OFFCURVE",
"431 -97 OFFCURVE",
"431 -40 CURVE SMOOTH",
"431 34 OFFCURVE",
"364 40 OFFCURVE",
"318 22 CURVE SMOOTH",
"267 2 OFFCURVE",
"232 -55 OFFCURVE",
"225 -78 CURVE SMOOTH",
"224 -83 OFFCURVE",
"228 -86 OFFCURVE",
"229 -81 CURVE SMOOTH",
"235 -60 OFFCURVE",
"273 -4 OFFCURVE",
"321 15 CURVE SMOOTH",
"364 32 OFFCURVE",
"412 20 OFFCURVE",
"412 -44 CURVE SMOOTH",
"412 -97 OFFCURVE",
"386 -142 OFFCURVE",
"347 -176 CURVE",
"273 -135 OFFCURVE",
"203 -97 OFFCURVE",
"123 -97 CURVE SMOOTH",
"-19 -97 OFFCURVE",
"-60 -262 OFFCURVE",
"134 -264 CURVE SMOOTH",
"199 -264 OFFCURVE",
"287 -237 OFFCURVE",
"350 -187 CURVE",
"418 -224 OFFCURVE",
"488 -264 OFFCURVE",
"573 -278 CURVE SMOOTH",
"820 -317 OFFCURVE",
"816 -121 OFFCURVE",
"714 -136 CURVE SMOOTH"
);
},
{
closed = 1;
nodes = (
"-49 -254 OFFCURVE",
"5 -115 OFFCURVE",
"136 -115 CURVE SMOOTH",
"209 -115 OFFCURVE",
"274 -147 OFFCURVE",
"340 -182 CURVE",
"283 -230 OFFCURVE",
"201 -256 OFFCURVE",
"134 -256 CURVE SMOOTH"
);
}
);
width = 768;
}
);
note = n;
unicode = 006E;
},
{
glyphname = o;
layers = (
{
hints = (
{
horizontal = 1;
place = "{625, 20}";
type = Stem;
},
{
horizontal = 1;
place = "{751, 20}";
type = Stem;
},
{
place = "{-1, 770}";
type = Stem;
}
);
layerId = "D54531F3-FE1C-40AB-90CA-1E553B8D5AD9";
paths = (
{
closed = 1;
nodes = (
"-1 645 LINE",
"-1 625 LINE",
"769 625 LINE",
"769 645 LINE",
"739 645 OFFCURVE",
"704 647 OFFCURVE",
"681 657 CURVE SMOOTH",
"648 673 OFFCURVE",
"643 712 OFFCURVE",
"667 741 CURVE SMOOTH",
"672 746 OFFCURVE",
"678 750 OFFCURVE",
"684 751 CURVE",
"641 800 OFFCURVE",
"500 751 OFFCURVE",
"362 704 CURVE SMOOTH",
"256 666 OFFCURVE",
"99 645 OFFCURVE",
"7 645 CURVE SMOOTH"
);
}
);
width = 768;
}
);
note = o;
unicode = 006F;
},
{
glyphname = p;
layers = (
{
hints = (
{
horizontal = 1;
place = "{625, 20}";
type = Stem;
},
{
horizontal = 1;
place = "{751, 20}";
type = Stem;
},
{
place = "{-1, 770}";
type = Stem;
}
);
layerId = "D54531F3-FE1C-40AB-90CA-1E553B8D5AD9";
paths = (
{
closed = 1;
nodes = (
"761 645 LINE SMOOTH",
"669 645 OFFCURVE",
"512 666 OFFCURVE",
"406 704 CURVE SMOOTH",
"268 751 OFFCURVE",
"127 800 OFFCURVE",
"84 751 CURVE",
"90 750 OFFCURVE",
"96 746 OFFCURVE",
"101 741 CURVE SMOOTH",
"125 712 OFFCURVE",
"120 673 OFFCURVE",
"87 657 CURVE SMOOTH",
"64 647 OFFCURVE",
"29 645 OFFCURVE",
"-1 645 CURVE",
"-1 625 LINE",
"769 625 LINE",
"769 645 LINE"
);
}
);
width = 768;
}
);
note = p;
unicode = 0070;
},
{
glyphname = q;
layers = (
{
hints = (
{
horizontal = 1;
place = "{625, 20}";
type = Stem;
},
{
place = "{-1, 770}";
type = Stem;
}
);
layerId = "D54531F3-FE1C-40AB-90CA-1E553B8D5AD9";
paths = (
{
closed = 1;
nodes = (
"7 625 LINE SMOOTH",
"99 625 OFFCURVE",
"256 604 OFFCURVE",
"362 566 CURVE SMOOTH",
"500 519 OFFCURVE",
"641 470 OFFCURVE",
"684 519 CURVE",
"678 520 OFFCURVE",
"672 524 OFFCURVE",
"667 529 CURVE SMOOTH",
"643 558 OFFCURVE",
"648 597 OFFCURVE",
"681 613 CURVE SMOOTH",
"704 623 OFFCURVE",
"739 625 OFFCURVE",
"769 625 CURVE",
"769 645 LINE",
"-1 645 LINE",
"-1 625 LINE"
);
}
);
width = 768;
}
);
note = q;
unicode = 0071;
},
{
glyphname = r;
layers = (
{
hints = (
{
horizontal = 1;
place = "{499, 20}";
type = Stem;
},
{
horizontal = 1;
place = "{625, 20}";
type = Stem;
},
{
place = "{-1, 770}";
type = Stem;
}
);
layerId = "D54531F3-FE1C-40AB-90CA-1E553B8D5AD9";
paths = (
{
closed = 1;
nodes = (
"769 625 LINE",
"769 645 LINE",
"-1 645 LINE",
"-1 625 LINE",
"29 625 OFFCURVE",
"64 623 OFFCURVE",
"87 613 CURVE SMOOTH",
"120 597 OFFCURVE",
"125 558 OFFCURVE",
"101 529 CURVE SMOOTH",
"96 524 OFFCURVE",
"90 520 OFFCURVE",
"84 519 CURVE",
"127 470 OFFCURVE",
"268 519 OFFCURVE",
"406 566 CURVE SMOOTH",
"512 604 OFFCURVE",
"669 625 OFFCURVE",
"761 625 CURVE SMOOTH"
);
}
);
width = 768;
}
);
note = r;
unicode = 0072;
},
{
glyphname = s;
layers = (
{
hints = (
{
horizontal = 1;
place = "{-381, 146}";
type = Stem;
},
{
place = "{-1, 770}";
type = Stem;
},
{
horizontal = 1;
place = "{-361, 21}";
target = up;
type = BottomGhost;
},
{
horizontal = 1;
place = "{-255, 20}";
type = Stem;
}
);
layerId = "D54531F3-FE1C-40AB-90CA-1E553B8D5AD9";
paths = (
{
closed = 1;
nodes = (
"7 -255 LINE SMOOTH",
"99 -255 OFFCURVE",
"256 -276 OFFCURVE",
"362 -314 CURVE SMOOTH",
"500 -361 OFFCURVE",
"641 -410 OFFCURVE",
"684 -361 CURVE",
"678 -360 OFFCURVE",
"672 -356 OFFCURVE",
"667 -351 CURVE SMOOTH",
"643 -322 OFFCURVE",
"648 -283 OFFCURVE",
"681 -267 CURVE SMOOTH",
"704 -257 OFFCURVE",
"739 -255 OFFCURVE",
"769 -255 CURVE",
"769 -235 LINE",
"-1 -235 LINE",
"-1 -255 LINE"
);
}
);
width = 768;
}
);
note = s;
unicode = 0073;
},
{
glyphname = t;
layers = (
{
hints = (
{
horizontal = 1;
place = "{-381, 146}";
type = Stem;
},
{
place = "{-1, 770}";
type = Stem;
},
{
horizontal = 1;
place = "{-255, 20}";
type = Stem;
},
{
horizontal = 1;
place = "{-381, 20}";
type = Stem;
}
);
layerId = "D54531F3-FE1C-40AB-90CA-1E553B8D5AD9";
paths = (
{
closed = 1;
nodes = (
"769 -255 LINE",
"769 -235 LINE",
"-1 -235 LINE",
"-1 -255 LINE",
"29 -255 OFFCURVE",
"64 -257 OFFCURVE",
"87 -267 CURVE SMOOTH",
"120 -283 OFFCURVE",
"125 -322 OFFCURVE",
"101 -351 CURVE SMOOTH",
"96 -356 OFFCURVE",
"90 -360 OFFCURVE",
"84 -361 CURVE",
"127 -410 OFFCURVE",
"268 -361 OFFCURVE",
"406 -314 CURVE SMOOTH",
"512 -276 OFFCURVE",
"669 -255 OFFCURVE",
"761 -255 CURVE SMOOTH"
);
}
);
width = 768;
}
);
note = t;
unicode = 0074;
},
{
glyphname = u;
layers = (
{
hints = (
{
horizontal = 1;
place = "{-255, 20}";
type = Stem;
},
{
horizontal = 1;
place = "{-129, 20}";
type = Stem;
},
{
place = "{-1, 770}";
type = Stem;
}
);
layerId = "D54531F3-FE1C-40AB-90CA-1E553B8D5AD9";
paths = (
{
closed = 1;
nodes = (
"-1 -235 LINE",
"-1 -255 LINE",
"769 -255 LINE",
"769 -235 LINE",
"739 -235 OFFCURVE",
"704 -233 OFFCURVE",
"681 -223 CURVE SMOOTH",
"648 -207 OFFCURVE",
"643 -168 OFFCURVE",
"667 -139 CURVE SMOOTH",
"672 -134 OFFCURVE",
"678 -130 OFFCURVE",
"684 -129 CURVE",
"641 -80 OFFCURVE",
"500 -129 OFFCURVE",
"362 -176 CURVE SMOOTH",
"256 -214 OFFCURVE",
"99 -235 OFFCURVE",
"7 -235 CURVE SMOOTH"
);
}
);
width = 768;
}
);
note = u;
unicode = 0075;
},
{
glyphname = v;
layers = (
{
hints = (
{
horizontal = 1;
place = "{-255, 20}";
type = Stem;
},
{
horizontal = 1;
place = "{-129, 20}";
type = Stem;
},
{
place = "{-1, 770}";
type = Stem;
}
);
layerId = "D54531F3-FE1C-40AB-90CA-1E553B8D5AD9";
paths = (
{
closed = 1;
nodes = (
"761 -235 LINE SMOOTH",
"669 -235 OFFCURVE",
"512 -214 OFFCURVE",
"406 -176 CURVE SMOOTH",
"268 -129 OFFCURVE",
"127 -80 OFFCURVE",
"84 -129 CURVE",
"90 -130 OFFCURVE",
"96 -134 OFFCURVE",
"101 -139 CURVE SMOOTH",
"125 -168 OFFCURVE",
"120 -207 OFFCURVE",
"87 -223 CURVE SMOOTH",
"64 -233 OFFCURVE",
"29 -235 OFFCURVE",
"-1 -235 CURVE",
"-1 -255 LINE",
"769 -255 LINE",
"769 -235 LINE"
);
}
);
width = 768;
}
);
note = v;
unicode = 0076;
},
{
glyphname = w;
layers = (
{
hints = (
{
horizontal = 1;
place = "{625, 20}";
type = Stem;
},
{
place = "{-11, 780}";
type = Stem;
}
);
layerId = "D54531F3-FE1C-40AB-90CA-1E553B8D5AD9";
paths = (
{
closed = 1;
nodes = (
"305 708 OFFCURVE",
"92 645 OFFCURVE",
"15 645 CURVE SMOOTH",
"-1 645 LINE SMOOTH",
"-15 645 OFFCURVE",
"-15 625 OFFCURVE",
"-1 625 CURVE SMOOTH",
"15 625 LINE SMOOTH",
"92 625 OFFCURVE",
"305 562 OFFCURVE",
"370 562 CURVE SMOOTH",
"461 562 OFFCURVE",
"455 625 OFFCURVE",
"508 625 CURVE SMOOTH",
"769 625 LINE",
"769 645 LINE",
"508 645 LINE SMOOTH",
"455 645 OFFCURVE",
"461 708 OFFCURVE",
"370 708 CURVE SMOOTH"
);
}
);
width = 768;
}
);
note = w;
unicode = 0077;
},
{
glyphname = x;
layers = (
{
hints = (
{
horizontal = 1;
place = "{625, 20}";
type = Stem;
},
{
place = "{-1, 781}";
type = Stem;
}
);
layerId = "D54531F3-FE1C-40AB-90CA-1E553B8D5AD9";
paths = (
{
closed = 1;
nodes = (
"307 708 OFFCURVE",
"313 645 OFFCURVE",
"260 645 CURVE SMOOTH",
"-1 645 LINE",
"-1 625 LINE",
"260 625 LINE SMOOTH",
"313 625 OFFCURVE",
"307 562 OFFCURVE",
"398 562 CURVE SMOOTH",
"463 562 OFFCURVE",
"676 625 OFFCURVE",
"753 625 CURVE SMOOTH",
"769 625 LINE SMOOTH",
"783 625 OFFCURVE",
"783 645 OFFCURVE",
"769 645 CURVE SMOOTH",
"753 645 LINE SMOOTH",
"676 645 OFFCURVE",
"463 708 OFFCURVE",
"398 708 CURVE SMOOTH"
);
}
);
width = 768;
}
);
note = x;
unicode = 0078;
},
{
glyphname = y;
layers = (
{
hints = (
{
horizontal = 1;
place = "{-254, 20}";
type = Stem;
},
{
place = "{-11, 780}";
type = Stem;
}
);
layerId = "D54531F3-FE1C-40AB-90CA-1E553B8D5AD9";
paths = (
{
closed = 1;
nodes = (
"305 -171 OFFCURVE",
"92 -234 OFFCURVE",
"15 -234 CURVE SMOOTH",
"-1 -234 LINE SMOOTH",
"-15 -234 OFFCURVE",
"-15 -254 OFFCURVE",
"-1 -254 CURVE SMOOTH",
"15 -254 LINE SMOOTH",
"92 -254 OFFCURVE",
"305 -317 OFFCURVE",
"370 -317 CURVE SMOOTH",
"461 -317 OFFCURVE",
"455 -254 OFFCURVE",
"508 -254 CURVE SMOOTH",
"769 -254 LINE",
"769 -234 LINE",
"508 -234 LINE SMOOTH",
"455 -234 OFFCURVE",
"461 -171 OFFCURVE",
"370 -171 CURVE SMOOTH"
);
}
);
width = 768;
}
);
note = y;
unicode = 0079;
},
{
glyphname = z;
layers = (
{
hints = (
{
horizontal = 1;
place = "{-254, 20}";
type = Stem;
},
{
place = "{-1, 781}";
type = Stem;
}
);
layerId = "D54531F3-FE1C-40AB-90CA-1E553B8D5AD9";
paths = (
{
closed = 1;
nodes = (
"307 -171 OFFCURVE",
"313 -234 OFFCURVE",
"260 -234 CURVE SMOOTH",
"-1 -234 LINE",
"-1 -254 LINE",
"260 -254 LINE SMOOTH",
"313 -254 OFFCURVE",
"307 -317 OFFCURVE",
"398 -317 CURVE SMOOTH",
"463 -317 OFFCURVE",
"676 -254 OFFCURVE",
"753 -254 CURVE SMOOTH",
"769 -254 LINE SMOOTH",
"783 -254 OFFCURVE",
"783 -234 OFFCURVE",
"769 -234 CURVE SMOOTH",
"753 -234 LINE SMOOTH",
"676 -234 OFFCURVE",
"463 -171 OFFCURVE",
"398 -171 CURVE SMOOTH"
);
}
);
width = 768;
}
);
note = z;
unicode = 007A;
},
{
glyphname = colon;
layers = (
{
hints = (
{
horizontal = 1;
place = "{540, 10}";
type = Stem;
},
{
horizontal = 1;
place = "{624, 8}";
type = Stem;
},
{
place = "{-12, 15}";
type = Stem;
},
{
place = "{139, 27}";
type = Stem;
},
{
place = "{384, 15}";
type = Stem;
},
{
horizontal = 1;
place = "{478, 55}";
type = Stem;
},
{
horizontal = 1;
place = "{609, 9}";
type = Stem;
},
{
horizontal = 1;
place = "{537, 21}";
type = Stem;
}
);
layerId = "D54531F3-FE1C-40AB-90CA-1E553B8D5AD9";
paths = (
{
closed = 1;
nodes = (
"44 540 OFFCURVE",
"48 550 OFFCURVE",
"35 550 CURVE SMOOTH",
"-4 550 OFFCURVE",
"-22 624 OFFCURVE",
"67 624 CURVE SMOOTH",
"106 624 OFFCURVE",
"132 609 OFFCURVE",
"166 589 CURVE",
"109 537 OFFCURVE",
"147 478 OFFCURVE",
"248 478 CURVE SMOOTH",
"303 478 OFFCURVE",
"399 507 OFFCURVE",
"399 576 CURVE SMOOTH",
"399 594 OFFCURVE",
"385 618 OFFCURVE",
"354 618 CURVE SMOOTH",
"342 618 OFFCURVE",
"340 607 OFFCURVE",
"353 609 CURVE SMOOTH",
"371 611 OFFCURVE",
"384 606 OFFCURVE",
"384 583 CURVE SMOOTH",
"384 570 OFFCURVE",
"374 558 OFFCURVE",
"352 558 CURVE SMOOTH",
"324 558 OFFCURVE",
"300 577 OFFCURVE",
"285 601 CURVE SMOOTH",
"265 629 OFFCURVE",
"258 671 OFFCURVE",
"213 671 CURVE SMOOTH",
"183 671 OFFCURVE",
"157 645 OFFCURVE",
"166 599 CURVE",
"136 617 OFFCURVE",
"108 632 OFFCURVE",
"68 632 CURVE SMOOTH",
"-35 632 OFFCURVE",
"-26 540 OFFCURVE",
"23 540 CURVE SMOOTH"
);
},
{
closed = 1;
nodes = (
"189 575 OFFCURVE",
"185 590 OFFCURVE",
"188 587 CURVE SMOOTH",
"204 574 OFFCURVE",
"238 551 OFFCURVE",
"266 543 CURVE SMOOTH",
"292 536 OFFCURVE",
"321 535 OFFCURVE",
"342 543 CURVE SMOOTH",
"351 547 OFFCURVE",
"354 543 OFFCURVE",
"342 538 CURVE SMOOTH",
"326 530 OFFCURVE",
"301 529 OFFCURVE",
"279 533 CURVE SMOOTH",
"242 540 OFFCURVE",
"208 561 OFFCURVE",
"189 575 CURVE"
);
}
);
width = 384;
}
);
note = colon;
unicode = 003A;
},
{
glyphname = semicolon;
layers = (
{
hints = (
{
horizontal = 1;
place = "{-217, 10}";
type = Stem;
},
{
horizontal = 1;
place = "{-133, 8}";
type = Stem;
},
{
place = "{-12, 15}";
type = Stem;
},
{
place = "{139, 27}";
type = Stem;
},
{
place = "{384, 15}";
type = Stem;
},
{
horizontal = 1;
place = "{-279, 55}";
type = Stem;
},
{
horizontal = 1;
place = "{-148, 9}";
type = Stem;
},
{
horizontal = 1;
place = "{-220, 21}";
type = Stem;
}
);
layerId = "D54531F3-FE1C-40AB-90CA-1E553B8D5AD9";
paths = (
{
closed = 1;
nodes = (
"44 -217 OFFCURVE",
"48 -207 OFFCURVE",
"35 -207 CURVE SMOOTH",
"-4 -207 OFFCURVE",
"-22 -133 OFFCURVE",
"67 -133 CURVE SMOOTH",
"106 -133 OFFCURVE",
"132 -148 OFFCURVE",
"166 -168 CURVE",
"109 -220 OFFCURVE",
"147 -279 OFFCURVE",
"248 -279 CURVE SMOOTH",
"303 -279 OFFCURVE",
"399 -250 OFFCURVE",
"399 -181 CURVE SMOOTH",
"399 -163 OFFCURVE",
"385 -139 OFFCURVE",
"354 -139 CURVE SMOOTH",
"342 -139 OFFCURVE",
"340 -150 OFFCURVE",
"353 -148 CURVE SMOOTH",
"371 -146 OFFCURVE",
"384 -151 OFFCURVE",
"384 -174 CURVE SMOOTH",
"384 -187 OFFCURVE",
"374 -199 OFFCURVE",
"352 -199 CURVE SMOOTH",
"324 -199 OFFCURVE",
"300 -180 OFFCURVE",
"285 -156 CURVE SMOOTH",
"265 -128 OFFCURVE",
"258 -86 OFFCURVE",
"213 -86 CURVE SMOOTH",
"183 -86 OFFCURVE",
"157 -112 OFFCURVE",
"166 -158 CURVE",
"136 -140 OFFCURVE",
"108 -125 OFFCURVE",
"68 -125 CURVE SMOOTH",
"-35 -125 OFFCURVE",
"-26 -217 OFFCURVE",
"23 -217 CURVE SMOOTH"
);
},
{
closed = 1;
nodes = (
"189 -182 OFFCURVE",
"185 -167 OFFCURVE",
"188 -170 CURVE SMOOTH",
"204 -183 OFFCURVE",
"238 -206 OFFCURVE",
"266 -214 CURVE SMOOTH",
"292 -221 OFFCURVE",
"321 -222 OFFCURVE",
"342 -214 CURVE SMOOTH",
"351 -210 OFFCURVE",
"354 -214 OFFCURVE",
"342 -219 CURVE SMOOTH",
"326 -227 OFFCURVE",
"301 -228 OFFCURVE",
"279 -224 CURVE SMOOTH",
"242 -217 OFFCURVE",
"208 -196 OFFCURVE",
"189 -182 CURVE"
);
}
);
width = 384;
}
);
note = semicolon;
unicode = 003B;
},
{
glyphname = less;
layers = (
{
hints = (
{
horizontal = 1;
place = "{550, 10}";
type = Stem;
},
{
horizontal = 1;
place = "{596, 10}";
type = Stem;
},
{
place = "{-13, 782}";
type = Stem;
}
);
layerId = "D54531F3-FE1C-40AB-90CA-1E553B8D5AD9";
paths = (
{
closed = 1;
nodes = (
"146 638 OFFCURVE",
"39 606 OFFCURVE",
"0 606 CURVE SMOOTH",
"-8 606 LINE SMOOTH",
"-15 606 OFFCURVE",
"-15 596 OFFCURVE",
"-8 596 CURVE SMOOTH",
"0 596 LINE SMOOTH",
"39 596 OFFCURVE",
"146 564 OFFCURVE",
"179 564 CURVE SMOOTH",
"225 564 OFFCURVE",
"222 596 OFFCURVE",
"248 596 CURVE SMOOTH",
"769 596 LINE",
"769 606 LINE",
"248 606 LINE SMOOTH",
"222 606 OFFCURVE",
"225 638 OFFCURVE",
"179 638 CURVE SMOOTH"
);
},
{
closed = 1;
nodes = (
"769 560 LINE",
"398 560 LINE",
"395 575 OFFCURVE",
"382 587 OFFCURVE",
"366 587 CURVE SMOOTH",
"348 587 OFFCURVE",
"333 573 OFFCURVE",
"333 555 CURVE SMOOTH",
"333 537 OFFCURVE",
"348 522 OFFCURVE",
"366 522 CURVE SMOOTH",
"382 522 OFFCURVE",
"395 534 OFFCURVE",
"398 550 CURVE",
"769 550 LINE"
);
}
);
width = 768;
}
);
note = less;
unicode = 003C;
},
{
glyphname = equal;
layers = (
{
hints = (
{
horizontal = 1;
place = "{550, 10}";
type = Stem;
},
{
horizontal = 1;
place = "{596, 10}";
type = Stem;
},
{
place = "{-2, 782}";
type = Stem;
}
);
layerId = "D54531F3-FE1C-40AB-90CA-1E553B8D5AD9";
paths = (
{
closed = 1;
nodes = (
"542 638 OFFCURVE",
"545 606 OFFCURVE",
"519 606 CURVE SMOOTH",
"-1 606 LINE",
"-1 596 LINE",
"519 596 LINE SMOOTH",
"545 596 OFFCURVE",
"542 564 OFFCURVE",
"588 564 CURVE SMOOTH",
"621 564 OFFCURVE",
"728 596 OFFCURVE",
"767 596 CURVE SMOOTH",
"775 596 LINE SMOOTH",
"782 596 OFFCURVE",
"782 606 OFFCURVE",
"775 606 CURVE SMOOTH",
"767 606 LINE SMOOTH",
"728 606 OFFCURVE",
"621 638 OFFCURVE",
"588 638 CURVE SMOOTH"
);
},
{
closed = 1;
nodes = (
"-2 550 LINE",
"369 550 LINE",
"371 534 OFFCURVE",
"384 522 OFFCURVE",
"401 522 CURVE SMOOTH",
"419 522 OFFCURVE",
"434 537 OFFCURVE",
"434 555 CURVE SMOOTH",
"434 573 OFFCURVE",
"419 587 OFFCURVE",
"401 587 CURVE SMOOTH",
"384 587 OFFCURVE",
"371 575 OFFCURVE",
"369 560 CURVE",
"-2 560 LINE"
);
}
);
width = 768;
}
);
note = equal;
unicode = 003D;
},
{
glyphname = greater;
layers = (
{
hints = (
{
horizontal = 1;
place = "{-208, 10}";
type = Stem;
},
{
horizontal = 1;
place = "{-162, 10}";
type = Stem;
},
{
place = "{-1, 782}";
type = Stem;
}
);
layerId = "D54531F3-FE1C-40AB-90CA-1E553B8D5AD9";
paths = (
{
closed = 1;
nodes = (
"622 -240 OFFCURVE",
"729 -208 OFFCURVE",
"768 -208 CURVE SMOOTH",
"776 -208 LINE SMOOTH",
"783 -208 OFFCURVE",
"783 -198 OFFCURVE",
"776 -198 CURVE SMOOTH",
"768 -198 LINE SMOOTH",
"729 -198 OFFCURVE",
"622 -166 OFFCURVE",
"589 -166 CURVE SMOOTH",
"543 -166 OFFCURVE",
"546 -198 OFFCURVE",
"520 -198 CURVE SMOOTH",
"0 -198 LINE",
"0 -208 LINE",
"520 -208 LINE SMOOTH",
"546 -208 OFFCURVE",
"543 -240 OFFCURVE",
"589 -240 CURVE SMOOTH"
);
},
{
closed = 1;
nodes = (
"-1 -162 LINE",
"370 -162 LINE",
"372 -177 OFFCURVE",
"385 -189 OFFCURVE",
"402 -189 CURVE SMOOTH",
"420 -189 OFFCURVE",
"435 -175 OFFCURVE",
"435 -157 CURVE SMOOTH",
"435 -139 OFFCURVE",
"420 -124 OFFCURVE",
"402 -124 CURVE SMOOTH",
"385 -124 OFFCURVE",
"372 -136 OFFCURVE",
"370 -152 CURVE",
"-1 -152 LINE"
);
}
);
width = 768;
}
);
note = greater;
unicode = 003E;
},
{
glyphname = question;
layers = (
{
hints = (
{
horizontal = 1;
place = "{-208, 10}";
type = Stem;
},
{
horizontal = 1;
place = "{-162, 10}";
type = Stem;
},
{
place = "{-13, 782}";
type = Stem;
}
);
layerId = "D54531F3-FE1C-40AB-90CA-1E553B8D5AD9";
paths = (
{
closed = 1;
nodes = (
"225 -240 OFFCURVE",
"222 -208 OFFCURVE",
"248 -208 CURVE SMOOTH",
"769 -208 LINE",
"769 -198 LINE",
"248 -198 LINE SMOOTH",
"222 -198 OFFCURVE",
"225 -166 OFFCURVE",
"179 -166 CURVE SMOOTH",
"146 -166 OFFCURVE",
"39 -198 OFFCURVE",
"0 -198 CURVE SMOOTH",
"-8 -198 LINE SMOOTH",
"-15 -198 OFFCURVE",
"-15 -208 OFFCURVE",
"-8 -208 CURVE SMOOTH",
"0 -208 LINE SMOOTH",
"39 -208 OFFCURVE",
"146 -240 OFFCURVE",
"179 -240 CURVE SMOOTH"
);
},
{
closed = 1;
nodes = (
"769 -152 LINE",
"398 -152 LINE",
"395 -136 OFFCURVE",
"382 -124 OFFCURVE",
"366 -124 CURVE SMOOTH",
"348 -124 OFFCURVE",
"333 -139 OFFCURVE",
"333 -157 CURVE SMOOTH",
"333 -175 OFFCURVE",
"348 -189 OFFCURVE",
"366 -189 CURVE SMOOTH",
"382 -189 OFFCURVE",
"395 -177 OFFCURVE",
"398 -162 CURVE",
"769 -162 LINE"
);
}
);
width = 768;
}
);
note = question;
unicode = 003F;
},
{
glyphname = at;
layers = (
{
hints = (
{
horizontal = 1;
place = "{550, 10}";
type = Stem;
},
{
horizontal = 1;
place = "{596, 16}";
type = Stem;
},
{
horizontal = 1;
place = "{659, 10}";
type = Stem;
},
{
place = "{-2, 771}";
type = Stem;
},
{
horizontal = 1;
place = "{596, 10}";
type = Stem;
}
);
layerId = "D54531F3-FE1C-40AB-90CA-1E553B8D5AD9";
paths = (
{
closed = 1;
nodes = (
"769 606 LINE",
"588 606 LINE SMOOTH",
"541 607 OFFCURVE",
"471 617 OFFCURVE",
"422 635 CURVE SMOOTH",
"353 659 OFFCURVE",
"282 683 OFFCURVE",
"261 659 CURVE",
"264 658 OFFCURVE",
"267 656 OFFCURVE",
"269 654 CURVE SMOOTH",
"281 639 OFFCURVE",
"279 620 OFFCURVE",
"262 612 CURVE SMOOTH",
"251 607 OFFCURVE",
"233 606 OFFCURVE",
"218 606 CURVE SMOOTH",
"-2 606 LINE",
"-2 596 LINE",
"769 596 LINE"
);
},
{
closed = 1;
nodes = (
"769 560 LINE",
"-2 560 LINE",
"-2 550 LINE",
"769 550 LINE"
);
}
);
width = 768;
}
);
note = at;
unicode = 0040;
},
{
glyphname = braceleft;
layers = (
{
hints = (
{
horizontal = 1;
place = "{550, 10}";
type = Stem;
},
{
horizontal = 1;
place = "{596, 10}";
type = Stem;
},
{
horizontal = 1;
place = "{659, 10}";
type = Stem;
},
{
place = "{-2, 770}";
type = Stem;
}
);
layerId = "D54531F3-FE1C-40AB-90CA-1E553B8D5AD9";
paths = (
{
closed = 1;
nodes = (
"-2 596 LINE",
"768 596 LINE",
"768 606 LINE",
"548 606 LINE SMOOTH",
"533 606 OFFCURVE",
"515 607 OFFCURVE",
"504 612 CURVE SMOOTH",
"487 620 OFFCURVE",
"485 639 OFFCURVE",
"497 654 CURVE SMOOTH",
"499 656 OFFCURVE",
"502 658 OFFCURVE",
"505 659 CURVE",
"484 683 OFFCURVE",
"413 659 OFFCURVE",
"344 635 CURVE SMOOTH",
"295 617 OFFCURVE",
"225 607 OFFCURVE",
"178 606 CURVE SMOOTH",
"-2 606 LINE"
);
},
{
closed = 1;
nodes = (
"-2 550 LINE",
"768 550 LINE",
"768 560 LINE",
"-2 560 LINE"
);
}
);
width = 768;
}
);
note = braceleft;
unicode = 007B;
},
{
glyphname = bar;
layers = (
{
hints = (
{
horizontal = 1;
place = "{-271, 10}";
type = Stem;
},
{
horizontal = 1;
place = "{-208, 10}";
type = Stem;
},
{
horizontal = 1;
place = "{-162, 10}";
type = Stem;
},
{
place = "{-2, 770}";
type = Stem;
}
);
layerId = "D54531F3-FE1C-40AB-90CA-1E553B8D5AD9";
paths = (
{
closed = 1;
nodes = (
"768 -198 LINE",
"-2 -198 LINE",
"-2 -208 LINE",
"218 -208 LINE SMOOTH",
"233 -208 OFFCURVE",
"251 -209 OFFCURVE",
"262 -214 CURVE SMOOTH",
"279 -222 OFFCURVE",
"281 -241 OFFCURVE",
"269 -256 CURVE SMOOTH",
"267 -258 OFFCURVE",
"264 -260 OFFCURVE",
"261 -261 CURVE",
"282 -285 OFFCURVE",
"353 -261 OFFCURVE",
"422 -237 CURVE SMOOTH",
"471 -219 OFFCURVE",
"541 -209 OFFCURVE",
"588 -208 CURVE SMOOTH",
"768 -208 LINE"
);
},
{
closed = 1;
nodes = (
"768 -152 LINE",
"-2 -152 LINE",
"-2 -162 LINE",
"768 -162 LINE"
);
}
);
width = 768;
}
);
note = bar;
unicode = 007C;
},
{
glyphname = braceright;
layers = (
{
hints = (
{
horizontal = 1;
place = "{-208, 10}";
type = Stem;
},
{
horizontal = 1;
place = "{-162, 10}";
type = Stem;
},
{
place = "{-2, 770}";
type = Stem;
}
);
layerId = "D54531F3-FE1C-40AB-90CA-1E553B8D5AD9";
paths = (
{
closed = 1;
nodes = (
"-2 -208 LINE",
"178 -208 LINE SMOOTH",
"225 -209 OFFCURVE",
"295 -219 OFFCURVE",
"344 -237 CURVE SMOOTH",
"413 -261 OFFCURVE",
"484 -285 OFFCURVE",
"505 -261 CURVE",
"502 -260 OFFCURVE",
"499 -258 OFFCURVE",
"497 -256 CURVE SMOOTH",
"485 -241 OFFCURVE",
"487 -222 OFFCURVE",
"504 -214 CURVE SMOOTH",
"515 -209 OFFCURVE",
"533 -208 OFFCURVE",
"548 -208 CURVE SMOOTH",
"768 -208 LINE",
"768 -198 LINE",
"-2 -198 LINE"
);
},
{
closed = 1;
nodes = (
"-2 -162 LINE",
"768 -162 LINE",
"768 -152 LINE",
"-2 -152 LINE"
);
}
);
width = 768;
}
);
note = braceright;
unicode = 007D;
},
{
glyphname = bracketright;
layers = (
{
hints = (
{
horizontal = 1;
place = "{530, 15}";
type = Stem;
},
{
horizontal = 1;
place = "{596, 10}";
type = Stem;
},
{
horizontal = 1;
place = "{661, 9}";
type = Stem;
},
{
horizontal = 1;
place = "{742, 8}";
type = Stem;
},
{
place = "{37, 9}";
type = Stem;
},
{
place = "{337, 14}";
type = Stem;
},
{
place = "{493, 10}";
type = Stem;
},
{
horizontal = 1;
place = "{565, 7}";
type = Stem;
},
{
horizontal = 1;
place = "{539, 32}";
type = Stem;
},
{
horizontal = 1;
place = "{628, 32}";
type = Stem;
},
{
place = "{-16, 32}";
type = Stem;
},
{
place = "{370, 32}";
type = Stem;
}
);
layerId = "D54531F3-FE1C-40AB-90CA-1E553B8D5AD9";
paths = (
{
closed = 1;
nodes = (
"542 638 OFFCURVE",
"545 606 OFFCURVE",
"519 606 CURVE SMOOTH",
"503 606 LINE",
"507 626 OFFCURVE",
"492 645 OFFCURVE",
"468 642 CURVE SMOOTH",
"465 642 OFFCURVE",
"462 639 OFFCURVE",
"464 639 CURVE SMOOTH",
"485 642 OFFCURVE",
"497 624 OFFCURVE",
"493 606 CURVE",
"313 606 LINE",
"336 630 OFFCURVE",
"351 661 OFFCURVE",
"351 696 CURVE SMOOTH",
"351 751 OFFCURVE",
"297 758 OFFCURVE",
"265 744 CURVE SMOOTH",
"229 730 OFFCURVE",
"212 688 OFFCURVE",
"207 672 CURVE",
"207 669 OFFCURVE",
"210 665 OFFCURVE",
"211 668 CURVE SMOOTH",
"215 682 OFFCURVE",
"238 723 OFFCURVE",
"272 737 CURVE SMOOTH",
"303 750 OFFCURVE",
"337 741 OFFCURVE",
"337 693 CURVE SMOOTH",
"337 659 OFFCURVE",
"323 631 OFFCURVE",
"302 609 CURVE",
"250 636 OFFCURVE",
"199 670 OFFCURVE",
"126 670 CURVE SMOOTH",
"76 670 OFFCURVE",
"44 639 OFFCURVE",
"38 606 CURVE",
"-1 606 LINE",
"-1 596 LINE",
"37 596 LINE",
"37 563 OFFCURVE",
"66 531 OFFCURVE",
"134 530 CURVE SMOOTH",
"186 529 OFFCURVE",
"258 553 OFFCURVE",
"304 596 CURVE",
"310 596 LINE",
"336 582 OFFCURVE",
"363 570 OFFCURVE",
"394 565 CURVE SMOOTH",
"457 556 OFFCURVE",
"489 575 OFFCURVE",
"500 596 CURVE",
"519 596 LINE SMOOTH",
"545 596 OFFCURVE",
"542 564 OFFCURVE",
"588 564 CURVE SMOOTH",
"621 564 OFFCURVE",
"729 596 OFFCURVE",
"768 596 CURVE SMOOTH",
"776 596 LINE SMOOTH",
"783 596 OFFCURVE",
"783 606 OFFCURVE",
"776 606 CURVE SMOOTH",
"768 606 LINE SMOOTH",
"729 606 OFFCURVE",
"621 638 OFFCURVE",
"588 638 CURVE SMOOTH"
);
},
{
closed = 1;
nodes = (
"194 661 OFFCURVE",
"243 632 OFFCURVE",
"291 606 CURVE",
"46 606 LINE",
"52 634 OFFCURVE",
"84 661 OFFCURVE",
"129 661 CURVE SMOOTH"
);
},
{
closed = 1;
nodes = (
"71 545 OFFCURVE",
"46 569 OFFCURVE",
"45 596 CURVE",
"288 596 LINE",
"246 561 OFFCURVE",
"184 544 OFFCURVE",
"133 545 CURVE SMOOTH"
);
},
{
closed = 1;
nodes = (
"370 578 OFFCURVE",
"348 586 OFFCURVE",
"328 596 CURVE",
"488 596 LINE",
"477 579 OFFCURVE",
"449 566 OFFCURVE",
"394 575 CURVE SMOOTH"
);
},
{
closed = 1;
nodes = (
"-16 546 OFFCURVE",
"-9 539 OFFCURVE",
"0 539 CURVE SMOOTH",
"9 539 OFFCURVE",
"16 546 OFFCURVE",
"16 555 CURVE SMOOTH",
"16 564 OFFCURVE",
"9 571 OFFCURVE",
"0 571 CURVE SMOOTH",
"-9 571 OFFCURVE",
"-16 564 OFFCURVE",
"-16 555 CURVE SMOOTH"
);
},
{
closed = 1;
nodes = (
"370 635 OFFCURVE",
"377 628 OFFCURVE",
"386 628 CURVE SMOOTH",
"395 628 OFFCURVE",
"402 635 OFFCURVE",
"402 644 CURVE SMOOTH",
"402 653 OFFCURVE",
"395 660 OFFCURVE",
"386 660 CURVE SMOOTH",
"377 660 OFFCURVE",
"370 653 OFFCURVE",
"370 644 CURVE SMOOTH"
);
}
);
width = 768;
}
);
note = bracketright;
unicode = 005D;
},
{
glyphname = asciicircum;
layers = (
{
hints = (
{
horizontal = 1;
place = "{-228, 15}";
type = Stem;
},
{
horizontal = 1;
place = "{-162, 10}";
type = Stem;
},
{
horizontal = 1;
place = "{-97, 9}";
type = Stem;
},
{
horizontal = 1;
place = "{-16, 8}";
type = Stem;
},
{
place = "{264, 11}";
type = Stem;
},
{
place = "{417, 14}";
type = Stem;
},
{
place = "{722, 8}";
type = Stem;
},
{
horizontal = 1;
place = "{-193, 10}";
type = Stem;
},
{
horizontal = 1;
place = "{-219, 32}";
type = Stem;
},
{
horizontal = 1;
place = "{-130, 32}";
type = Stem;
},
{
place = "{366, 32}";
type = Stem;
},
{
place = "{752, 32}";
type = Stem;
}
);
layerId = "D54531F3-FE1C-40AB-90CA-1E553B8D5AD9";
paths = (
{
closed = 1;
nodes = (
"147 -120 OFFCURVE",
"39 -152 OFFCURVE",
"0 -152 CURVE SMOOTH",
"-8 -152 LINE SMOOTH",
"-15 -152 OFFCURVE",
"-15 -162 OFFCURVE",
"-8 -162 CURVE SMOOTH",
"0 -162 LINE SMOOTH",
"39 -162 OFFCURVE",
"147 -194 OFFCURVE",
"180 -194 CURVE SMOOTH",
"226 -194 OFFCURVE",
"223 -162 OFFCURVE",
"249 -162 CURVE SMOOTH",
"268 -162 LINE",
"278 -183 OFFCURVE",
"311 -201 OFFCURVE",
"374 -193 CURVE SMOOTH",
"404 -188 OFFCURVE",
"431 -176 OFFCURVE",
"458 -162 CURVE",
"464 -162 LINE",
"510 -205 OFFCURVE",
"581 -228 OFFCURVE",
"634 -228 CURVE SMOOTH",
"702 -227 OFFCURVE",
"730 -195 OFFCURVE",
"730 -162 CURVE",
"769 -162 LINE",
"769 -152 LINE",
"729 -152 LINE",
"724 -119 OFFCURVE",
"691 -88 OFFCURVE",
"642 -88 CURVE SMOOTH",
"569 -88 OFFCURVE",
"518 -122 OFFCURVE",
"465 -149 CURVE",
"444 -127 OFFCURVE",
"431 -99 OFFCURVE",
"431 -65 CURVE SMOOTH",
"431 -17 OFFCURVE",
"465 -8 OFFCURVE",
"496 -21 CURVE SMOOTH",
"530 -35 OFFCURVE",
"553 -76 OFFCURVE",
"557 -90 CURVE SMOOTH",
"558 -93 OFFCURVE",
"561 -89 OFFCURVE",
"561 -86 CURVE",
"556 -70 OFFCURVE",
"539 -28 OFFCURVE",
"503 -14 CURVE SMOOTH",
"471 0 OFFCURVE",
"417 -7 OFFCURVE",
"417 -62 CURVE SMOOTH",
"417 -97 OFFCURVE",
"431 -127 OFFCURVE",
"454 -152 CURVE",
"275 -152 LINE",
"270 -134 OFFCURVE",
"283 -116 OFFCURVE",
"304 -119 CURVE SMOOTH",
"306 -119 OFFCURVE",
"303 -116 OFFCURVE",
"300 -116 CURVE SMOOTH",
"275 -113 OFFCURVE",
"261 -132 OFFCURVE",
"264 -152 CURVE",
"249 -152 LINE SMOOTH",
"223 -152 OFFCURVE",
"226 -120 OFFCURVE",
"180 -120 CURVE SMOOTH"
);
},
{
closed = 1;
nodes = (
"684 -97 OFFCURVE",
"716 -124 OFFCURVE",
"721 -152 CURVE",
"477 -152 LINE",
"525 -125 OFFCURVE",
"573 -97 OFFCURVE",
"639 -97 CURVE SMOOTH"
);
},
{
closed = 1;
nodes = (
"584 -213 OFFCURVE",
"522 -196 OFFCURVE",
"480 -162 CURVE",
"722 -162 LINE",
"722 -188 OFFCURVE",
"696 -212 OFFCURVE",
"635 -213 CURVE SMOOTH"
);
},
{
closed = 1;
nodes = (
"319 -191 OFFCURVE",
"290 -178 OFFCURVE",
"279 -162 CURVE",
"440 -162 LINE",
"419 -171 OFFCURVE",
"397 -179 OFFCURVE",
"374 -183 CURVE SMOOTH"
);
},
{
closed = 1;
nodes = (
"784 -194 OFFCURVE",
"777 -187 OFFCURVE",
"768 -187 CURVE SMOOTH",
"759 -187 OFFCURVE",
"752 -194 OFFCURVE",
"752 -203 CURVE SMOOTH",
"752 -212 OFFCURVE",
"759 -219 OFFCURVE",
"768 -219 CURVE SMOOTH",
"777 -219 OFFCURVE",
"784 -212 OFFCURVE",
"784 -203 CURVE SMOOTH"
);
},
{
closed = 1;
nodes = (
"398 -105 OFFCURVE",
"391 -98 OFFCURVE",
"382 -98 CURVE SMOOTH",
"373 -98 OFFCURVE",
"366 -105 OFFCURVE",
"366 -114 CURVE SMOOTH",
"366 -123 OFFCURVE",
"373 -130 OFFCURVE",
"382 -130 CURVE SMOOTH",
"391 -130 OFFCURVE",
"398 -123 OFFCURVE",
"398 -114 CURVE SMOOTH"
);
}
);
width = 768;
}
);
note = asciicircum;
unicode = 005E;
},
{
glyphname = underscore;
layers = (
{
hints = (
{
horizontal = 1;
place = "{-228, 15}";
type = Stem;
},
{
horizontal = 1;
place = "{-162, 10}";
type = Stem;
},
{
horizontal = 1;
place = "{-97, 9}";
type = Stem;
},
{
horizontal = 1;
place = "{-16, 8}";
type = Stem;
},
{
place = "{37, 9}";
type = Stem;
},
{
place = "{337, 14}";
type = Stem;
},
{
place = "{493, 10}";
type = Stem;
},
{
horizontal = 1;
place = "{-193, 10}";
type = Stem;
},
{
horizontal = 1;
place = "{-219, 32}";
type = Stem;
},
{
horizontal = 1;
place = "{-130, 32}";
type = Stem;
},
{
place = "{-16, 32}";
type = Stem;
},
{
place = "{370, 32}";
type = Stem;
}
);
layerId = "D54531F3-FE1C-40AB-90CA-1E553B8D5AD9";
paths = (
{
closed = 1;
nodes = (
"542 -120 OFFCURVE",
"545 -152 OFFCURVE",
"519 -152 CURVE SMOOTH",
"503 -152 LINE",
"507 -132 OFFCURVE",
"492 -113 OFFCURVE",
"468 -116 CURVE SMOOTH",
"465 -116 OFFCURVE",
"462 -119 OFFCURVE",
"464 -119 CURVE SMOOTH",
"485 -116 OFFCURVE",
"497 -134 OFFCURVE",
"493 -152 CURVE",
"313 -152 LINE",
"336 -127 OFFCURVE",
"351 -97 OFFCURVE",
"351 -62 CURVE SMOOTH",
"351 -7 OFFCURVE",
"297 0 OFFCURVE",
"265 -14 CURVE SMOOTH",
"229 -28 OFFCURVE",
"212 -70 OFFCURVE",
"207 -86 CURVE",
"207 -89 OFFCURVE",
"210 -93 OFFCURVE",
"211 -90 CURVE SMOOTH",
"215 -76 OFFCURVE",
"238 -35 OFFCURVE",
"272 -21 CURVE SMOOTH",
"303 -8 OFFCURVE",
"337 -17 OFFCURVE",
"337 -65 CURVE SMOOTH",
"337 -99 OFFCURVE",
"323 -127 OFFCURVE",
"302 -149 CURVE",
"250 -121 OFFCURVE",
"199 -88 OFFCURVE",
"126 -88 CURVE SMOOTH",
"76 -88 OFFCURVE",
"44 -119 OFFCURVE",
"38 -152 CURVE",
"-1 -152 LINE",
"-1 -162 LINE",
"37 -162 LINE",
"37 -195 OFFCURVE",
"66 -227 OFFCURVE",
"134 -228 CURVE SMOOTH",
"186 -228 OFFCURVE",
"258 -205 OFFCURVE",
"304 -162 CURVE",
"310 -162 LINE",
"336 -176 OFFCURVE",
"363 -188 OFFCURVE",
"394 -193 CURVE SMOOTH",
"457 -201 OFFCURVE",
"489 -183 OFFCURVE",
"500 -162 CURVE",
"519 -162 LINE SMOOTH",
"545 -162 OFFCURVE",
"542 -194 OFFCURVE",
"588 -194 CURVE SMOOTH",
"621 -194 OFFCURVE",
"729 -162 OFFCURVE",
"768 -162 CURVE SMOOTH",
"776 -162 LINE SMOOTH",
"783 -162 OFFCURVE",
"783 -152 OFFCURVE",
"776 -152 CURVE SMOOTH",
"768 -152 LINE SMOOTH",
"729 -152 OFFCURVE",
"621 -120 OFFCURVE",
"588 -120 CURVE SMOOTH"
);
},
{
closed = 1;
nodes = (
"194 -97 OFFCURVE",
"243 -125 OFFCURVE",
"291 -152 CURVE",
"46 -152 LINE",
"52 -124 OFFCURVE",
"84 -97 OFFCURVE",
"129 -97 CURVE SMOOTH"
);
},
{
closed = 1;
nodes = (
"71 -212 OFFCURVE",
"46 -188 OFFCURVE",
"45 -162 CURVE",
"288 -162 LINE",
"246 -196 OFFCURVE",
"184 -213 OFFCURVE",
"133 -213 CURVE SMOOTH"
);
},
{
closed = 1;
nodes = (
"370 -179 OFFCURVE",
"348 -171 OFFCURVE",
"328 -162 CURVE",
"488 -162 LINE",
"477 -178 OFFCURVE",
"449 -191 OFFCURVE",
"394 -183 CURVE SMOOTH"
);
},
{
closed = 1;
nodes = (
"-16 -212 OFFCURVE",
"-9 -219 OFFCURVE",
"0 -219 CURVE SMOOTH",
"9 -219 OFFCURVE",
"16 -212 OFFCURVE",
"16 -203 CURVE SMOOTH",
"16 -194 OFFCURVE",
"9 -187 OFFCURVE",
"0 -187 CURVE SMOOTH",
"-9 -187 OFFCURVE",
"-16 -194 OFFCURVE",
"-16 -203 CURVE SMOOTH"
);
},
{
closed = 1;
nodes = (
"370 -123 OFFCURVE",
"377 -130 OFFCURVE",
"386 -130 CURVE SMOOTH",
"395 -130 OFFCURVE",
"402 -123 OFFCURVE",
"402 -114 CURVE SMOOTH",
"402 -105 OFFCURVE",
"395 -98 OFFCURVE",
"386 -98 CURVE SMOOTH",
"377 -98 OFFCURVE",
"370 -105 OFFCURVE",
"370 -114 CURVE SMOOTH"
);
}
);
width = 768;
}
);
note = underscore;
unicode = 005F;
},
{
glyphname = slash;
layers = (
{
hints = (
{
horizontal = 1;
place = "{625, 20}";
type = Stem;
},
{
place = "{-1, 386}";
type = Stem;
}
);
layerId = "D54531F3-FE1C-40AB-90CA-1E553B8D5AD9";
paths = (
{
closed = 1;
nodes = (
"-1 625 LINE",
"385 625 LINE",
"385 645 LINE",
"-1 645 LINE"
);
}
);
width = 384;
}
);
note = slash;
unicode = 002F;
},
{
glyphname = backslash;
layers = (
{
hints = (
{
horizontal = 1;
place = "{-254, 20}";
type = Stem;
},
{
place = "{-1, 386}";
type = Stem;
}
);
layerId = "D54531F3-FE1C-40AB-90CA-1E553B8D5AD9";
paths = (
{
closed = 1;
nodes = (
"-1 -254 LINE",
"385 -254 LINE",
"385 -234 LINE",
"-1 -234 LINE"
);
}
);
width = 384;
}
);
note = backslash;
unicode = 005C;
},
{
glyphname = swash;
layers = (
{
hints = (
{
horizontal = 1;
place = "{150, 24}";
type = Stem;
},
{
horizontal = 1;
place = "{232, 43}";
type = Stem;
},
{
horizontal = 1;
place = "{345, 16}";
type = Stem;
},
{
place = "{1, 56}";
type = Stem;
},
{
place = "{1513, 34}";
type = Stem;
}
);
layerId = "D54531F3-FE1C-40AB-90CA-1E553B8D5AD9";
paths = (
{
closed = 1;
nodes = (
"1096 278 OFFCURVE",
"961 264 OFFCURVE",
"828 246 CURVE",
"883 305 LINE SMOOTH",
"892 315 OFFCURVE",
"857 315 OFFCURVE",
"852 308 CURVE",
"827 282 OFFCURVE",
"809 261 OFFCURVE",
"792 241 CURVE",
"710 229 LINE",
"764 286 LINE SMOOTH",
"773 296 OFFCURVE",
"738 296 OFFCURVE",
"733 289 CURVE",
"708 264 OFFCURVE",
"691 243 OFFCURVE",
"674 223 CURVE",
"526 200 OFFCURVE",
"378 178 OFFCURVE",
"229 174 CURVE SMOOTH",
"65 167 OFFCURVE",
"1 229 OFFCURVE",
"112 291 CURVE SMOOTH",
"155 316 OFFCURVE",
"242 337 OFFCURVE",
"309 345 CURVE SMOOTH",
"345 349 OFFCURVE",
"323 363 OFFCURVE",
"296 361 CURVE SMOOTH",
"220 354 OFFCURVE",
"136 332 OFFCURVE",
"80 300 CURVE SMOOTH",
"-36 235 OFFCURVE",
"-20 177 OFFCURVE",
"100 154 CURVE",
"160 148 OFFCURVE",
"225 147 OFFCURVE",
"292 150 CURVE SMOOTH",
"420 155 OFFCURVE",
"531 168 OFFCURVE",
"641 182 CURVE",
"623 161 OFFCURVE",
"603 137 OFFCURVE",
"575 108 CURVE SMOOTH",
"561 94 OFFCURVE",
"581 90 OFFCURVE",
"598 108 CURVE SMOOTH",
"671 186 LINE",
"757 198 LINE",
"740 177 OFFCURVE",
"721 155 OFFCURVE",
"694 127 CURVE SMOOTH",
"675 108 OFFCURVE",
"698 107 OFFCURVE",
"717 127 CURVE SMOOTH",
"786 202 LINE",
"918 218 OFFCURVE",
"1056 232 OFFCURVE",
"1223 232 CURVE SMOOTH",
"1346 232 OFFCURVE",
"1476 216 OFFCURVE",
"1509 170 CURVE SMOOTH",
"1527 141 OFFCURVE",
"1475 94 OFFCURVE",
"1427 71 CURVE SMOOTH",
"1411 64 OFFCURVE",
"1392 48 OFFCURVE",
"1423 52 CURVE SMOOTH",
"1453 57 OFFCURVE",
"1547 93 OFFCURVE",
"1547 163 CURVE SMOOTH",
"1547 261 OFFCURVE",
"1321 273 OFFCURVE",
"1234 275 CURVE SMOOTH"
);
}
);
width = 1547;
}
);
note = swash;
},
{
glyphname = swash.1;
layers = (
{
hints = (
{
horizontal = 1;
place = "{119, 12}";
type = Stem;
},
{
horizontal = 1;
place = "{195, 30}";
type = Stem;
},
{
place = "{1, 71}";
type = Stem;
},
{
horizontal = 1;
place = "{153, 32}";
type = Stem;
}
);
layerId = "D54531F3-FE1C-40AB-90CA-1E553B8D5AD9";
paths = (
{
closed = 1;
nodes = (
"987 195 OFFCURVE",
"949 192 OFFCURVE",
"923 189 CURVE SMOOTH",
"839 178 OFFCURVE",
"538 194 OFFCURVE",
"404 207 CURVE SMOOTH",
"291 218 OFFCURVE",
"154 231 OFFCURVE",
"84 222 CURVE SMOOTH",
"47 217 OFFCURVE",
"-3 201 OFFCURVE",
"1 171 CURVE SMOOTH",
"4 145 OFFCURVE",
"69 119 OFFCURVE",
"152 119 CURVE SMOOTH",
"169 119 OFFCURVE",
"175 129 OFFCURVE",
"155 131 CURVE SMOOTH",
"84 136 OFFCURVE",
"73 154 OFFCURVE",
"72 169 CURVE SMOOTH",
"70 182 OFFCURVE",
"105 189 OFFCURVE",
"115 190 CURVE SMOOTH",
"169 197 OFFCURVE",
"272 198 OFFCURVE",
"399 185 CURVE SMOOTH",
"532 173 OFFCURVE",
"862 144 OFFCURVE",
"958 156 CURVE SMOOTH",
"1026 165 OFFCURVE",
"1051 203 OFFCURVE",
"1007 225 CURVE SMOOTH",
"991 233 OFFCURVE",
"965 234 OFFCURVE",
"975 219 CURVE"
);
}
);
width = 1029;
}
);
note = swash.1;
},
{
glyphname = swash.2;
layers = (
{
hints = (
{
horizontal = 1;
place = "{171, 11}";
type = Stem;
},
{
horizontal = 1;
place = "{244, 29}";
type = Stem;
},
{
place = "{1, 54}";
type = Stem;
},
{
place = "{877, 42}";
type = Stem;
},
{
horizontal = 1;
place = "{192, 32}";
type = Stem;
}
);
layerId = "D54531F3-FE1C-40AB-90CA-1E553B8D5AD9";
paths = (
{
closed = 1;
nodes = (
"707 191 OFFCURVE",
"937 176 OFFCURVE",
"919 288 CURVE SMOOTH",
"914 316 OFFCURVE",
"853 338 OFFCURVE",
"820 345 CURVE",
"792 348 OFFCURVE",
"801 337 OFFCURVE",
"815 331 CURVE SMOOTH",
"826 325 OFFCURVE",
"879 295 OFFCURVE",
"877 274 CURVE SMOOTH",
"873 236 OFFCURVE",
"758 222 OFFCURVE",
"637 224 CURVE SMOOTH",
"541 229 OFFCURVE",
"384 241 OFFCURVE",
"307 252 CURVE SMOOTH",
"220 265 OFFCURVE",
"115 280 OFFCURVE",
"61 273 CURVE SMOOTH",
"33 269 OFFCURVE",
"-4 254 OFFCURVE",
"1 224 CURVE SMOOTH",
"4 199 OFFCURVE",
"54 172 OFFCURVE",
"118 171 CURVE SMOOTH",
"130 170 OFFCURVE",
"135 180 OFFCURVE",
"120 182 CURVE SMOOTH",
"65 188 OFFCURVE",
"56 206 OFFCURVE",
"55 220 CURVE SMOOTH",
"53 234 OFFCURVE",
"79 240 OFFCURVE",
"87 241 CURVE SMOOTH",
"128 247 OFFCURVE",
"206 246 OFFCURVE",
"303 231 CURVE SMOOTH",
"375 221 OFFCURVE",
"523 199 OFFCURVE",
"629 192 CURVE"
);
}
);
width = 920;
}
);
note = swash.2;
},
{
glyphname = swash.3;
layers = (
{
hints = (
{
horizontal = 1;
place = "{245, 29}";
type = Stem;
},
{
horizontal = 1;
place = "{336, 11}";
type = Stem;
},
{
place = "{1, 54}";
type = Stem;
},
{
place = "{877, 42}";
type = Stem;
},
{
horizontal = 1;
place = "{294, 32}";
type = Stem;
}
);
layerId = "D54531F3-FE1C-40AB-90CA-1E553B8D5AD9";
paths = (
{
closed = 1;
nodes = (
"523 319 OFFCURVE",
"375 297 OFFCURVE",
"303 287 CURVE SMOOTH",
"206 272 OFFCURVE",
"128 271 OFFCURVE",
"87 277 CURVE SMOOTH",
"79 278 OFFCURVE",
"53 284 OFFCURVE",
"55 298 CURVE SMOOTH",
"56 312 OFFCURVE",
"65 330 OFFCURVE",
"120 336 CURVE SMOOTH",
"135 338 OFFCURVE",
"130 348 OFFCURVE",
"118 347 CURVE SMOOTH",
"54 346 OFFCURVE",
"4 319 OFFCURVE",
"1 294 CURVE SMOOTH",
"-4 264 OFFCURVE",
"33 249 OFFCURVE",
"61 245 CURVE SMOOTH",
"115 238 OFFCURVE",
"220 253 OFFCURVE",
"307 266 CURVE SMOOTH",
"384 277 OFFCURVE",
"541 289 OFFCURVE",
"637 294 CURVE SMOOTH",
"758 296 OFFCURVE",
"873 282 OFFCURVE",
"877 244 CURVE SMOOTH",
"879 223 OFFCURVE",
"826 193 OFFCURVE",
"815 187 CURVE SMOOTH",
"801 181 OFFCURVE",
"792 170 OFFCURVE",
"820 173 CURVE",
"853 180 OFFCURVE",
"914 202 OFFCURVE",
"919 230 CURVE SMOOTH",
"937 342 OFFCURVE",
"707 327 OFFCURVE",
"629 326 CURVE"
);
}
);
width = 920;
}
);
note = swash.3;
},
{
glyphname = swash.4;
layers = (
{
hints = (
{
horizontal = 1;
place = "{150, 24}";
type = Stem;
},
{
horizontal = 1;
place = "{232, 43}";
type = Stem;
},
{
horizontal = 1;
place = "{345, 16}";
type = Stem;
},
{
place = "{1, 56}";
type = Stem;
},
{
place = "{1513, 34}";
type = Stem;
}
);
layerId = "D54531F3-FE1C-40AB-90CA-1E553B8D5AD9";
paths = (
{
closed = 1;
nodes = (
"888 283 OFFCURVE",
"562 184 OFFCURVE",
"229 174 CURVE SMOOTH",
"65 167 OFFCURVE",
"1 229 OFFCURVE",
"112 291 CURVE SMOOTH",
"155 316 OFFCURVE",
"245 337 OFFCURVE",
"312 345 CURVE SMOOTH",
"348 349 OFFCURVE",
"323 363 OFFCURVE",
"296 361 CURVE SMOOTH",
"215 355 OFFCURVE",
"136 332 OFFCURVE",
"80 300 CURVE SMOOTH",
"-36 235 OFFCURVE",
"-20 177 OFFCURVE",
"100 154 CURVE",
"160 148 OFFCURVE",
"225 147 OFFCURVE",
"292 150 CURVE SMOOTH",
"628 164 OFFCURVE",
"854 232 OFFCURVE",
"1223 232 CURVE SMOOTH",
"1346 232 OFFCURVE",
"1476 216 OFFCURVE",
"1509 170 CURVE SMOOTH",
"1527 141 OFFCURVE",
"1475 94 OFFCURVE",
"1427 71 CURVE SMOOTH",
"1411 64 OFFCURVE",
"1392 48 OFFCURVE",
"1423 52 CURVE SMOOTH",
"1453 57 OFFCURVE",
"1547 93 OFFCURVE",
"1547 163 CURVE SMOOTH",
"1547 261 OFFCURVE",
"1321 273 OFFCURVE",
"1234 275 CURVE SMOOTH"
);
}
);
width = 1547;
}
);
note = swash.4;
},
{
glyphname = swash.5;
layers = (
{
hints = (
{
horizontal = 1;
place = "{41, 48}";
type = Stem;
},
{
horizontal = 1;
place = "{243, 26}";
type = Stem;
},
{
place = "{0, 63}";
type = Stem;
},
{
place = "{1511, 37}";
type = Stem;
},
{
horizontal = 1;
place = "{45, 22}";
type = Stem;
}
);
layerId = "D54531F3-FE1C-40AB-90CA-1E553B8D5AD9";
paths = (
{
closed = 1;
nodes = (
"1414 40 OFFCURVE",
"1488 57 OFFCURVE",
"1524 94 CURVE SMOOTH",
"1604 180 OFFCURVE",
"1468 242 OFFCURVE",
"1431 251 CURVE SMOOTH",
"1401 258 OFFCURVE",
"1418 240 OFFCURVE",
"1434 232 CURVE SMOOTH",
"1479 205 OFFCURVE",
"1527 153 OFFCURVE",
"1506 126 CURVE SMOOTH",
"1469 83 OFFCURVE",
"1266 84 OFFCURVE",
"1172 95 CURVE SMOOTH",
"988 117 OFFCURVE",
"911 131 OFFCURVE",
"833 147 CURVE SMOOTH",
"579 200 OFFCURVE",
"320 273 OFFCURVE",
"104 269 CURVE",
"-17 257 OFFCURVE",
"-38 201 OFFCURVE",
"71 126 CURVE SMOOTH",
"124 89 OFFCURVE",
"200 54 OFFCURVE",
"281 45 CURVE",
"307 39 OFFCURVE",
"322 60 OFFCURVE",
"287 67 CURVE SMOOTH",
"221 81 OFFCURVE",
"157 106 OFFCURVE",
"116 134 CURVE SMOOTH",
"11 206 OFFCURVE",
"68 259 OFFCURVE",
"231 238 CURVE SMOOTH",
"397 217 OFFCURVE",
"647 156 OFFCURVE",
"828 112 CURVE SMOOTH",
"934 86 OFFCURVE",
"1117 45 OFFCURVE",
"1333 41 CURVE SMOOTH"
);
}
);
width = 1549;
}
);
note = swash.5;
},
{
glyphname = swash.6;
layers = (
{
hints = (
{
horizontal = 1;
place = "{-310, 23}";
type = Stem;
},
{
horizontal = 1;
place = "{22, 47}";
type = Stem;
},
{
horizontal = 1;
place = "{484, 20}";
type = Stem;
},
{
place = "{1, 46}";
type = Stem;
},
{
place = "{897, 47}";
type = Stem;
},
{
place = "{1991, 36}";
type = Stem;
},
{
horizontal = 1;
place = "{437, 20}";
type = Stem;
},
{
place = "{1429, 10}";
type = Stem;
}
);
layerId = "D54531F3-FE1C-40AB-90CA-1E553B8D5AD9";
paths = (
{
closed = 1;
nodes = (
"178 147 OFFCURVE",
"192 162 OFFCURVE",
"179 160 CURVE SMOOTH",
"-21 135 OFFCURVE",
"-58 565 OFFCURVE",
"527 470 CURVE SMOOTH",
"974 397 OFFCURVE",
"1297 22 OFFCURVE",
"1709 22 CURVE SMOOTH",
"2083 22 OFFCURVE",
"2192 452 OFFCURVE",
"1679 457 CURVE SMOOTH",
"1376 460 OFFCURVE",
"897 241 OFFCURVE",
"897 -125 CURVE SMOOTH",
"897 -318 OFFCURVE",
"1073 -335 OFFCURVE",
"1196 -287 CURVE SMOOTH",
"1328 -236 OFFCURVE",
"1421 -86 OFFCURVE",
"1439 -28 CURVE SMOOTH",
"1442 -15 OFFCURVE",
"1433 -6 OFFCURVE",
"1429 -19 CURVE SMOOTH",
"1413 -73 OFFCURVE",
"1313 -220 OFFCURVE",
"1188 -269 CURVE SMOOTH",
"1072 -314 OFFCURVE",
"944 -281 OFFCURVE",
"944 -115 CURVE SMOOTH",
"944 231 OFFCURVE",
"1372 440 OFFCURVE",
"1679 437 CURVE SMOOTH",
"2165 432 OFFCURVE",
"2020 69 OFFCURVE",
"1674 69 CURVE SMOOTH",
"1270 69 OFFCURVE",
"964 421 OFFCURVE",
"527 490 CURVE SMOOTH",
"-106 590 OFFCURVE",
"-88 114 OFFCURVE",
"165 145 CURVE SMOOTH"
);
}
);
width = 2028;
}
);
note = swash.6;
},
{
glyphname = swash.7;
layers = (
{
hints = (
{
horizontal = 1;
place = "{-310, 23}";
type = Stem;
},
{
horizontal = 1;
place = "{22, 47}";
type = Stem;
},
{
horizontal = 1;
place = "{370, 24}";
type = Stem;
},
{
horizontal = 1;
place = "{484, 20}";
type = Stem;
},
{
place = "{64, 15}";
type = Stem;
},
{
place = "{897, 47}";
type = Stem;
},
{
place = "{1585, 15}";
type = Stem;
},
{
place = "{1991, 36}";
type = Stem;
},
{
place = "{1, 46}";
type = Stem;
},
{
horizontal = 1;
place = "{437, 20}";
type = Stem;
},
{
place = "{1429, 10}";
type = Stem;
}
);
layerId = "D54531F3-FE1C-40AB-90CA-1E553B8D5AD9";
paths = (
{
closed = 1;
nodes = (
"178 147 OFFCURVE",
"192 162 OFFCURVE",
"179 160 CURVE SMOOTH",
"-21 135 OFFCURVE",
"-58 565 OFFCURVE",
"527 470 CURVE SMOOTH",
"974 397 OFFCURVE",
"1297 22 OFFCURVE",
"1709 22 CURVE SMOOTH",
"1901 22 OFFCURVE",
"2024 136 OFFCURVE",
"2027 247 CURVE SMOOTH",
"2030 352 OFFCURVE",
"1928 455 OFFCURVE",
"1679 457 CURVE SMOOTH",
"1376 460 OFFCURVE",
"897 241 OFFCURVE",
"897 -125 CURVE SMOOTH",
"897 -318 OFFCURVE",
"1073 -335 OFFCURVE",
"1196 -287 CURVE SMOOTH",
"1328 -236 OFFCURVE",
"1421 -86 OFFCURVE",
"1439 -28 CURVE SMOOTH",
"1442 -15 OFFCURVE",
"1433 -6 OFFCURVE",
"1429 -19 CURVE SMOOTH",
"1413 -73 OFFCURVE",
"1313 -220 OFFCURVE",
"1188 -269 CURVE SMOOTH",
"1072 -314 OFFCURVE",
"944 -281 OFFCURVE",
"944 -115 CURVE SMOOTH",
"944 231 OFFCURVE",
"1372 440 OFFCURVE",
"1679 437 CURVE SMOOTH",
"2165 432 OFFCURVE",
"2020 69 OFFCURVE",
"1674 69 CURVE SMOOTH",
"1270 69 OFFCURVE",
"964 421 OFFCURVE",
"527 490 CURVE SMOOTH",
"-106 590 OFFCURVE",
"-88 114 OFFCURVE",
"165 145 CURVE SMOOTH"
);
},
{
closed = 1;
nodes = (
"1600 207 OFFCURVE",
"1585 208 OFFCURVE",
"1585 198 CURVE SMOOTH",
"1583 125 OFFCURVE",
"1499 47 OFFCURVE",
"1360 47 CURVE SMOOTH",
"1065 47 OFFCURVE",
"786 336 OFFCURVE",
"468 384 CURVE SMOOTH",
"241 419 OFFCURVE",
"107 354 OFFCURVE",
"74 286 CURVE SMOOTH",
"40 218 OFFCURVE",
"91 142 OFFCURVE",
"178 151 CURVE SMOOTH",
"188 152 OFFCURVE",
"186 166 OFFCURVE",
"176 165 CURVE SMOOTH",
"103 157 OFFCURVE",
"59 221 OFFCURVE",
"88 280 CURVE SMOOTH",
"116 339 OFFCURVE",
"241 394 OFFCURVE",
"466 360 CURVE SMOOTH",
"785 311 OFFCURVE",
"1045 9 OFFCURVE",
"1367 9 CURVE SMOOTH",
"1519 9 OFFCURVE",
"1597 113 OFFCURVE",
"1600 197 CURVE SMOOTH"
);
}
);
width = 2028;
}
);
note = swash.7;
},
{
glyphname = swash.8;
layers = (
{
hints = (
{
horizontal = 1;
place = "{-310, 23}";
type = Stem;
},
{
horizontal = 1;
place = "{22, 47}";
type = Stem;
},
{
horizontal = 1;
place = "{484, 20}";
type = Stem;
},
{
place = "{1, 36}";
type = Stem;
},
{
place = "{1084, 47}";
type = Stem;
},
{
place = "{1981, 46}";
type = Stem;
},
{
horizontal = 1;
place = "{437, 20}";
type = Stem;
},
{
place = "{589, 10}";
type = Stem;
}
);
layerId = "D54531F3-FE1C-40AB-90CA-1E553B8D5AD9";
paths = (
{
closed = 1;
nodes = (
"2116 114 OFFCURVE",
"2134 590 OFFCURVE",
"1501 490 CURVE SMOOTH",
"1064 421 OFFCURVE",
"758 69 OFFCURVE",
"354 69 CURVE SMOOTH",
"8 69 OFFCURVE",
"-137 432 OFFCURVE",
"349 437 CURVE SMOOTH",
"656 440 OFFCURVE",
"1084 231 OFFCURVE",
"1084 -115 CURVE SMOOTH",
"1084 -281 OFFCURVE",
"956 -314 OFFCURVE",
"840 -269 CURVE SMOOTH",
"715 -220 OFFCURVE",
"615 -73 OFFCURVE",
"599 -19 CURVE SMOOTH",
"595 -6 OFFCURVE",
"586 -15 OFFCURVE",
"589 -28 CURVE SMOOTH",
"607 -86 OFFCURVE",
"700 -236 OFFCURVE",
"832 -287 CURVE SMOOTH",
"955 -335 OFFCURVE",
"1131 -318 OFFCURVE",
"1131 -125 CURVE SMOOTH",
"1131 241 OFFCURVE",
"652 460 OFFCURVE",
"349 457 CURVE SMOOTH",
"-164 452 OFFCURVE",
"-55 22 OFFCURVE",
"319 22 CURVE SMOOTH",
"731 22 OFFCURVE",
"1054 397 OFFCURVE",
"1501 470 CURVE SMOOTH",
"2086 565 OFFCURVE",
"2049 135 OFFCURVE",
"1849 160 CURVE SMOOTH",
"1836 162 OFFCURVE",
"1850 147 OFFCURVE",
"1863 145 CURVE SMOOTH"
);
}
);
width = 2028;
}
);
note = swash.8;
},
{
glyphname = swash.9;
layers = (
{
hints = (
{
horizontal = 1;
place = "{-310, 23}";
type = Stem;
},
{
horizontal = 1;
place = "{22, 47}";
type = Stem;
},
{
horizontal = 1;
place = "{370, 24}";
type = Stem;
},
{
horizontal = 1;
place = "{484, 20}";
type = Stem;
},
{
place = "{1, 36}";
type = Stem;
},
{
place = "{428, 15}";
type = Stem;
},
{
place = "{1084, 47}";
type = Stem;
},
{
place = "{1949, 15}";
type = Stem;
},
{
place = "{1981, 46}";
type = Stem;
},
{
horizontal = 1;
place = "{437, 20}";
type = Stem;
},
{
place = "{589, 10}";
type = Stem;
},
{
horizontal = 1;
place = "{9, 38}";
type = Stem;
}
);
layerId = "D54531F3-FE1C-40AB-90CA-1E553B8D5AD9";
paths = (
{
closed = 1;
nodes = (
"2116 114 OFFCURVE",
"2134 590 OFFCURVE",
"1501 490 CURVE SMOOTH",
"1064 421 OFFCURVE",
"758 69 OFFCURVE",
"354 69 CURVE SMOOTH",
"8 69 OFFCURVE",
"-137 432 OFFCURVE",
"349 437 CURVE SMOOTH",
"656 440 OFFCURVE",
"1084 231 OFFCURVE",
"1084 -115 CURVE SMOOTH",
"1084 -281 OFFCURVE",
"956 -314 OFFCURVE",
"840 -269 CURVE SMOOTH",
"715 -220 OFFCURVE",
"615 -73 OFFCURVE",
"599 -19 CURVE SMOOTH",
"595 -6 OFFCURVE",
"586 -15 OFFCURVE",
"589 -28 CURVE SMOOTH",
"607 -86 OFFCURVE",
"700 -236 OFFCURVE",
"832 -287 CURVE SMOOTH",
"955 -335 OFFCURVE",
"1131 -318 OFFCURVE",
"1131 -125 CURVE SMOOTH",
"1131 241 OFFCURVE",
"652 460 OFFCURVE",
"349 457 CURVE SMOOTH",
"100 455 OFFCURVE",
"-2 352 OFFCURVE",
"1 247 CURVE SMOOTH",
"4 136 OFFCURVE",
"127 22 OFFCURVE",
"319 22 CURVE SMOOTH",
"731 22 OFFCURVE",
"1054 397 OFFCURVE",
"1501 470 CURVE SMOOTH",
"2086 565 OFFCURVE",
"2049 135 OFFCURVE",
"1849 160 CURVE SMOOTH",
"1836 162 OFFCURVE",
"1850 147 OFFCURVE",
"1863 145 CURVE SMOOTH"
);
},
{
closed = 1;
nodes = (
"431 113 OFFCURVE",
"509 9 OFFCURVE",
"661 9 CURVE SMOOTH",
"983 9 OFFCURVE",
"1243 311 OFFCURVE",
"1562 360 CURVE SMOOTH",
"1787 394 OFFCURVE",
"1912 339 OFFCURVE",
"1940 280 CURVE SMOOTH",
"1969 221 OFFCURVE",
"1925 157 OFFCURVE",
"1852 165 CURVE SMOOTH",
"1842 166 OFFCURVE",
"1840 152 OFFCURVE",
"1850 151 CURVE SMOOTH",
"1937 142 OFFCURVE",
"1988 218 OFFCURVE",
"1954 286 CURVE SMOOTH",
"1921 354 OFFCURVE",
"1787 419 OFFCURVE",
"1560 384 CURVE SMOOTH",
"1242 336 OFFCURVE",
"963 47 OFFCURVE",
"668 47 CURVE SMOOTH",
"529 47 OFFCURVE",
"445 125 OFFCURVE",
"443 198 CURVE SMOOTH",
"443 208 OFFCURVE",
"428 207 OFFCURVE",
"428 197 CURVE SMOOTH"
);
}
);
width = 2028;
}
);
note = swash.9;
},
{
glyphname = swash.10;
layers = (
{
hints = (
{
horizontal = 1;
place = "{86, 15}";
type = Stem;
},
{
horizontal = 1;
place = "{221, 47}";
type = Stem;
},
{
horizontal = 1;
place = "{350, 37}";
type = Stem;
},
{
horizontal = 1;
place = "{569, 24}";
type = Stem;
},
{
horizontal = 1;
place = "{683, 20}";
type = Stem;
},
{
place = "{64, 15}";
type = Stem;
},
{
place = "{1022, 41}";
type = Stem;
},
{
place = "{1991, 23}";
type = Stem;
},
{
place = "{1, 46}";
type = Stem;
},
{
horizontal = 1;
place = "{636, 20}";
type = Stem;
},
{
place = "{1450, 8}";
type = Stem;
}
);
layerId = "D54531F3-FE1C-40AB-90CA-1E553B8D5AD9";
paths = (
{
closed = 1;
nodes = (
"178 346 OFFCURVE",
"192 361 OFFCURVE",
"179 359 CURVE SMOOTH",
"-21 334 OFFCURVE",
"-58 764 OFFCURVE",
"527 669 CURVE SMOOTH",
"974 596 OFFCURVE",
"1297 221 OFFCURVE",
"1709 221 CURVE SMOOTH",
"1901 221 OFFCURVE",
"2024 335 OFFCURVE",
"2027 446 CURVE SMOOTH",
"2030 551 OFFCURVE",
"1928 654 OFFCURVE",
"1679 656 CURVE SMOOTH",
"1376 659 OFFCURVE",
"1022 444 OFFCURVE",
"1022 206 CURVE SMOOTH",
"1022 80 OFFCURVE",
"1173 70 OFFCURVE",
"1278 100 CURVE SMOOTH",
"1391 134 OFFCURVE",
"1444 203 OFFCURVE",
"1458 238 CURVE SMOOTH",
"1461 246 OFFCURVE",
"1453 251 OFFCURVE",
"1450 243 CURVE SMOOTH",
"1437 211 OFFCURVE",
"1379 144 OFFCURVE",
"1272 113 CURVE SMOOTH",
"1172 83 OFFCURVE",
"1063 104 OFFCURVE",
"1063 212 CURVE SMOOTH",
"1063 437 OFFCURVE",
"1372 639 OFFCURVE",
"1679 636 CURVE SMOOTH",
"2165 631 OFFCURVE",
"2020 268 OFFCURVE",
"1674 268 CURVE SMOOTH",
"1270 268 OFFCURVE",
"964 620 OFFCURVE",
"527 689 CURVE SMOOTH",
"-106 789 OFFCURVE",
"-88 313 OFFCURVE",
"165 344 CURVE SMOOTH"
);
},
{
closed = 1;
nodes = (
"2007 394 OFFCURVE",
"2000 384 OFFCURVE",
"2001 371 CURVE SMOOTH",
"2008 245 OFFCURVE",
"1878 146 OFFCURVE",
"1677 146 CURVE SMOOTH",
"1252 146 OFFCURVE",
"786 535 OFFCURVE",
"468 583 CURVE SMOOTH",
"241 618 OFFCURVE",
"107 553 OFFCURVE",
"74 485 CURVE SMOOTH",
"40 417 OFFCURVE",
"91 341 OFFCURVE",
"178 350 CURVE SMOOTH",
"188 351 OFFCURVE",
"186 365 OFFCURVE",
"176 364 CURVE SMOOTH",
"103 356 OFFCURVE",
"59 420 OFFCURVE",
"88 479 CURVE SMOOTH",
"116 538 OFFCURVE",
"241 593 OFFCURVE",
"466 559 CURVE SMOOTH",
"785 510 OFFCURVE",
"1223 95 OFFCURVE",
"1688 95 CURVE SMOOTH",
"1908 95 OFFCURVE",
"2039 240 OFFCURVE",
"2010 381 CURVE SMOOTH"
);
}
);
width = 2028;
}
);
note = swash.10;
},
{
glyphname = swash.11;
layers = (
{
hints = (
{
horizontal = 1;
place = "{157, 20}";
type = Stem;
},
{
horizontal = 1;
place = "{266, 24}";
type = Stem;
},
{
horizontal = 1;
place = "{472, 65}";
type = Stem;
},
{
horizontal = 1;
place = "{591, 47}";
type = Stem;
},
{
horizontal = 1;
place = "{758, 15}";
type = Stem;
},
{
place = "{63, 16}";
type = Stem;
},
{
place = "{1022, 41}";
type = Stem;
},
{
place = "{1991, 36}";
type = Stem;
},
{
place = "{0, 47}";
type = Stem;
},
{
horizontal = 1;
place = "{203, 20}";
type = Stem;
},
{
place = "{1450, 8}";
type = Stem;
},
{
horizontal = 1;
place = "{713, 51}";
type = Stem;
}
);
layerId = "D54531F3-FE1C-40AB-90CA-1E553B8D5AD9";
paths = (
{
closed = 1;
nodes = (
"-92 577 OFFCURVE",
"-106 70 OFFCURVE",
"527 170 CURVE SMOOTH",
"964 239 OFFCURVE",
"1270 591 OFFCURVE",
"1674 591 CURVE SMOOTH",
"2020 591 OFFCURVE",
"2165 228 OFFCURVE",
"1679 223 CURVE SMOOTH",
"1372 220 OFFCURVE",
"1063 422 OFFCURVE",
"1063 647 CURVE SMOOTH",
"1063 755 OFFCURVE",
"1172 776 OFFCURVE",
"1272 746 CURVE SMOOTH",
"1379 715 OFFCURVE",
"1437 648 OFFCURVE",
"1450 616 CURVE SMOOTH",
"1453 608 OFFCURVE",
"1461 613 OFFCURVE",
"1458 621 CURVE SMOOTH",
"1444 656 OFFCURVE",
"1391 725 OFFCURVE",
"1278 759 CURVE SMOOTH",
"1173 789 OFFCURVE",
"1022 779 OFFCURVE",
"1022 653 CURVE SMOOTH",
"1022 415 OFFCURVE",
"1376 200 OFFCURVE",
"1679 203 CURVE SMOOTH",
"1928 205 OFFCURVE",
"2030 308 OFFCURVE",
"2027 413 CURVE SMOOTH",
"2024 524 OFFCURVE",
"1901 638 OFFCURVE",
"1709 638 CURVE SMOOTH",
"1297 638 OFFCURVE",
"974 263 OFFCURVE",
"527 190 CURVE SMOOTH",
"-58 95 OFFCURVE",
"-23 554 OFFCURVE",
"184 525 CURVE SMOOTH",
"198 523 OFFCURVE",
"183 540 OFFCURVE",
"170 542 CURVE SMOOTH"
);
},
{
closed = 1;
nodes = (
"2039 619 OFFCURVE",
"1908 764 OFFCURVE",
"1688 764 CURVE SMOOTH",
"1223 764 OFFCURVE",
"785 349 OFFCURVE",
"466 300 CURVE SMOOTH",
"241 266 OFFCURVE",
"119 324 OFFCURVE",
"90 390 CURVE SMOOTH",
"60 457 OFFCURVE",
"95 538 OFFCURVE",
"170 529 CURVE SMOOTH",
"181 528 OFFCURVE",
"181 535 OFFCURVE",
"170 537 CURVE SMOOTH",
"80 547 OFFCURVE",
"40 460 OFFCURVE",
"76 383 CURVE SMOOTH",
"110 307 OFFCURVE",
"241 241 OFFCURVE",
"468 276 CURVE SMOOTH",
"786 324 OFFCURVE",
"1252 713 OFFCURVE",
"1677 713 CURVE SMOOTH",
"1878 713 OFFCURVE",
"2008 614 OFFCURVE",
"2001 488 CURVE SMOOTH",
"2000 475 OFFCURVE",
"2007 465 OFFCURVE",
"2010 478 CURVE SMOOTH"
);
}
);
width = 2028;
}
);
note = swash.11;
},
{
glyphname = swash.12;
layers = (
{
hints = (
{
horizontal = 1;
place = "{157, 20}";
type = Stem;
},
{
horizontal = 1;
place = "{266, 24}";
type = Stem;
},
{
horizontal = 1;
place = "{472, 65}";
type = Stem;
},
{
horizontal = 1;
place = "{591, 47}";
type = Stem;
},
{
horizontal = 1;
place = "{758, 15}";
type = Stem;
},
{
place = "{48, 23}";
type = Stem;
},
{
place = "{999, 41}";
type = Stem;
},
{
place = "{1983, 16}";
type = Stem;
},
{
place = "{2015, 47}";
type = Stem;
},
{
horizontal = 1;
place = "{203, 20}";
type = Stem;
},
{
place = "{604, 8}";
type = Stem;
}
);
layerId = "D54531F3-FE1C-40AB-90CA-1E553B8D5AD9";
paths = (
{
closed = 1;
nodes = (
"1879 540 OFFCURVE",
"1864 523 OFFCURVE",
"1878 525 CURVE SMOOTH",
"2085 554 OFFCURVE",
"2120 95 OFFCURVE",
"1535 190 CURVE SMOOTH",
"1088 263 OFFCURVE",
"765 638 OFFCURVE",
"353 638 CURVE SMOOTH",
"161 638 OFFCURVE",
"38 524 OFFCURVE",
"35 413 CURVE SMOOTH",
"32 308 OFFCURVE",
"134 205 OFFCURVE",
"383 203 CURVE SMOOTH",
"686 200 OFFCURVE",
"1040 415 OFFCURVE",
"1040 653 CURVE SMOOTH",
"1040 779 OFFCURVE",
"889 789 OFFCURVE",
"784 759 CURVE SMOOTH",
"671 725 OFFCURVE",
"618 656 OFFCURVE",
"604 621 CURVE SMOOTH",
"601 613 OFFCURVE",
"609 608 OFFCURVE",
"612 616 CURVE SMOOTH",
"625 648 OFFCURVE",
"683 715 OFFCURVE",
"790 746 CURVE SMOOTH",
"890 776 OFFCURVE",
"999 755 OFFCURVE",
"999 647 CURVE SMOOTH",
"999 422 OFFCURVE",
"690 220 OFFCURVE",
"383 223 CURVE SMOOTH",
"-103 228 OFFCURVE",
"42 591 OFFCURVE",
"388 591 CURVE SMOOTH",
"792 591 OFFCURVE",
"1098 239 OFFCURVE",
"1535 170 CURVE SMOOTH",
"2168 70 OFFCURVE",
"2154 577 OFFCURVE",
"1892 542 CURVE SMOOTH"
);
},
{
closed = 1;
nodes = (
"55 465 OFFCURVE",
"62 475 OFFCURVE",
"61 488 CURVE SMOOTH",
"54 614 OFFCURVE",
"184 713 OFFCURVE",
"385 713 CURVE SMOOTH",
"810 713 OFFCURVE",
"1276 324 OFFCURVE",
"1594 276 CURVE SMOOTH",
"1821 241 OFFCURVE",
"1952 307 OFFCURVE",
"1986 383 CURVE SMOOTH",
"2022 460 OFFCURVE",
"1982 547 OFFCURVE",
"1892 537 CURVE SMOOTH",
"1881 535 OFFCURVE",
"1881 528 OFFCURVE",
"1892 529 CURVE SMOOTH",
"1967 538 OFFCURVE",
"2002 457 OFFCURVE",
"1972 390 CURVE SMOOTH",
"1943 324 OFFCURVE",
"1821 266 OFFCURVE",
"1596 300 CURVE SMOOTH",
"1277 349 OFFCURVE",
"839 764 OFFCURVE",
"374 764 CURVE SMOOTH",
"154 764 OFFCURVE",
"23 619 OFFCURVE",
"52 478 CURVE SMOOTH"
);
}
);
width = 2062;
}
);
note = swash.12;
},
{
glyphname = swash.13;
layers = (
{
hints = (
{
horizontal = 1;
place = "{86, 15}";
type = Stem;
},
{
horizontal = 1;
place = "{221, 47}";
type = Stem;
},
{
horizontal = 1;
place = "{350, 37}";
type = Stem;
},
{
horizontal = 1;
place = "{569, 24}";
type = Stem;
},
{
horizontal = 1;
place = "{683, 20}";
type = Stem;
},
{
place = "{49, 36}";
type = Stem;
},
{
place = "{1013, 41}";
type = Stem;
},
{
place = "{1997, 15}";
type = Stem;
},
{
place = "{2029, 46}";
type = Stem;
},
{
horizontal = 1;
place = "{636, 20}";
type = Stem;
},
{
place = "{618, 8}";
type = Stem;
},
{
horizontal = 1;
place = "{95, 51}";
type = Stem;
}
);
layerId = "D54531F3-FE1C-40AB-90CA-1E553B8D5AD9";
paths = (
{
closed = 1;
nodes = (
"2164 313 OFFCURVE",
"2182 789 OFFCURVE",
"1549 689 CURVE SMOOTH",
"1112 620 OFFCURVE",
"806 268 OFFCURVE",
"402 268 CURVE SMOOTH",
"56 268 OFFCURVE",
"-89 631 OFFCURVE",
"397 636 CURVE SMOOTH",
"704 639 OFFCURVE",
"1013 437 OFFCURVE",
"1013 212 CURVE SMOOTH",
"1013 104 OFFCURVE",
"904 83 OFFCURVE",
"804 113 CURVE SMOOTH",
"697 144 OFFCURVE",
"639 211 OFFCURVE",
"626 243 CURVE SMOOTH",
"623 251 OFFCURVE",
"615 246 OFFCURVE",
"618 238 CURVE SMOOTH",
"632 203 OFFCURVE",
"685 134 OFFCURVE",
"798 100 CURVE SMOOTH",
"903 70 OFFCURVE",
"1054 80 OFFCURVE",
"1054 206 CURVE SMOOTH",
"1054 444 OFFCURVE",
"700 659 OFFCURVE",
"397 656 CURVE SMOOTH",
"148 654 OFFCURVE",
"46 551 OFFCURVE",
"49 446 CURVE SMOOTH",
"52 335 OFFCURVE",
"175 221 OFFCURVE",
"367 221 CURVE SMOOTH",
"779 221 OFFCURVE",
"1102 596 OFFCURVE",
"1549 669 CURVE SMOOTH",
"2134 764 OFFCURVE",
"2097 334 OFFCURVE",
"1897 359 CURVE SMOOTH",
"1884 361 OFFCURVE",
"1898 346 OFFCURVE",
"1911 344 CURVE SMOOTH"
);
},
{
closed = 1;
nodes = (
"37 240 OFFCURVE",
"168 95 OFFCURVE",
"388 95 CURVE SMOOTH",
"853 95 OFFCURVE",
"1291 510 OFFCURVE",
"1610 559 CURVE SMOOTH",
"1835 593 OFFCURVE",
"1960 538 OFFCURVE",
"1988 479 CURVE SMOOTH",
"2017 420 OFFCURVE",
"1973 356 OFFCURVE",
"1900 364 CURVE SMOOTH",
"1890 365 OFFCURVE",
"1888 351 OFFCURVE",
"1898 350 CURVE SMOOTH",
"1985 341 OFFCURVE",
"2036 417 OFFCURVE",
"2002 485 CURVE SMOOTH",
"1969 553 OFFCURVE",
"1835 618 OFFCURVE",
"1608 583 CURVE SMOOTH",
"1290 535 OFFCURVE",
"824 146 OFFCURVE",
"399 146 CURVE SMOOTH",
"198 146 OFFCURVE",
"68 245 OFFCURVE",
"75 371 CURVE SMOOTH",
"76 384 OFFCURVE",
"69 394 OFFCURVE",
"66 381 CURVE SMOOTH"
);
}
);
width = 2076;
}
);
note = swash.13;
},
{
glyphname = guides;
layers = (
{
hints = (
{
horizontal = 1;
place = "{-393, 10}";
type = Stem;
},
{
horizontal = 1;
place = "{-5, 10}";
type = Stem;
},
{
horizontal = 1;
place = "{285, 10}";
type = Stem;
},
{
horizontal = 1;
place = "{570, 10}";
type = Stem;
},
{
horizontal = 1;
place = "{773, 10}";
type = Stem;
},
{
place = "{0, 10}";
type = Stem;
},
{
place = "{374, 10}";
type = Stem;
}
);
layerId = "D54531F3-FE1C-40AB-90CA-1E553B8D5AD9";
paths = (
{
closed = 1;
nodes = (
"0 -393 LINE",
"384 -393 LINE",
"384 783 LINE",
"0 783 LINE"
);
},
{
closed = 1;
nodes = (
"10 773 LINE",
"374 773 LINE",
"374 -383 LINE",
"10 -383 LINE"
);
},
{
closed = 1;
nodes = (
"34 285 LINE",
"34 285 OFFCURVE",
"345 285 OFFCURVE",
"345 285 CURVE",
"345 295 LINE",
"345 295 OFFCURVE",
"34 295 OFFCURVE",
"34 295 CURVE"
);
},
{
closed = 1;
nodes = (
"34 -5 LINE",
"34 -5 OFFCURVE",
"345 -5 OFFCURVE",
"345 -5 CURVE",
"345 5 LINE",
"345 5 OFFCURVE",
"34 5 OFFCURVE",
"34 5 CURVE"
);
},
{
closed = 1;
nodes = (
"34 570 LINE",
"34 570 OFFCURVE",
"345 570 OFFCURVE",
"345 570 CURVE",
"345 580 LINE",
"345 580 OFFCURVE",
"34 580 OFFCURVE",
"34 580 CURVE"
);
}
);
width = 384;
}
);
note = guides;
},
{
glyphname = bracketleft;
layers = (
{
hints = (
{
horizontal = 1;
place = "{530, 15}";
type = Stem;
},
{
horizontal = 1;
place = "{596, 10}";
type = Stem;
},
{
horizontal = 1;
place = "{661, 9}";
type = Stem;
},
{
horizontal = 1;
place = "{742, 8}";
type = Stem;
},
{
place = "{264, 11}";
type = Stem;
},
{
place = "{417, 14}";
type = Stem;
},
{
place = "{722, 8}";
type = Stem;
},
{
horizontal = 1;
place = "{565, 7}";
type = Stem;
},
{
horizontal = 1;
place = "{539, 32}";
type = Stem;
},
{
horizontal = 1;
place = "{628, 32}";
type = Stem;
},
{
place = "{366, 32}";
type = Stem;
},
{
place = "{752, 32}";
type = Stem;
}
);
layerId = "D54531F3-FE1C-40AB-90CA-1E553B8D5AD9";
paths = (
{
closed = 1;
nodes = (
"147 638 OFFCURVE",
"39 606 OFFCURVE",
"0 606 CURVE SMOOTH",
"-8 606 LINE SMOOTH",
"-15 606 OFFCURVE",
"-15 596 OFFCURVE",
"-8 596 CURVE SMOOTH",
"0 596 LINE SMOOTH",
"39 596 OFFCURVE",
"147 564 OFFCURVE",
"180 564 CURVE SMOOTH",
"226 564 OFFCURVE",
"223 596 OFFCURVE",
"249 596 CURVE SMOOTH",
"268 596 LINE",
"278 575 OFFCURVE",
"311 556 OFFCURVE",
"374 565 CURVE SMOOTH",
"404 570 OFFCURVE",
"431 582 OFFCURVE",
"458 596 CURVE",
"464 596 LINE",
"510 553 OFFCURVE",
"581 529 OFFCURVE",
"634 530 CURVE SMOOTH",
"702 531 OFFCURVE",
"730 563 OFFCURVE",
"730 596 CURVE",
"769 596 LINE",
"769 606 LINE",
"729 606 LINE",
"724 639 OFFCURVE",
"691 670 OFFCURVE",
"642 670 CURVE SMOOTH",
"569 670 OFFCURVE",
"518 636 OFFCURVE",
"465 608 CURVE",
"444 630 OFFCURVE",
"431 659 OFFCURVE",
"431 693 CURVE SMOOTH",
"431 741 OFFCURVE",
"465 750 OFFCURVE",
"496 737 CURVE SMOOTH",
"530 723 OFFCURVE",
"553 682 OFFCURVE",
"557 668 CURVE SMOOTH",
"558 665 OFFCURVE",
"561 669 OFFCURVE",
"561 672 CURVE",
"556 688 OFFCURVE",
"539 730 OFFCURVE",
"503 744 CURVE SMOOTH",
"471 758 OFFCURVE",
"417 751 OFFCURVE",
"417 696 CURVE SMOOTH",
"417 661 OFFCURVE",
"431 630 OFFCURVE",
"454 606 CURVE",
"275 606 LINE",
"270 624 OFFCURVE",
"283 642 OFFCURVE",
"304 639 CURVE SMOOTH",
"306 639 OFFCURVE",
"303 642 OFFCURVE",
"300 642 CURVE SMOOTH",
"275 645 OFFCURVE",
"261 626 OFFCURVE",
"264 606 CURVE",
"249 606 LINE SMOOTH",
"223 606 OFFCURVE",
"226 638 OFFCURVE",
"180 638 CURVE SMOOTH"
);
},
{
closed = 1;
nodes = (
"684 661 OFFCURVE",
"716 634 OFFCURVE",
"721 606 CURVE",
"477 606 LINE",
"525 632 OFFCURVE",
"573 661 OFFCURVE",
"639 661 CURVE SMOOTH"
);
},
{
closed = 1;
nodes = (
"584 544 OFFCURVE",
"522 561 OFFCURVE",
"480 596 CURVE",
"722 596 LINE",
"722 569 OFFCURVE",
"696 545 OFFCURVE",
"635 545 CURVE SMOOTH"
);
},
{
closed = 1;
nodes = (
"319 566 OFFCURVE",
"290 579 OFFCURVE",
"279 596 CURVE",
"440 596 LINE",
"419 586 OFFCURVE",
"397 578 OFFCURVE",
"374 575 CURVE SMOOTH"
);
},
{
closed = 1;
nodes = (
"784 564 OFFCURVE",
"777 571 OFFCURVE",
"768 571 CURVE SMOOTH",
"759 571 OFFCURVE",
"752 564 OFFCURVE",
"752 555 CURVE SMOOTH",
"752 546 OFFCURVE",
"759 539 OFFCURVE",
"768 539 CURVE SMOOTH",
"777 539 OFFCURVE",
"784 546 OFFCURVE",
"784 555 CURVE SMOOTH"
);
},
{
closed = 1;
nodes = (
"398 653 OFFCURVE",
"391 660 OFFCURVE",
"382 660 CURVE SMOOTH",
"373 660 OFFCURVE",
"366 653 OFFCURVE",
"366 644 CURVE SMOOTH",
"366 635 OFFCURVE",
"373 628 OFFCURVE",
"382 628 CURVE SMOOTH",
"391 628 OFFCURVE",
"398 635 OFFCURVE",
"398 644 CURVE SMOOTH"
);
}
);
width = 768;
}
);
note = bracketleft;
unicode = 005B;
},
{
glyphname = C;
layers = (
{
hints = (
{
horizontal = 1;
place = "{-393, 21}";
target = up;
type = BottomGhost;
},
{
horizontal = 1;
place = "{550, 10}";
type = Stem;
},
{
horizontal = 1;
place = "{596, 10}";
type = Stem;
},
{
horizontal = 1;
place = "{665, 10}";
type = Stem;
},
{
place = "{259, 10}";
type = Stem;
},
{
place = "{305, 10}";
type = Stem;
},
{
place = "{374, 10}";
type = Stem;
}
);
layerId = "D54531F3-FE1C-40AB-90CA-1E553B8D5AD9";
paths = (
{
closed = 1;
nodes = (
"384 675 LINE",
"305 675 LINE",
"305 606 LINE",
"-1 606 LINE",
"-1 596 LINE",
"305 596 LINE",
"305 -393 LINE",
"315 -393 LINE",
"315 596 LINE",
"384 596 LINE"
);
},
{
closed = 1;
nodes = (
"269 -393 LINE",
"269 560 LINE",
"-1 560 LINE",
"-1 550 LINE",
"259 550 LINE",
"259 -393 LINE"
);
},
{
closed = 1;
nodes = (
"315 665 LINE",
"374 665 LINE",
"374 606 LINE",
"315 606 LINE"
);
}
);
width = 384;
}
);
note = C;
unicode = 0043;
},
{
glyphname = A;
layers = (
{
hints = (
{
horizontal = 1;
place = "{-393, 21}";
target = up;
type = BottomGhost;
},
{
horizontal = 1;
place = "{550, 10}";
type = Stem;
},
{
horizontal = 1;
place = "{596, 10}";
type = Stem;
},
{
horizontal = 1;
place = "{665, 10}";
type = Stem;
},
{
place = "{0, 10}";
type = Stem;
},
{
place = "{69, 10}";
type = Stem;
},
{
place = "{115, 10}";
type = Stem;
}
);
layerId = "D54531F3-FE1C-40AB-90CA-1E553B8D5AD9";
paths = (
{
closed = 1;
nodes = (
"0 596 LINE",
"69 596 LINE",
"69 -393 LINE",
"79 -393 LINE",
"79 596 LINE",
"385 596 LINE",
"385 606 LINE",
"79 606 LINE",
"79 675 LINE",
"0 675 LINE"
);
},
{
closed = 1;
nodes = (
"125 -393 LINE",
"125 550 LINE",
"385 550 LINE",
"385 560 LINE",
"115 560 LINE",
"115 -393 LINE"
);
},
{
closed = 1;
nodes = (
"10 665 LINE",
"69 665 LINE",
"69 606 LINE",
"10 606 LINE"
);
}
);
width = 384;
}
);
note = A;
unicode = 0041;
},
{
glyphname = B;
layers = (
{
layerId = "D54531F3-FE1C-40AB-90CA-1E553B8D5AD9";
paths = (
{
closed = 1;
nodes = (
"385 606 LINE",
"-1 606 LINE",
"-1 596 LINE",
"385 596 LINE"
);
},
{
closed = 1;
nodes = (
"385 560 LINE",
"-1 560 LINE",
"-1 550 LINE",
"385 550 LINE"
);
}
